SplineFontDB: 3.2
FontName: SRserif
FullName: SR Serif
FamilyName: SRserif
Weight: Black
Copyright: Copyright 2022 Jacobo Tarrio.\n\nBased on Merriweather Copyright 2016 The Merriweather Project Authors (https://github.com/EbenSorkin/Merriweather),.\n
Version: 1.0
ItalicAngle: 0
UnderlinePosition: -100
UnderlineWidth: 50
Ascent: 800
Descent: 200
InvalidEm: 0
sfntRevision: 0x00010000
LayerCount: 2
Layer: 0 1 "Back" 1
Layer: 1 1 "Fore" 0
XUID: [1021 573 -1638179313 16003]
StyleMap: 0x0040
FSType: 0
OS2Version: 4
OS2_WeightWidthSlopeOnly: 0
OS2_UseTypoMetrics: 1
CreationTime: 1509080510
ModificationTime: 1651976283
PfmFamily: 81
TTFWeight: 900
TTFWidth: 5
LineGap: 0
VLineGap: 0
Panose: 0 0 10 0 0 0 0 0 0 0
OS2TypoAscent: 984
OS2TypoAOffset: 0
OS2TypoDescent: -273
OS2TypoDOffset: 0
OS2TypoLinegap: 0
OS2WinAscent: 1065
OS2WinAOffset: 0
OS2WinDescent: 273
OS2WinDOffset: 0
HheadAscent: 984
HheadAOffset: 0
HheadDescent: -273
HheadDOffset: 0
OS2SubXSize: 650
OS2SubYSize: 600
OS2SubXOff: 0
OS2SubYOff: 75
OS2SupXSize: 650
OS2SupYSize: 600
OS2SupXOff: 0
OS2SupYOff: 350
OS2StrikeYSize: 50
OS2StrikeYPos: 333
OS2CapHeight: 743
OS2XHeight: 556
OS2Vendor: 'STC '
OS2CodePages: 20000197.00000000
OS2UnicodeRanges: 00000007.00000002.00000000.00000000
Lookup: 6 0 0 "'locl' Localized Forms in Latin lookup 0" { "'locl' Localized Forms in Latin lookup 0 contextual 0"  "'locl' Localized Forms in Latin lookup 0 contextual 1"  } ['locl' ('latn' <'CAT ' > ) ]
Lookup: 1 0 0 "'locl' Localized Forms in Latin lookup 1" { "'locl' Localized Forms in Latin lookup 1 subtable"  } ['locl' ('latn' <'KAZ ' > ) ]
Lookup: 1 0 0 "'locl' Localized Forms in Latin lookup 2" { "'locl' Localized Forms in Latin lookup 2 subtable"  } ['locl' ('latn' <'TAT ' > ) ]
Lookup: 1 0 0 "'locl' Localized Forms in Latin lookup 3" { "'locl' Localized Forms in Latin lookup 3 subtable"  } ['locl' ('latn' <'TRK ' > ) ]

StartChar: .notdef
Encoding: 65536 -1 0
Width: 864
GlyphClass: 1
Flags: W
LayerCount: 2
Fore
SplineSet
778 0 m 1,0,-1
 86 0 l 1,1,-1
 86 691 l 1,2,-1
 778 691 l 1,3,-1
 778 0 l 1,0,-1
596 123 m 1,4,-1
 651 178 l 1,5,-1
 481 346 l 1,6,-1
 651 509 l 1,7,-1
 593 565 l 1,8,-1
 433 394 l 1,9,-1
 270 566 l 1,10,-1
 214 509 l 1,11,-1
 382 344 l 1,12,-1
 215 189 l 1,13,-1
 273 123 l 1,14,-1
 431 295 l 1,15,-1
 596 123 l 1,4,-1
EndSplineSet
Validated: 1
EndChar

StartChar: A
Encoding: 65 65 4
Width: 707
GlyphClass: 2
Flags: W
LayerCount: 2
Fore
SplineSet
262 746 m 1,0,-1
 442 746 l 1,1,-1
 666 76 l 1,2,-1
 721 66 l 1,3,-1
 721 0 l 1,4,-1
 406 0 l 1,5,-1
 406 66 l 1,6,-1
 477 76 l 1,7,-1
 443 196 l 1,8,-1
 204 196 l 1,9,-1
 170 75 l 1,10,-1
 248 66 l 1,11,-1
 248 0 l 1,12,-1
 -18 0 l 1,13,-1
 -19 66 l 1,14,-1
 39 77 l 1,15,-1
 262 746 l 1,0,-1
336 572 m 1,16,-1
 321 642 l 1,17,-1
 305 571 l 1,18,-1
 224 273 l 1,19,-1
 422 273 l 1,20,-1
 336 572 l 1,16,-1
EndSplineSet
Validated: 1
EndChar

StartChar: Aring
Encoding: 197 197 9
Width: 707
GlyphClass: 2
Flags: W
LayerCount: 2
Fore
SplineSet
-19 66 m 1,0,-1
 39 77 l 1,1,-1
 259 737 l 1,2,3
 214 751 214 751 193.5 782 c 128,-1,4
 173 813 173 813 175 855 c 0,5,6
 176 915 176 915 224.5 949 c 128,-1,7
 273 983 273 983 352 983 c 0,8,9
 441 983 441 983 484 947.5 c 128,-1,10
 527 912 527 912 527 854 c 0,11,12
 527 814 527 814 505 784.5 c 128,-1,13
 483 755 483 755 444 741 c 1,14,-1
 666 76 l 1,15,-1
 721 66 l 1,16,-1
 721 0 l 1,17,-1
 406 0 l 1,18,-1
 406 66 l 1,19,-1
 477 76 l 1,20,-1
 443 196 l 1,21,-1
 204 196 l 1,22,-1
 170 75 l 1,23,-1
 248 66 l 1,24,-1
 248 0 l 1,25,-1
 -18 0 l 1,26,-1
 -19 66 l 1,0,-1
291 801.5 m 128,-1,28
 310 780 310 780 351 780 c 0,29,30
 394 780 394 780 412 797.5 c 128,-1,31
 430 815 430 815 430 848 c 0,32,33
 430 883 430 883 411.5 904 c 128,-1,34
 393 925 393 925 352 925 c 0,35,36
 309 925 309 925 290.5 907 c 128,-1,37
 272 889 272 889 272 854 c 0,38,27
 272 823 272 823 291 801.5 c 128,-1,28
422 273 m 1,39,-1
 336 572 l 1,40,-1
 321 642 l 1,41,-1
 305 571 l 1,42,-1
 224 273 l 1,43,-1
 422 273 l 1,39,-1
EndSplineSet
Validated: 33
EndChar

StartChar: AE
Encoding: 198 198 11
Width: 946
GlyphClass: 2
Flags: W
LayerCount: 2
Fore
SplineSet
400 205 m 1,0,-1
 172 205 l 1,1,-1
 124 76 l 1,2,-1
 198 65 l 1,3,-1
 198 0 l 1,4,-1
 -81 0 l 1,5,-1
 -81 65 l 1,6,-1
 -10 76 l 1,7,-1
 233 660 l 1,8,-1
 105 674 l 1,9,-1
 105 743 l 1,10,-1
 868 743 l 1,11,-1
 883 566 l 1,12,-1
 804 566 l 1,13,-1
 769 667 l 1,14,-1
 570 678 l 1,15,-1
 570 417 l 1,16,-1
 692 421 l 1,17,-1
 709 502 l 1,18,-1
 778 502 l 1,19,-1
 778 251 l 1,20,-1
 709 251 l 1,21,-1
 693 338 l 1,22,-1
 570 341 l 1,23,-1
 570 69 l 1,24,-1
 790 83 l 1,25,-1
 854 212 l 1,26,-1
 948 186 l 1,27,-1
 915 0 l 1,28,-1
 322 0 l 1,29,-1
 322 65 l 1,30,-1
 400 76 l 1,31,-1
 400 205 l 1,0,-1
400 671 m 1,32,-1
 342 671 l 1,33,-1
 292 531 l 1,34,-1
 200 284 l 1,35,-1
 400 284 l 1,36,-1
 400 671 l 1,32,-1
EndSplineSet
Validated: 1
EndChar

StartChar: B
Encoding: 66 66 12
Width: 717
GlyphClass: 2
Flags: W
LayerCount: 2
Fore
SplineSet
111 659 m 1,0,-1
 36 673 l 1,1,-1
 36 743 l 1,2,-1
 194 743 l 2,3,4
 228 743 228 743 284 747 c 0,5,6
 296 748 296 748 314 749 c 128,-1,7
 332 750 332 750 356 750 c 0,8,9
 465 750 465 750 527 730 c 128,-1,10
 589 710 589 710 613.5 673 c 128,-1,11
 638 636 638 636 638 580 c 0,12,13
 638 505 638 505 591.5 456 c 128,-1,14
 545 407 545 407 473 397 c 1,15,16
 573 397 573 397 630.5 352 c 128,-1,17
 688 307 688 307 688 225 c 0,18,19
 688 118 688 118 614.5 56 c 128,-1,20
 541 -6 541 -6 365 -6 c 0,21,22
 337 -6 337 -6 311 -4.5 c 128,-1,23
 285 -3 285 -3 274 -3 c 0,24,25
 238 0 238 0 196 0 c 2,26,-1
 34 0 l 1,27,-1
 34 66 l 1,28,-1
 111 77 l 1,29,-1
 111 659 l 1,0,-1
361 420 m 0,31,32
 416 420 416 420 442 457.5 c 128,-1,33
 468 495 468 495 468 563 c 0,34,35
 468 626 468 626 440 655 c 128,-1,36
 412 684 412 684 349 684 c 0,37,38
 334 684 334 684 314 682.5 c 128,-1,39
 294 681 294 681 280 679 c 1,40,-1
 280 422 l 1,41,30
 298 420 298 420 361 420 c 0,31,32
359 63 m 0,43,44
 433 63 433 63 466.5 102 c 128,-1,45
 500 141 500 141 500 215 c 0,46,47
 500 285 500 285 469 315 c 128,-1,48
 438 345 438 345 371 345 c 0,49,50
 316 345 316 345 280 343 c 1,51,-1
 280 71 l 1,52,42
 300 63 300 63 359 63 c 0,43,44
EndSplineSet
Validated: 1
EndChar

StartChar: C
Encoding: 67 67 13
Width: 662
GlyphClass: 2
Flags: W
LayerCount: 2
Fore
SplineSet
116 89.5 m 128,-1,1
 26 190 26 190 26 365 c 0,2,3
 26 483 26 483 74 570.5 c 128,-1,4
 122 658 122 658 206 704.5 c 128,-1,5
 290 751 290 751 396 751 c 0,6,7
 438 751 438 751 477 746.5 c 128,-1,8
 516 742 516 742 571 734 c 0,9,10
 614 727 614 727 630 726 c 1,11,-1
 618 503 l 1,12,-1
 511 503 l 1,13,-1
 477 656 l 1,14,15
 455 680 455 680 385 680 c 0,16,17
 308 680 308 680 263.5 603.5 c 128,-1,18
 219 527 219 527 219 379 c 0,19,20
 219 235 219 235 262.5 148 c 128,-1,21
 306 61 306 61 389 61 c 0,22,23
 430 61 430 61 451.5 69 c 128,-1,24
 473 77 473 77 488 92 c 1,25,-1
 533 199 l 1,26,-1
 631 190 l 1,27,-1
 613 27 l 1,28,29
 584 25 584 25 542 12 c 0,30,31
 502 1 502 1 466.5 -5 c 128,-1,32
 431 -11 431 -11 379 -11 c 0,33,0
 206 -11 206 -11 116 89.5 c 128,-1,1
EndSplineSet
Validated: 1
EndChar

StartChar: D
Encoding: 68 68 15
Width: 763
GlyphClass: 2
Flags: W
LayerCount: 2
Fore
SplineSet
111 659 m 1,0,-1
 38 673 l 1,1,-1
 38 743 l 1,2,-1
 194 743 l 2,3,4
 227 743 227 743 283 747 c 0,5,6
 296 748 296 748 322.5 749 c 128,-1,7
 349 750 349 750 370 750 c 0,8,9
 552 750 552 750 644 659 c 128,-1,10
 736 568 736 568 736 398 c 0,11,12
 736 281 736 281 691 189 c 128,-1,13
 646 97 646 97 562 44.5 c 128,-1,14
 478 -8 478 -8 364 -8 c 0,15,16
 333 -8 333 -8 271 -4 c 0,17,18
 213 0 213 0 196 0 c 2,19,-1
 34 0 l 1,20,-1
 34 66 l 1,21,-1
 111 77 l 1,22,-1
 111 659 l 1,0,-1
360 65 m 0,24,25
 450 66 450 66 499.5 141.5 c 128,-1,26
 549 217 549 217 549 373 c 0,27,28
 549 517 549 517 500.5 598.5 c 128,-1,29
 452 680 452 680 348 680 c 0,30,31
 324 680 324 680 305 677 c 128,-1,32
 286 674 286 674 280 673 c 1,33,-1
 280 74 l 1,34,23
 315 63 315 63 360 65 c 0,24,25
EndSplineSet
Validated: 33
EndChar

StartChar: Eth
Encoding: 208 208 16
Width: 763
GlyphClass: 1
Flags: W
LayerCount: 2
Fore
SplineSet
111 659 m 1,0,-1
 38 673 l 1,1,-1
 38 743 l 1,2,-1
 194 743 l 2,3,4
 227 743 227 743 283 747 c 0,5,6
 296 748 296 748 322.5 749 c 128,-1,7
 349 750 349 750 370 750 c 0,8,9
 552 750 552 750 644 659 c 128,-1,10
 736 568 736 568 736 398 c 0,11,12
 736 281 736 281 691 189 c 128,-1,13
 646 97 646 97 562 44.5 c 128,-1,14
 478 -8 478 -8 364 -8 c 0,15,16
 333 -8 333 -8 271 -4 c 0,17,18
 213 0 213 0 196 0 c 2,19,-1
 34 0 l 1,20,-1
 34 66 l 1,21,-1
 111 77 l 1,22,-1
 111 350 l 1,23,-1
 42 350 l 1,24,-1
 42 419 l 1,25,-1
 111 419 l 1,26,-1
 111 659 l 1,0,-1
419 350 m 1,27,-1
 280 350 l 1,28,-1
 280 74 l 1,29,30
 315 63 315 63 360 65 c 0,31,32
 450 66 450 66 499.5 141.5 c 128,-1,33
 549 217 549 217 549 373 c 0,34,35
 549 517 549 517 500.5 598.5 c 128,-1,36
 452 680 452 680 348 680 c 0,37,38
 324 680 324 680 305 677 c 128,-1,39
 286 674 286 674 280 673 c 1,40,-1
 280 419 l 1,41,-1
 419 419 l 1,42,-1
 419 350 l 1,27,-1
EndSplineSet
Validated: 33
EndChar

StartChar: E
Encoding: 69 69 17
Width: 657
GlyphClass: 2
Flags: W
LayerCount: 2
Fore
SplineSet
111 659 m 1,0,-1
 33 673 l 1,1,-1
 33 743 l 1,2,-1
 580 743 l 1,3,-1
 593 566 l 1,4,-1
 514 566 l 1,5,-1
 479 667 l 1,6,-1
 282 677 l 1,7,-1
 282 417 l 1,8,-1
 404 420 l 1,9,-1
 422 502 l 1,10,-1
 491 502 l 1,11,-1
 491 251 l 1,12,-1
 422 251 l 1,13,-1
 405 338 l 1,14,-1
 282 341 l 1,15,-1
 282 69 l 1,16,-1
 501 83 l 1,17,-1
 562 212 l 1,18,-1
 647 188 l 1,19,-1
 623 0 l 1,20,-1
 34 0 l 1,21,-1
 34 66 l 1,22,-1
 111 76 l 1,23,-1
 111 659 l 1,0,-1
EndSplineSet
Validated: 1
EndChar

StartChar: F
Encoding: 70 70 22
Width: 624
GlyphClass: 2
Flags: W
LayerCount: 2
Fore
SplineSet
111 659 m 1,0,-1
 31 673 l 1,1,-1
 31 743 l 1,2,-1
 593 743 l 1,3,-1
 604 556 l 1,4,-1
 514 556 l 1,5,-1
 474 665 l 1,6,-1
 282 677 l 1,7,-1
 282 400 l 1,8,-1
 413 403 l 1,9,-1
 433 493 l 1,10,-1
 503 493 l 1,11,-1
 503 226 l 1,12,-1
 434 226 l 1,13,-1
 413 319 l 1,14,-1
 282 323 l 1,15,-1
 282 77 l 1,16,-1
 435 66 l 1,17,-1
 435 0 l 1,18,-1
 36 0 l 1,19,-1
 36 66 l 1,20,-1
 111 77 l 1,21,-1
 111 659 l 1,0,-1
EndSplineSet
Validated: 1
EndChar

StartChar: G
Encoding: 71 71 23
Width: 747
GlyphClass: 2
Flags: W
LayerCount: 2
Fore
SplineSet
192 38 m 128,-1,1
 112 87 112 87 71 172 c 128,-1,2
 30 257 30 257 30 365 c 0,3,4
 30 489 30 489 77 576 c 128,-1,5
 124 663 124 663 211.5 707.5 c 128,-1,6
 299 752 299 752 419 752 c 0,7,8
 488 752 488 752 556 742 c 128,-1,9
 624 732 624 732 671 721 c 1,10,-1
 659 528 l 1,11,-1
 539 528 l 1,12,-1
 511 660 l 1,13,14
 502 670 502 670 478.5 677.5 c 128,-1,15
 455 685 455 685 415 685 c 0,16,17
 326 685 326 685 277 606.5 c 128,-1,18
 228 528 228 528 228 379 c 0,19,20
 228 231 228 231 269.5 144.5 c 128,-1,21
 311 58 311 58 399 58 c 0,22,23
 435 58 435 58 464.5 67.5 c 128,-1,24
 494 77 494 77 509 92 c 1,25,-1
 509 301 l 1,26,-1
 416 311 l 1,27,-1
 416 384 l 1,28,-1
 728 384 l 1,29,-1
 728 311 l 1,30,-1
 678 303 l 1,31,-1
 678 40 l 1,32,33
 661 39 661 39 599 24 c 0,34,35
 538 8 538 8 489 -1.5 c 128,-1,36
 440 -11 440 -11 384 -11 c 0,37,0
 272 -11 272 -11 192 38 c 128,-1,1
EndSplineSet
Validated: 1
EndChar

StartChar: H
Encoding: 72 72 24
Width: 839
GlyphClass: 2
Flags: W
LayerCount: 2
Fore
SplineSet
112 660 m 1,0,-1
 40 673 l 1,1,-1
 40 743 l 1,2,-1
 364 743 l 1,3,-1
 364 673 l 1,4,-1
 282 660 l 1,5,-1
 282 421 l 1,6,-1
 556 421 l 1,7,-1
 556 659 l 1,8,-1
 481 673 l 1,9,-1
 481 743 l 1,10,-1
 801 743 l 1,11,-1
 801 673 l 1,12,-1
 727 660 l 1,13,-1
 727 76 l 1,14,-1
 801 66 l 1,15,-1
 801 0 l 1,16,-1
 481 0 l 1,17,-1
 481 66 l 1,18,-1
 556 77 l 1,19,-1
 556 336 l 1,20,-1
 282 336 l 1,21,-1
 282 76 l 1,22,-1
 364 66 l 1,23,-1
 364 0 l 1,24,-1
 38 0 l 1,25,-1
 38 66 l 1,26,-1
 112 76 l 1,27,-1
 112 660 l 1,0,-1
EndSplineSet
Validated: 1
EndChar

StartChar: I
Encoding: 73 73 25
Width: 417
GlyphClass: 2
Flags: W
LayerCount: 2
Fore
SplineSet
122 659 m 1,0,-1
 40 673 l 1,1,-1
 40 743 l 1,2,-1
 377 743 l 1,3,-1
 377 673 l 1,4,-1
 293 659 l 1,5,-1
 293 76 l 1,6,-1
 377 65 l 1,7,-1
 377 0 l 1,8,-1
 41 0 l 1,9,-1
 41 66 l 1,10,-1
 122 77 l 1,11,-1
 122 659 l 1,0,-1
EndSplineSet
Validated: 1
EndChar

StartChar: J
Encoding: 74 74 30
Width: 397
GlyphClass: 2
Flags: W
LayerCount: 2
Fore
SplineSet
54 -89.5 m 128,-1,1
 88 -56 88 -56 105 -6 c 0,2,3
 115 26 115 26 120 70.5 c 128,-1,4
 125 115 125 115 125 191 c 2,5,-1
 125 659 l 1,6,-1
 40 673 l 1,7,-1
 40 743 l 1,8,-1
 375 743 l 1,9,-1
 375 673 l 1,10,-1
 296 660 l 1,11,-1
 296 275 l 2,12,13
 296 173 296 173 293 110 c 128,-1,14
 290 47 290 47 281 14 c 0,15,16
 258 -67 258 -67 191 -122 c 128,-1,17
 124 -177 124 -177 20 -194 c 1,18,-1
 -18 -136 l 1,19,0
 20 -123 20 -123 54 -89.5 c 128,-1,1
EndSplineSet
Validated: 1
EndChar

StartChar: K
Encoding: 75 75 31
Width: 758
GlyphClass: 2
Flags: W
LayerCount: 2
Fore
SplineSet
526 36.5 m 128,-1,1
 505 73 505 73 463 156 c 0,2,3
 398 292 398 292 363 339 c 1,4,-1
 282 246 l 1,5,-1
 282 76 l 1,6,-1
 365 66 l 1,7,-1
 365 0 l 1,8,-1
 35 0 l 1,9,-1
 35 66 l 1,10,-1
 112 77 l 1,11,-1
 112 659 l 1,12,-1
 35 673 l 1,13,-1
 35 743 l 1,14,-1
 356 743 l 1,15,-1
 356 673 l 1,16,-1
 282 659 l 1,17,-1
 282 348 l 1,18,-1
 526 659 l 1,19,-1
 445 673 l 1,20,-1
 445 743 l 1,21,-1
 730 743 l 1,22,-1
 730 674 l 1,23,-1
 642 660 l 1,24,-1
 462 456 l 1,25,26
 498 424 498 424 536.5 364.5 c 128,-1,27
 575 305 575 305 630 208 c 0,28,29
 667 143 667 143 685.5 113 c 128,-1,30
 704 83 704 83 715 77 c 2,31,-1
 763 66 l 1,32,-1
 763 0 l 1,33,-1
 561 0 l 2,34,0
 547 0 547 0 526 36.5 c 128,-1,1
EndSplineSet
Validated: 1
EndChar

StartChar: L
Encoding: 76 76 32
Width: 641
GlyphClass: 2
Flags: W
LayerCount: 2
Fore
SplineSet
112 659 m 1,0,-1
 37 673 l 1,1,-1
 37 743 l 1,2,-1
 378 743 l 1,3,-1
 378 673 l 1,4,-1
 283 659 l 1,5,-1
 283 78 l 1,6,-1
 471 88 l 1,7,-1
 536 286 l 1,8,-1
 630 274 l 1,9,-1
 601 0 l 1,10,-1
 35 0 l 1,11,-1
 35 66 l 1,12,-1
 112 76 l 1,13,-1
 112 659 l 1,0,-1
EndSplineSet
Validated: 1
EndChar

StartChar: Ldot
Encoding: 65537 -1 33
Width: 780
GlyphClass: 1
Flags: W
LayerCount: 2
Fore
SplineSet
112 659 m 1,0,-1
 37 673 l 1,1,-1
 37 743 l 1,2,-1
 378 743 l 1,3,-1
 378 673 l 1,4,-1
 283 659 l 1,5,-1
 283 78 l 1,6,-1
 471 88 l 1,7,-1
 536 286 l 1,8,-1
 630 274 l 1,9,-1
 601 0 l 1,10,-1
 35 0 l 1,11,-1
 35 66 l 1,12,-1
 112 76 l 1,13,-1
 112 659 l 1,0,-1
600 370 m 128,-1,15
 574 394 574 394 574 430 c 0,16,17
 574 470 574 470 603.5 495.5 c 128,-1,18
 633 521 633 521 675 521 c 0,19,20
 715 521 715 521 739 496 c 128,-1,21
 763 471 763 471 763 437 c 0,22,23
 763 394 763 394 734.5 370 c 128,-1,24
 706 346 706 346 660 346 c 0,25,14
 626 346 626 346 600 370 c 128,-1,15
EndSplineSet
Validated: 1
Ligature2: "Ligature Substitution lookup 11 subtable" L periodcentered
EndChar

StartChar: M
Encoding: 77 77 34
Width: 1034
GlyphClass: 2
Flags: W
LayerCount: 2
Fore
SplineSet
157 659 m 1,0,-1
 51 673 l 1,1,-1
 51 743 l 1,2,-1
 391 743 l 1,3,-1
 497 325 l 1,4,-1
 521 214 l 1,5,-1
 541 325 l 1,6,-1
 646 743 l 1,7,-1
 984 743 l 1,8,-1
 984 673 l 1,9,-1
 875 659 l 1,10,-1
 955 77 l 1,11,-1
 1032 66 l 1,12,-1
 1032 0 l 1,13,-1
 695 0 l 1,14,-1
 695 66 l 1,15,-1
 780 77 l 1,16,-1
 738 508 l 1,17,-1
 720 684 l 1,18,-1
 685 524 l 1,19,-1
 554 29 l 1,20,-1
 423 29 l 1,21,-1
 283 510 l 1,22,-1
 237 685 l 1,23,-1
 225 508 l 1,24,-1
 188 77 l 1,25,-1
 290 66 l 1,26,-1
 290 0 l 1,27,-1
 1 0 l 1,28,-1
 1 66 l 1,29,-1
 84 76 l 1,30,-1
 157 659 l 1,0,-1
EndSplineSet
Validated: 1
EndChar

StartChar: N
Encoding: 78 78 35
Width: 805
GlyphClass: 2
Flags: W
LayerCount: 2
Fore
SplineSet
113 660 m 1,0,-1
 35 673 l 1,1,-1
 35 743 l 1,2,-1
 286 743 l 1,3,-1
 562 317 l 1,4,-1
 618 197 l 1,5,-1
 618 660 l 1,6,-1
 533 673 l 1,7,-1
 533 743 l 1,8,-1
 789 743 l 1,9,-1
 789 673 l 1,10,-1
 713 660 l 1,11,-1
 713 0 l 1,12,-1
 566 0 l 1,13,-1
 273 457 l 1,14,-1
 207 589 l 1,15,-1
 207 77 l 1,16,-1
 313 66 l 1,17,-1
 313 0 l 1,18,-1
 35 0 l 1,19,-1
 35 66 l 1,20,-1
 113 77 l 1,21,-1
 113 660 l 1,0,-1
EndSplineSet
Validated: 1
EndChar

StartChar: O
Encoding: 79 79 37
Width: 731
GlyphClass: 2
Flags: W
LayerCount: 2
Fore
SplineSet
108 90.5 m 128,-1,1
 27 192 27 192 27 370 c 0,2,3
 27 485 27 485 69.5 571.5 c 128,-1,4
 112 658 112 658 189 705 c 128,-1,5
 266 752 266 752 369 752 c 0,6,7
 541 752 541 752 622.5 656.5 c 128,-1,8
 704 561 704 561 704 384 c 0,9,10
 704 267 704 267 661 177.5 c 128,-1,11
 618 88 618 88 539.5 38.5 c 128,-1,12
 461 -11 461 -11 357 -11 c 0,13,0
 189 -11 189 -11 108 90.5 c 128,-1,1
254.5 607 m 128,-1,15
 215 528 215 528 215 371 c 0,16,17
 215 211 215 211 254 133.5 c 128,-1,18
 293 56 293 56 365 56 c 0,19,20
 436 56 436 56 475.5 140.5 c 128,-1,21
 515 225 515 225 515 383 c 0,22,23
 515 543 515 543 477 614.5 c 128,-1,24
 439 686 439 686 366 686 c 0,25,14
 294 686 294 686 254.5 607 c 128,-1,15
EndSplineSet
Validated: 1
EndChar

StartChar: Oslash
Encoding: 216 216 42
Width: 731
GlyphClass: 2
Flags: W
LayerCount: 2
Fore
SplineSet
66 158 m 128,-1,1
 27 246 27 246 27 370 c 0,2,3
 27 485 27 485 69.5 571.5 c 128,-1,4
 112 658 112 658 189 705 c 128,-1,5
 266 752 266 752 369 752 c 0,6,7
 429 752 429 752 474 741 c 1,8,-1
 517 853 l 1,9,-1
 589 832 l 1,10,-1
 544 717 l 1,11,12
 704 637 704 637 704 384 c 0,13,14
 704 268 704 268 661.5 178.5 c 128,-1,15
 619 89 619 89 541.5 39.5 c 128,-1,16
 464 -10 464 -10 361 -11 c 0,17,18
 308 -11 308 -11 259 0 c 1,19,-1
 210 -116 l 1,20,-1
 134 -95 l 1,21,-1
 186 27 l 1,22,0
 105 70 105 70 66 158 c 128,-1,1
254.5 607 m 128,-1,24
 215 528 215 528 215 371 c 0,25,26
 215 229 215 229 254 156 c 1,27,-1
 445 654 l 1,28,29
 414 686 414 686 366 686 c 0,30,23
 294 686 294 686 254.5 607 c 128,-1,24
477 593 m 1,32,-1
 284 94 l 1,33,34
 316 56 316 56 365 56 c 0,35,36
 436 56 436 56 476 140.5 c 128,-1,37
 516 225 516 225 516 383 c 0,38,31
 516 518 516 518 477 593 c 1,32,-1
EndSplineSet
Validated: 1
EndChar

StartChar: OE
Encoding: 338 338 44
Width: 1040
GlyphClass: 1
Flags: W
LayerCount: 2
Fore
SplineSet
361 -8 m 0,1,2
 194 -8 194 -8 110.5 94.5 c 128,-1,3
 27 197 27 197 27 371 c 0,4,5
 27 488 27 488 69.5 574.5 c 128,-1,6
 112 661 112 661 191.5 707.5 c 128,-1,7
 271 754 271 754 380 754 c 0,8,9
 432 754 432 754 479 735 c 1,10,-1
 479 743 l 1,11,-1
 953 743 l 1,12,-1
 967 566 l 1,13,-1
 887 566 l 1,14,-1
 854 666 l 1,15,-1
 654 677 l 1,16,-1
 654 417 l 1,17,-1
 777 421 l 1,18,-1
 794 502 l 1,19,-1
 867 502 l 1,20,-1
 867 251 l 1,21,-1
 794 251 l 1,22,-1
 777 338 l 1,23,-1
 654 341 l 1,24,-1
 654 69 l 1,25,-1
 880 83 l 1,26,-1
 950 209 l 1,27,-1
 1031 186 l 1,28,-1
 997 0 l 1,29,-1
 479 0 l 1,30,-1
 479 22 l 1,31,0
 425 -8 425 -8 361 -8 c 0,1,2
434 86.5 m 128,-1,33
 462 116 462 116 479 171 c 1,34,-1
 479 596 l 1,35,36
 463 647 463 647 435.5 667.5 c 128,-1,37
 408 688 408 688 365 688 c 0,38,39
 292 688 292 688 253 608 c 128,-1,40
 214 528 214 528 214 371 c 0,41,42
 214 215 214 215 254 136 c 128,-1,43
 294 57 294 57 367 57 c 0,44,32
 406 57 406 57 434 86.5 c 128,-1,33
EndSplineSet
Validated: 1
EndChar

StartChar: P
Encoding: 80 80 45
Width: 668
GlyphClass: 2
Flags: W
LayerCount: 2
Fore
SplineSet
112 659 m 1,0,-1
 38 673 l 1,1,-1
 38 743 l 1,2,-1
 201 743 l 2,3,4
 217 743 217 743 263 745 c 0,5,6
 321 749 321 749 368 749 c 0,7,8
 476 749 476 749 538 723 c 128,-1,9
 600 697 600 697 626 648.5 c 128,-1,10
 652 600 652 600 652 526 c 0,11,12
 652 398 652 398 574 327 c 128,-1,13
 496 256 496 256 352 256 c 0,14,15
 307 256 307 256 283 259 c 1,16,-1
 283 77 l 1,17,-1
 415 66 l 1,18,-1
 415 0 l 1,19,-1
 35 0 l 1,20,-1
 35 66 l 1,21,-1
 112 76 l 1,22,-1
 112 659 l 1,0,-1
348 323 m 0,24,25
 478 323 478 323 478 522 c 0,26,27
 478 605 478 605 445.5 643.5 c 128,-1,28
 413 682 413 682 348 682 c 0,29,30
 320 682 320 682 304 679.5 c 128,-1,31
 288 677 288 677 282 676 c 1,32,-1
 282 328 l 1,33,23
 302 323 302 323 348 323 c 0,24,25
EndSplineSet
Validated: 1
EndChar

StartChar: Thorn
Encoding: 222 222 46
Width: 670
GlyphClass: 1
Flags: W
LayerCount: 2
Fore
SplineSet
111 660 m 1,0,-1
 32 674 l 1,1,-1
 32 743 l 1,2,-1
 364 743 l 1,3,-1
 365 674 l 1,4,-1
 282 660 l 1,5,-1
 282 575 l 1,6,7
 308 577 308 577 321 579 c 0,8,9
 387 585 387 585 427 585 c 0,10,11
 649 585 649 585 649 386 c 0,12,13
 649 271 649 271 583.5 214 c 128,-1,14
 518 157 518 157 398 157 c 0,15,16
 351 157 351 157 282 163 c 1,17,-1
 282 76 l 1,18,-1
 384 65 l 1,19,-1
 384 0 l 1,20,-1
 32 0 l 1,21,-1
 32 65 l 1,22,-1
 111 76 l 1,23,-1
 111 660 l 1,0,-1
440 264.5 m 128,-1,25
 469 306 469 306 469 379 c 0,26,27
 469 439 469 439 441.5 477 c 128,-1,28
 414 515 414 515 355 515 c 0,29,30
 314 515 314 515 282 507 c 1,31,-1
 282 227 l 1,32,33
 307 223 307 223 333.5 223 c 128,-1,34
 360 223 360 223 365 223 c 0,35,24
 411 223 411 223 440 264.5 c 128,-1,25
EndSplineSet
Validated: 1
EndChar

StartChar: Q
Encoding: 81 81 47
Width: 732
GlyphClass: 1
Flags: W
LayerCount: 2
Fore
SplineSet
681.5 -160 m 128,-1,1
 629 -133 629 -133 560 -82 c 0,2,3
 516 -49 516 -49 488.5 -31.5 c 128,-1,4
 461 -14 461 -14 432 -4 c 1,5,6
 390 -11 390 -11 357 -11 c 0,7,8
 189 -11 189 -11 108 90.5 c 128,-1,9
 27 192 27 192 27 370 c 0,10,11
 27 485 27 485 69.5 571.5 c 128,-1,12
 112 658 112 658 189.5 705 c 128,-1,13
 267 752 267 752 370 752 c 0,14,15
 542 752 542 752 623.5 656.5 c 128,-1,16
 705 561 705 561 705 384 c 0,17,18
 705 262 705 262 658 170 c 128,-1,19
 611 78 611 78 527 31 c 1,20,21
 561 25 561 25 596 10.5 c 128,-1,22
 631 -4 631 -4 681 -28 c 0,23,24
 744 -58 744 -58 782 -72 c 128,-1,25
 820 -86 820 -86 856 -86 c 0,26,27
 894 -86 894 -86 909 -81 c 1,28,-1
 924 -128 l 1,29,30
 898 -160 898 -160 869.5 -173.5 c 128,-1,31
 841 -187 841 -187 797 -187 c 0,32,0
 734 -187 734 -187 681.5 -160 c 128,-1,1
476 140 m 128,-1,34
 516 224 516 224 516 383 c 0,35,36
 516 543 516 543 478 614.5 c 128,-1,37
 440 686 440 686 367 686 c 0,38,39
 295 686 295 686 255.5 607 c 128,-1,40
 216 528 216 528 216 371 c 0,41,42
 216 211 216 211 254.5 133.5 c 128,-1,43
 293 56 293 56 365 56 c 0,44,33
 436 56 436 56 476 140 c 128,-1,34
EndSplineSet
Validated: 1
EndChar

StartChar: R
Encoding: 82 82 48
Width: 731
GlyphClass: 2
Flags: W
LayerCount: 2
Fore
SplineSet
34 66 m 1,0,-1
 111 76 l 1,1,-1
 111 660 l 1,2,-1
 38 674 l 1,3,-1
 38 743 l 1,4,-1
 192 743 l 2,5,6
 211 743 211 743 233.5 744 c 128,-1,7
 256 745 256 745 268 746 c 0,8,9
 322 750 322 750 360 750 c 0,10,11
 467 750 467 750 530 729.5 c 128,-1,12
 593 709 593 709 621.5 665.5 c 128,-1,13
 650 622 650 622 650 551 c 0,14,15
 650 483 650 483 614 424 c 128,-1,16
 578 365 578 365 508 343 c 1,17,18
 554 326 554 326 585.5 279.5 c 128,-1,19
 617 233 617 233 651 161 c 0,20,21
 671 119 671 119 683 98.5 c 128,-1,22
 695 78 695 78 708 75 c 2,23,-1
 737 66 l 1,24,-1
 737 0 l 1,25,-1
 547 0 l 2,26,27
 532 0 532 0 516 32 c 128,-1,28
 500 64 500 64 475 132 c 0,29,30
 444 215 444 215 421.5 260.5 c 128,-1,31
 399 306 399 306 372 316 c 1,32,-1
 282 316 l 1,33,-1
 282 76 l 1,34,-1
 371 66 l 1,35,-1
 371 0 l 1,36,-1
 34 0 l 1,37,-1
 34 66 l 1,0,-1
440 421.5 m 128,-1,39
 469 462 469 462 469 544 c 0,40,41
 469 616 469 616 440.5 649.5 c 128,-1,42
 412 683 412 683 345 683 c 0,43,44
 309 683 309 683 282 678 c 1,45,-1
 282 384 l 1,46,47
 295 381 295 381 325 381 c 128,-1,48
 355 381 355 381 359 381 c 0,49,38
 411 381 411 381 440 421.5 c 128,-1,39
EndSplineSet
Validated: 1
EndChar

StartChar: S
Encoding: 83 83 49
Width: 609
GlyphClass: 2
Flags: W
LayerCount: 2
Fore
SplineSet
199.5 -2 m 128,-1,1
 153 7 153 7 102 22 c 0,2,3
 69 32 69 32 54 33 c 1,4,-1
 63 220 l 1,5,-1
 156 220 l 1,6,-1
 181 92 l 1,7,8
 192 79 192 79 221.5 69 c 128,-1,9
 251 59 251 59 292 59 c 0,10,11
 353 59 353 59 383.5 86 c 128,-1,12
 414 113 414 113 414 160 c 0,13,14
 414 193 414 193 394.5 217.5 c 128,-1,15
 375 242 375 242 340.5 262.5 c 128,-1,16
 306 283 306 283 246 310 c 0,17,18
 167 346 167 346 112.5 401.5 c 128,-1,19
 58 457 58 457 58 548 c 0,20,21
 58 604 58 604 87 650 c 128,-1,22
 116 696 116 696 175 724 c 128,-1,23
 234 752 234 752 322 752 c 0,24,25
 375 752 375 752 414.5 745 c 128,-1,26
 454 738 454 738 499 726 c 0,27,28
 523 718 523 718 536 717 c 1,29,-1
 530 539 l 1,30,-1
 439 539 l 1,31,-1
 416 662 l 1,32,33
 409 671 409 671 384.5 678.5 c 128,-1,34
 360 686 360 686 330 686 c 0,35,36
 275 686 275 686 247.5 660 c 128,-1,37
 220 634 220 634 220 593 c 0,38,39
 220 557 220 557 243 530 c 128,-1,40
 266 503 266 503 298.5 484.5 c 128,-1,41
 331 466 331 466 398 433 c 0,42,43
 451 407 451 407 490.5 380.5 c 128,-1,44
 530 354 530 354 558 312 c 128,-1,45
 586 270 586 270 586 214 c 0,46,47
 586 159 586 159 559.5 108 c 128,-1,48
 533 57 533 57 469 23 c 128,-1,49
 405 -11 405 -11 301 -11 c 0,50,0
 246 -11 246 -11 199.5 -2 c 128,-1,1
EndSplineSet
Validated: 1
EndChar

StartChar: T
Encoding: 84 84 50
Width: 725
GlyphClass: 2
Flags: W
LayerCount: 2
Fore
SplineSet
277 669 m 1,0,-1
 152 664 l 1,1,-1
 110 441 l 1,2,-1
 16 441 l 1,3,-1
 32 743 l 1,4,-1
 691 743 l 1,5,-1
 704 441 l 1,6,-1
 615 441 l 1,7,-1
 571 664 l 1,8,-1
 450 669 l 1,9,-1
 450 77 l 1,10,-1
 589 66 l 1,11,-1
 589 0 l 1,12,-1
 150 0 l 1,13,-1
 150 66 l 1,14,-1
 277 77 l 1,15,-1
 277 669 l 1,0,-1
EndSplineSet
Validated: 1
EndChar

StartChar: U
Encoding: 85 85 51
Width: 745
GlyphClass: 2
Flags: W
LayerCount: 2
Fore
SplineSet
155 67 m 128,-1,1
 78 142 78 142 78 302 c 2,2,-1
 78 659 l 1,3,-1
 16 673 l 1,4,-1
 16 743 l 1,5,-1
 339 743 l 1,6,-1
 339 673 l 1,7,-1
 255 658 l 1,8,-1
 255 288 l 2,9,10
 255 62 255 62 412 62 c 0,11,12
 490 62 490 62 526.5 121.5 c 128,-1,13
 563 181 563 181 563 286 c 2,14,-1
 563 659 l 1,15,-1
 477 673 l 1,16,-1
 477 743 l 1,17,-1
 737 743 l 1,18,-1
 737 673 l 1,19,-1
 671 659 l 1,20,-1
 671 295 l 2,21,22
 671 139 671 139 594.5 65.5 c 128,-1,23
 518 -8 518 -8 387 -8 c 0,24,0
 232 -8 232 -8 155 67 c 128,-1,1
EndSplineSet
Validated: 1
EndChar

StartChar: V
Encoding: 86 86 56
Width: 697
GlyphClass: 1
Flags: W
LayerCount: 2
Fore
SplineSet
-19 743 m 1,0,-1
 308 743 l 1,1,-1
 308 673 l 1,2,-1
 226 660 l 1,3,-1
 365 225 l 1,4,-1
 390 137 l 1,5,-1
 410 226 l 1,6,-1
 543 659 l 1,7,-1
 465 673 l 1,8,-1
 465 743 l 1,9,-1
 719 743 l 1,10,-1
 719 673 l 1,11,-1
 654 659 l 1,12,-1
 428 -7 l 1,13,-1
 289 -7 l 1,14,-1
 40 659 l 1,15,-1
 -19 673 l 1,16,-1
 -19 743 l 1,0,-1
EndSplineSet
Validated: 1
EndChar

StartChar: W
Encoding: 87 87 57
Width: 1027
GlyphClass: 2
Flags: W
LayerCount: 2
Fore
SplineSet
-18 743 m 1,0,-1
 301 743 l 1,1,-1
 301 673 l 1,2,-1
 218 659 l 1,3,-1
 337 218 l 1,4,-1
 356 125 l 1,5,-1
 373 218 l 1,6,-1
 475 574 l 1,7,-1
 446 659 l 1,8,-1
 383 673 l 1,9,-1
 383 743 l 1,10,-1
 717 743 l 1,11,-1
 717 673 l 1,12,-1
 622 659 l 1,13,-1
 741 218 l 1,14,-1
 763 117 l 1,15,-1
 780 218 l 1,16,-1
 887 659 l 1,17,-1
 802 673 l 1,18,-1
 802 743 l 1,19,-1
 1045 743 l 1,20,-1
 1045 673 l 1,21,-1
 983 659 l 1,22,-1
 798 -5 l 1,23,-1
 645 -5 l 1,24,-1
 516 440 l 1,25,-1
 394 -5 l 1,26,-1
 243 -5 l 1,27,-1
 40 659 l 1,28,-1
 -18 673 l 1,29,-1
 -18 743 l 1,0,-1
EndSplineSet
Validated: 1
EndChar

StartChar: X
Encoding: 88 88 58
Width: 723
GlyphClass: 1
Flags: W
LayerCount: 2
Fore
SplineSet
279 358 m 1,0,-1
 78 659 l 1,1,-1
 12 673 l 1,2,-1
 12 743 l 1,3,-1
 356 743 l 1,4,-1
 356 673 l 1,5,-1
 278 658 l 1,6,-1
 403 449 l 1,7,-1
 534 659 l 1,8,-1
 450 673 l 1,9,-1
 450 743 l 1,10,-1
 713 743 l 1,11,-1
 713 673 l 1,12,-1
 632 659 l 1,13,-1
 443 399 l 1,14,-1
 658 77 l 1,15,-1
 724 66 l 1,16,-1
 724 0 l 1,17,-1
 381 0 l 1,18,-1
 381 66 l 1,19,-1
 459 77 l 1,20,-1
 321 305 l 1,21,-1
 189 76 l 1,22,-1
 282 66 l 1,23,-1
 282 0 l 1,24,-1
 6 0 l 1,25,-1
 6 66 l 1,26,-1
 88 76 l 1,27,-1
 279 358 l 1,0,-1
EndSplineSet
Validated: 1
EndChar

StartChar: Y
Encoding: 89 89 59
Width: 656
GlyphClass: 2
Flags: W
LayerCount: 2
Fore
SplineSet
243 298 m 1,0,-1
 36 660 l 1,1,-1
 -19 673 l 1,2,-1
 -19 743 l 1,3,-1
 296 743 l 1,4,-1
 296 673 l 1,5,-1
 231 659 l 1,6,-1
 345 430 l 1,7,-1
 370 365 l 1,8,-1
 396 430 l 1,9,-1
 499 659 l 1,10,-1
 423 673 l 1,11,-1
 423 743 l 1,12,-1
 678 743 l 1,13,-1
 678 673 l 1,14,-1
 617 662 l 1,15,-1
 425 299 l 1,16,-1
 425 77 l 1,17,-1
 531 66 l 1,18,-1
 531 0 l 1,19,-1
 140 0 l 1,20,-1
 140 66 l 1,21,-1
 243 77 l 1,22,-1
 243 298 l 1,0,-1
EndSplineSet
Validated: 1
EndChar

StartChar: Z
Encoding: 90 90 61
Width: 655
GlyphClass: 2
Flags: W
LayerCount: 2
Fore
SplineSet
434 682 m 1,0,-1
 196 667 l 1,1,-1
 140 530 l 1,2,-1
 54 542 l 1,3,-1
 79 745 l 1,4,-1
 599 745 l 1,5,-1
 624 686 l 1,6,-1
 273 132 l 1,7,-1
 203 67 l 1,8,-1
 488 88 l 1,9,-1
 546 242 l 1,10,-1
 632 224 l 1,11,-1
 610 0 l 1,12,-1
 48 0 l 1,13,-1
 15 58 l 1,14,-1
 374 614 l 1,15,-1
 434 682 l 1,0,-1
EndSplineSet
Validated: 1
EndChar

StartChar: a
Encoding: 97 97 62
Width: 570
GlyphClass: 2
Flags: W
LayerCount: 2
Fore
SplineSet
117.5 295 m 128,-1,1
 207 342 207 342 353 343 c 1,2,-1
 353 363 l 2,3,4
 353 399 353 399 345 420 c 128,-1,5
 337 441 337 441 316 451.5 c 128,-1,6
 295 462 295 462 254 462 c 0,7,8
 205 462 205 462 166.5 450.5 c 128,-1,9
 128 439 128 439 86 420 c 1,10,-1
 52 492 l 1,11,12
 68 505 68 505 104 523.5 c 128,-1,13
 140 542 140 542 190.5 555.5 c 128,-1,14
 241 569 241 569 296 569 c 0,15,16
 376 569 376 569 421.5 548 c 128,-1,17
 467 527 467 527 486.5 483 c 128,-1,18
 506 439 506 439 506 363 c 2,19,-1
 506 66 l 1,20,-1
 558 66 l 1,21,-1
 558 3 l 1,22,23
 535 -2 535 -2 494 -7 c 128,-1,24
 453 -12 453 -12 424 -12 c 0,25,26
 386 -12 386 -12 373.5 -1 c 128,-1,27
 361 10 361 10 361 43 c 2,28,-1
 361 66 l 1,29,30
 336 36 336 36 294 12.5 c 128,-1,31
 252 -11 252 -11 197 -11 c 0,32,33
 150 -11 150 -11 111.5 9.5 c 128,-1,34
 73 30 73 30 50.5 68.5 c 128,-1,35
 28 107 28 107 28 160 c 0,36,0
 28 248 28 248 117.5 295 c 128,-1,1
315 91.5 m 128,-1,38
 337 102 337 102 353 117 c 1,39,-1
 353 276 l 1,40,41
 275 276 275 276 237.5 248 c 128,-1,42
 200 220 200 220 200 176 c 0,43,44
 200 131 200 131 220 106 c 128,-1,45
 240 81 240 81 275 81 c 0,46,37
 293 81 293 81 315 91.5 c 128,-1,38
EndSplineSet
Validated: 1
EndChar

StartChar: ae
Encoding: 230 230 69
Width: 868
GlyphClass: 2
Flags: W
LayerCount: 2
Fore
SplineSet
75.5 32 m 128,-1,1
 27 75 27 75 27 153 c 0,2,3
 27 245 27 245 113 293.5 c 128,-1,4
 199 342 199 342 353 343 c 1,5,6
 353 391 353 391 345 415.5 c 128,-1,7
 337 440 337 440 315 450 c 128,-1,8
 293 460 293 460 250 460 c 0,9,10
 205 460 205 460 169.5 450.5 c 128,-1,11
 134 441 134 441 110 431.5 c 128,-1,12
 86 422 86 422 79 419 c 1,13,-1
 45 491 l 1,14,15
 61 505 61 505 98.5 523.5 c 128,-1,16
 136 542 136 542 187.5 555.5 c 128,-1,17
 239 569 239 569 294 569 c 0,18,19
 355 569 355 569 392.5 556 c 128,-1,20
 430 543 430 543 450 515 c 1,21,22
 519 570 519 570 620 570 c 0,23,24
 726 570 726 570 781 517 c 128,-1,25
 836 464 836 464 838 367 c 0,26,27
 838 300 838 300 831 264 c 1,28,-1
 514 264 l 1,29,30
 519 179 519 179 555.5 134.5 c 128,-1,31
 592 90 592 90 658 90 c 0,32,33
 696 90 696 90 737.5 102 c 128,-1,34
 779 114 779 114 805 130 c 1,35,-1
 831 70 l 1,36,37
 816 52 816 52 782 33.5 c 128,-1,38
 748 15 748 15 704 2 c 128,-1,39
 660 -11 660 -11 616 -11 c 0,40,41
 465 -11 465 -11 398 89 c 1,42,43
 369 46 369 46 314 17.5 c 128,-1,44
 259 -11 259 -11 196 -11 c 0,45,0
 124 -11 124 -11 75.5 32 c 128,-1,1
677 330 m 1,46,47
 678 341 678 341 678 372 c 0,48,49
 678 434 678 434 661 467.5 c 128,-1,50
 644 501 644 501 604 501 c 0,51,52
 561 501 561 501 538 464.5 c 128,-1,53
 515 428 515 428 513 330 c 1,54,-1
 677 330 l 1,46,47
331 97.5 m 128,-1,56
 358 114 358 114 372 138 c 1,57,58
 350 196 350 196 350 280 c 1,59,60
 275 279 275 279 240 249 c 128,-1,61
 205 219 205 219 205 175 c 0,62,63
 205 127 205 127 223.5 104 c 128,-1,64
 242 81 242 81 275 81 c 0,65,55
 304 81 304 81 331 97.5 c 128,-1,56
EndSplineSet
Validated: 1
EndChar

StartChar: b
Encoding: 98 98 70
Width: 625
GlyphClass: 2
Flags: W
LayerCount: 2
Fore
SplineSet
1 796 m 1,0,-1
 198 820 l 1,1,-1
 200 820 l 1,2,-1
 232 800 l 1,3,-1
 232 508 l 1,4,5
 258 535 258 535 296 552.5 c 128,-1,6
 334 570 334 570 377 570 c 0,7,8
 473 570 473 570 532.5 502.5 c 128,-1,9
 592 435 592 435 592 296 c 0,10,11
 592 209 592 209 555.5 139 c 128,-1,12
 519 69 519 69 451 29 c 128,-1,13
 383 -11 383 -11 292 -11 c 0,14,15
 206 -11 206 -11 148 2.5 c 128,-1,16
 90 16 90 16 72 27 c 1,17,-1
 72 725 l 1,18,-1
 1 738 l 1,19,-1
 1 796 l 1,0,-1
268 461 m 128,-1,21
 246 450 246 450 232 435 c 1,22,-1
 232 73 l 1,23,24
 236 63 236 63 254.5 57 c 128,-1,25
 273 51 273 51 297 51 c 0,26,27
 353 51 353 51 386 110 c 128,-1,28
 419 169 419 169 419 284 c 0,29,30
 419 381 419 381 391 426.5 c 128,-1,31
 363 472 363 472 315 472 c 0,32,20
 290 472 290 472 268 461 c 128,-1,21
EndSplineSet
Validated: 1
EndChar

StartChar: c
Encoding: 99 99 71
Width: 523
GlyphClass: 2
Flags: W
LayerCount: 2
Fore
SplineSet
67 430 m 128,-1,1
 103 497 103 497 168 533.5 c 128,-1,2
 233 570 233 570 318 570 c 0,3,4
 360 570 360 570 390.5 564.5 c 128,-1,5
 421 559 421 559 453 549 c 0,6,7
 482 541 482 541 489 540 c 1,8,-1
 482 359 l 1,9,-1
 381 359 l 1,10,-1
 355 474 l 2,11,12
 352 487 352 487 338.5 492.5 c 128,-1,13
 325 498 325 498 306 498 c 0,14,15
 259 498 259 498 232.5 452 c 128,-1,16
 206 406 206 406 206 299 c 0,17,18
 206 197 206 197 239.5 142.5 c 128,-1,19
 273 88 273 88 330 88 c 0,20,21
 404 88 404 88 466 126 c 1,22,-1
 493 67 l 1,23,24
 469 40 469 40 414 14.5 c 128,-1,25
 359 -11 359 -11 292 -11 c 0,26,27
 161 -11 161 -11 96 66.5 c 128,-1,28
 31 144 31 144 31 274 c 0,29,0
 31 363 31 363 67 430 c 128,-1,1
EndSplineSet
Validated: 1
EndChar

StartChar: ccedilla
Encoding: 231 231 72
Width: 523
GlyphClass: 2
Flags: W
LayerCount: 2
Fore
SplineSet
67 430 m 128,-1,1
 103 497 103 497 168 533.5 c 128,-1,2
 233 570 233 570 318 570 c 0,3,4
 360 570 360 570 390.5 564.5 c 128,-1,5
 421 559 421 559 453 549 c 0,6,7
 482 541 482 541 489 540 c 1,8,-1
 482 359 l 1,9,-1
 381 359 l 1,10,-1
 355 474 l 2,11,12
 352 487 352 487 338.5 492.5 c 128,-1,13
 325 498 325 498 306 498 c 0,14,15
 259 498 259 498 232.5 452 c 128,-1,16
 206 406 206 406 206 299 c 0,17,18
 206 197 206 197 239.5 142.5 c 128,-1,19
 273 88 273 88 330 88 c 0,20,21
 404 88 404 88 466 126 c 1,22,-1
 493 67 l 1,23,24
 473 44 473 44 429 21.5 c 128,-1,25
 385 -1 385 -1 332 -8 c 1,26,27
 355 -33 355 -33 372.5 -66 c 128,-1,28
 390 -99 390 -99 390 -135 c 0,29,30
 390 -202 390 -202 353 -229 c 128,-1,31
 316 -256 316 -256 241 -256 c 0,32,33
 224 -256 224 -256 203.5 -252 c 128,-1,34
 183 -248 183 -248 170 -242 c 1,35,-1
 170 -150 l 1,36,37
 191 -156 191 -156 212 -156 c 0,38,39
 250 -156 250 -156 265.5 -143 c 128,-1,40
 281 -130 281 -130 281 -87 c 0,41,42
 281 -68 281 -68 274 -47 c 128,-1,43
 267 -26 267 -26 257 -9 c 1,44,45
 143 2 143 2 87 78 c 128,-1,46
 31 154 31 154 31 274 c 0,47,0
 31 363 31 363 67 430 c 128,-1,1
EndSplineSet
Validated: 1
EndChar

StartChar: d
Encoding: 100 100 73
Width: 629
GlyphClass: 2
Flags: W
LayerCount: 2
Fore
SplineSet
93 58 m 128,-1,1
 33 127 33 127 33 265 c 0,2,3
 33 348 33 348 67.5 417.5 c 128,-1,4
 102 487 102 487 169.5 528.5 c 128,-1,5
 237 570 237 570 333 570 c 0,6,7
 362 570 362 570 393 563 c 1,8,-1
 393 722 l 1,9,-1
 297 736 l 1,10,-1
 297 800 l 1,11,-1
 518 820 l 1,12,-1
 523 820 l 1,13,-1
 553 796 l 1,14,-1
 553 67 l 1,15,-1
 605 67 l 1,16,-1
 605 3 l 1,17,18
 528 -12 528 -12 477 -12 c 0,19,20
 442 -12 442 -12 426.5 -0.5 c 128,-1,21
 411 11 411 11 411 44 c 2,22,-1
 411 69 l 1,23,24
 387 34 387 34 342 11.5 c 128,-1,25
 297 -11 297 -11 249 -11 c 0,26,0
 153 -11 153 -11 93 58 c 128,-1,1
358.5 90.5 m 128,-1,28
 380 102 380 102 393 118 c 1,29,-1
 393 480 l 1,30,31
 386 489 386 489 367.5 495 c 128,-1,32
 349 501 349 501 328 501 c 0,33,34
 272 501 272 501 239 447.5 c 128,-1,35
 206 394 206 394 206 273 c 0,36,37
 206 174 206 174 234 126.5 c 128,-1,38
 262 79 262 79 309 79 c 0,39,27
 337 79 337 79 358.5 90.5 c 128,-1,28
EndSplineSet
Validated: 1
EndChar

StartChar: eth
Encoding: 240 240 74
Width: 604
GlyphClass: 1
Flags: W
LayerCount: 2
Fore
SplineSet
101.5 65 m 128,-1,1
 32 141 32 141 32 268 c 0,2,3
 32 367 32 367 68.5 435 c 128,-1,4
 105 503 105 503 163.5 536.5 c 128,-1,5
 222 570 222 570 289 570 c 0,6,7
 342 570 342 570 379 554 c 1,8,9
 350 657 350 657 251 724 c 1,10,-1
 187 639 l 1,11,-1
 121 684 l 1,12,-1
 189 768 l 1,13,14
 161 786 161 786 133 799.5 c 128,-1,15
 105 813 105 813 87 818 c 1,16,-1
 115 885 l 1,17,18
 189 868 189 868 246 840 c 1,19,-1
 309 921 l 1,20,-1
 372 873 l 1,21,-1
 314 801 l 1,22,23
 430 722 430 722 502.5 603.5 c 128,-1,24
 575 485 575 485 575 331 c 0,25,26
 575 242 575 242 548 165 c 128,-1,27
 521 88 521 88 459.5 38.5 c 128,-1,28
 398 -11 398 -11 299 -11 c 0,29,0
 171 -11 171 -11 101.5 65 c 128,-1,1
379.5 118 m 128,-1,31
 404 176 404 176 404 308 c 0,32,33
 404 358 404 358 398 403.5 c 128,-1,34
 392 449 392 449 385 473 c 1,35,36
 375 484 375 484 355 493.5 c 128,-1,37
 335 503 335 503 307 503 c 0,38,39
 210 503 210 503 210 285 c 0,40,41
 210 188 210 188 233.5 124 c 128,-1,42
 257 60 257 60 307 60 c 0,43,30
 355 60 355 60 379.5 118 c 128,-1,31
EndSplineSet
Validated: 1
EndChar

StartChar: e
Encoding: 101 101 75
Width: 554
GlyphClass: 2
Flags: W
LayerCount: 2
Fore
SplineSet
97 66.5 m 128,-1,1
 31 144 31 144 31 278 c 0,2,3
 31 369 31 369 65 435 c 128,-1,4
 99 501 99 501 160.5 535.5 c 128,-1,5
 222 570 222 570 305 570 c 0,6,7
 410 570 410 570 465.5 517 c 128,-1,8
 521 464 521 464 523 367 c 0,9,10
 523 303 523 303 514 264 c 1,11,-1
 201 264 l 1,12,13
 206 179 206 179 242.5 134.5 c 128,-1,14
 279 90 279 90 345 90 c 0,15,16
 382 90 382 90 422.5 102.5 c 128,-1,17
 463 115 463 115 488 131 c 1,18,-1
 516 70 l 1,19,20
 490 41 490 41 427.5 15 c 128,-1,21
 365 -11 365 -11 300 -11 c 0,22,0
 163 -11 163 -11 97 66.5 c 128,-1,1
364 330 m 1,23,-1
 365 372 l 2,24,25
 365 435 365 435 348 468 c 128,-1,26
 331 501 331 501 290 501 c 0,27,28
 248 501 248 501 225 464.5 c 128,-1,29
 202 428 202 428 200 330 c 1,30,-1
 364 330 l 1,23,-1
EndSplineSet
Validated: 1
EndChar

StartChar: f
Encoding: 102 102 80
Width: 413
GlyphClass: 2
Flags: W
LayerCount: 2
Fore
SplineSet
108 472 m 1,0,-1
 30 472 l 1,1,-1
 30 534 l 1,2,-1
 108 554 l 1,3,-1
 108 596 l 2,4,5
 108 663 108 663 144 718 c 128,-1,6
 180 773 180 773 240.5 805 c 128,-1,7
 301 837 301 837 371 837 c 0,8,9
 408 837 408 837 438 827 c 1,10,-1
 438 682 l 1,11,12
 427 694 427 694 395 705.5 c 128,-1,13
 363 717 363 717 332 717 c 0,14,15
 299 717 299 717 285 700 c 128,-1,16
 271 683 271 683 271 644 c 2,17,-1
 271 555 l 1,18,-1
 391 555 l 1,19,-1
 391 472 l 1,20,-1
 271 472 l 1,21,-1
 271 75 l 1,22,-1
 372 66 l 1,23,-1
 372 0 l 1,24,-1
 31 0 l 1,25,-1
 31 66 l 1,26,-1
 108 75 l 1,27,-1
 108 472 l 1,0,-1
EndSplineSet
Validated: 1
EndChar

StartChar: g
Encoding: 103 103 81
Width: 631
GlyphClass: 2
Flags: W
LayerCount: 2
Fore
SplineSet
89.5 -227 m 128,-1,1
 28 -184 28 -184 28 -112 c 0,2,3
 28 -72 28 -72 55 -36 c 128,-1,4
 82 0 82 0 123 18 c 1,5,6
 76 45 76 45 76 104 c 0,7,8
 76 136 76 136 98 166.5 c 128,-1,9
 120 197 120 197 157 213 c 1,10,11
 46 254 46 254 46 383 c 0,12,13
 46 440 46 440 80 482.5 c 128,-1,14
 114 525 114 525 172 547.5 c 128,-1,15
 230 570 230 570 300 570 c 0,16,17
 425 570 425 570 483 524 c 1,18,19
 497 541 497 541 527 556.5 c 128,-1,20
 557 572 557 572 589 572 c 2,21,-1
 625 572 l 1,22,-1
 625 450 l 1,23,-1
 526 450 l 1,24,25
 536 422 536 422 536 393 c 0,26,27
 536 301 536 301 471 247 c 128,-1,28
 406 193 406 193 286 193 c 0,29,30
 237 193 237 193 205 200 c 1,31,32
 199 188 199 188 195.5 175 c 128,-1,33
 192 162 192 162 192 154 c 0,34,35
 192 123 192 123 215 111.5 c 128,-1,36
 238 100 238 100 299 100 c 2,37,-1
 402 100 l 2,38,39
 613 100 613 100 613 -51 c 0,40,41
 613 -117 613 -117 567 -167 c 128,-1,42
 521 -217 521 -217 446.5 -243.5 c 128,-1,43
 372 -270 372 -270 289 -270 c 0,44,0
 151 -270 151 -270 89.5 -227 c 128,-1,1
356.5 292.5 m 128,-1,46
 375 324 375 324 375 383 c 0,47,48
 375 447 375 447 356 476 c 128,-1,49
 337 505 337 505 295 505 c 0,50,51
 210 505 210 505 210 387 c 0,52,53
 210 261 210 261 296 261 c 0,54,45
 338 261 338 261 356.5 292.5 c 128,-1,46
402 -166 m 128,-1,56
 441 -137 441 -137 441 -84 c 0,57,58
 441 -42 441 -42 420 -24.5 c 128,-1,59
 399 -7 399 -7 346 -7 c 2,60,-1
 244 -7 l 2,61,62
 228 -7 228 -7 208 -5 c 1,63,64
 189 -36 189 -36 189 -82 c 0,65,66
 189 -195 189 -195 308 -195 c 0,67,55
 363 -195 363 -195 402 -166 c 128,-1,56
EndSplineSet
Validated: 1
EndChar

StartChar: h
Encoding: 104 104 82
Width: 677
GlyphClass: 2
Flags: W
LayerCount: 2
Fore
SplineSet
87 722 m 1,0,-1
 16 735 l 1,1,-1
 16 796 l 1,2,-1
 217 820 l 1,3,-1
 220 820 l 1,4,-1
 249 799 l 1,5,-1
 250 582 l 1,6,-1
 242 493 l 1,7,8
 273 522 273 522 324 544.5 c 128,-1,9
 375 567 375 567 436 567 c 0,10,11
 499 567 499 567 534 544 c 128,-1,12
 569 521 569 521 583 474 c 128,-1,13
 597 427 597 427 597 349 c 2,14,-1
 597 75 l 1,15,-1
 658 66 l 1,16,-1
 658 0 l 1,17,-1
 380 0 l 1,18,-1
 380 66 l 1,19,-1
 433 75 l 1,20,-1
 433 348 l 2,21,22
 433 418 433 418 418 445.5 c 128,-1,23
 403 473 403 473 357 473 c 0,24,25
 329 473 329 473 301 460.5 c 128,-1,26
 273 448 273 448 254 430 c 1,27,-1
 254 75 l 1,28,-1
 309 66 l 1,29,-1
 309 0 l 1,30,-1
 35 0 l 1,31,-1
 35 66 l 1,32,-1
 87 75 l 1,33,-1
 87 722 l 1,0,-1
EndSplineSet
Validated: 1
EndChar

StartChar: i
Encoding: 105 105 83
Width: 356
GlyphClass: 1
Flags: W
LayerCount: 2
Fore
SplineSet
101 665 m 128,-1,1
 77 688 77 688 77 724 c 0,2,3
 77 766 77 766 103.5 793 c 128,-1,4
 130 820 130 820 175 820 c 256,5,6
 220 820 220 820 244 797 c 128,-1,7
 268 774 268 774 268 738 c 0,8,9
 268 695 268 695 241 668.5 c 128,-1,10
 214 642 214 642 165 642 c 2,11,-1
 164 642 l 2,12,0
 125 642 125 642 101 665 c 128,-1,1
103 451 m 1,13,-1
 36 470 l 1,14,-1
 36 545 l 1,15,-1
 236 569 l 1,16,-1
 238 569 l 1,17,-1
 269 548 l 1,18,-1
 269 75 l 1,19,-1
 329 66 l 1,20,-1
 329 0 l 1,21,-1
 41 0 l 1,22,-1
 41 66 l 1,23,-1
 103 75 l 1,24,-1
 103 451 l 1,13,-1
EndSplineSet
Validated: 1
Substitution2: "'locl' Localized Forms in Latin lookup 5 subtable" i.loclTRK
Substitution2: "'locl' Localized Forms in Latin lookup 4 subtable" i.loclTRK
Substitution2: "'locl' Localized Forms in Latin lookup 3 subtable" i.loclTRK
Substitution2: "'locl' Localized Forms in Latin lookup 2 subtable" i.loclTRK
Substitution2: "'locl' Localized Forms in Latin lookup 1 subtable" i.loclTRK
EndChar

StartChar: dotlessi
Encoding: 305 305 84
Width: 356
GlyphClass: 2
Flags: W
LayerCount: 2
Fore
SplineSet
103 451 m 1,0,-1
 36 470 l 1,1,-1
 36 545 l 1,2,-1
 236 569 l 1,3,-1
 238 569 l 1,4,-1
 269 548 l 1,5,-1
 269 75 l 1,6,-1
 329 66 l 1,7,-1
 329 0 l 1,8,-1
 41 0 l 1,9,-1
 41 66 l 1,10,-1
 103 75 l 1,11,-1
 103 451 l 1,0,-1
EndSplineSet
Validated: 1
EndChar

StartChar: j
Encoding: 106 106 90
Width: 338
GlyphClass: 1
Flags: W
LayerCount: 2
Fore
SplineSet
106 665 m 128,-1,1
 82 688 82 688 82 724 c 0,2,3
 82 766 82 766 108.5 793 c 128,-1,4
 135 820 135 820 180 820 c 0,5,6
 224 820 224 820 247.5 797 c 128,-1,7
 271 774 271 774 271 738 c 0,8,9
 271 695 271 695 245 668.5 c 128,-1,10
 219 642 219 642 170 642 c 2,11,-1
 169 642 l 2,12,0
 130 642 130 642 106 665 c 128,-1,1
36 545 m 1,13,-1
 233 569 l 1,14,-1
 235 569 l 1,15,-1
 265 548 l 1,16,-1
 265 10 l 2,17,18
 265 -68 265 -68 231.5 -125 c 128,-1,19
 198 -182 198 -182 149.5 -212 c 128,-1,20
 101 -242 101 -242 56 -243 c 0,21,22
 6 -243 6 -243 -6 -239 c 1,23,-1
 -14 -176 l 1,24,25
 14 -176 14 -176 36 -164 c 0,26,27
 72 -147 72 -147 88 -96.5 c 128,-1,28
 104 -46 104 -46 104 42 c 2,29,-1
 104 449 l 1,30,-1
 36 468 l 1,31,-1
 36 545 l 1,13,-1
EndSplineSet
Validated: 1
EndChar

StartChar: k
Encoding: 107 107 91
Width: 647
GlyphClass: 2
Flags: W
LayerCount: 2
Fore
SplineSet
87 722 m 1,0,-1
 19 735 l 1,1,-1
 19 796 l 1,2,-1
 218 820 l 1,3,-1
 221 820 l 1,4,-1
 250 799 l 1,5,-1
 250 332 l 1,6,-1
 247 283 l 1,7,-1
 435 481 l 1,8,-1
 361 492 l 1,9,-1
 361 555 l 1,10,-1
 633 555 l 1,11,-1
 633 492 l 1,12,-1
 551 479 l 1,13,-1
 443 376 l 1,14,-1
 608 75 l 1,15,-1
 660 66 l 1,16,-1
 660 0 l 1,17,-1
 382 0 l 1,18,-1
 382 66 l 1,19,-1
 427 75 l 1,20,-1
 328 273 l 1,21,-1
 247 189 l 1,22,-1
 249 138 l 1,23,-1
 249 75 l 1,24,-1
 307 66 l 1,25,-1
 307 0 l 1,26,-1
 32 0 l 1,27,-1
 32 66 l 1,28,-1
 87 75 l 1,29,-1
 87 722 l 1,0,-1
EndSplineSet
Validated: 1
EndChar

StartChar: l
Encoding: 108 108 92
Width: 344
GlyphClass: 2
Flags: W
LayerCount: 2
Fore
SplineSet
94 722 m 1,0,-1
 24 735 l 1,1,-1
 24 796 l 1,2,-1
 224 820 l 1,3,-1
 227 820 l 1,4,-1
 256 799 l 1,5,-1
 256 75 l 1,6,-1
 321 66 l 1,7,-1
 321 0 l 1,8,-1
 30 0 l 1,9,-1
 30 66 l 1,10,-1
 94 75 l 1,11,-1
 94 722 l 1,0,-1
EndSplineSet
Validated: 1
EndChar

StartChar: ldot
Encoding: 65539 -1 93
Width: 563
GlyphClass: 1
Flags: W
LayerCount: 2
Fore
SplineSet
94 722 m 1,0,-1
 24 735 l 1,1,-1
 24 796 l 1,2,-1
 224 820 l 1,3,-1
 227 820 l 1,4,-1
 256 799 l 1,5,-1
 256 75 l 1,6,-1
 321 66 l 1,7,-1
 321 0 l 1,8,-1
 30 0 l 1,9,-1
 30 66 l 1,10,-1
 94 75 l 1,11,-1
 94 722 l 1,0,-1
377.5 323 m 128,-1,13
 352 347 352 347 352 383 c 0,14,15
 352 423 352 423 381 448.5 c 128,-1,16
 410 474 410 474 452 474 c 0,17,18
 492 474 492 474 516 449 c 128,-1,19
 540 424 540 424 540 390 c 0,20,21
 540 347 540 347 511.5 323 c 128,-1,22
 483 299 483 299 437 299 c 0,23,12
 403 299 403 299 377.5 323 c 128,-1,13
EndSplineSet
Validated: 1
Ligature2: "Ligature Substitution lookup 11 subtable" l periodcentered
EndChar

StartChar: m
Encoding: 109 109 94
Width: 1024
GlyphClass: 2
Flags: W
LayerCount: 2
Fore
SplineSet
45 66 m 1,0,-1
 98 75 l 1,1,-1
 98 451 l 1,2,-1
 39 469 l 1,3,-1
 39 547 l 1,4,-1
 221 569 l 1,5,-1
 229 565 l 1,6,-1
 249 537 l 1,7,-1
 249 487 l 1,8,9
 281 520 281 520 343 543.5 c 128,-1,10
 405 567 405 567 449 567 c 0,11,12
 503 567 503 567 536.5 549 c 128,-1,13
 570 531 570 531 587 493 c 1,14,15
 621 525 621 525 672.5 546 c 128,-1,16
 724 567 724 567 777 567 c 0,17,18
 865 567 865 567 903.5 516 c 128,-1,19
 942 465 942 465 942 349 c 2,20,-1
 942 75 l 1,21,-1
 1002 66 l 1,22,-1
 1002 0 l 1,23,-1
 731 0 l 1,24,-1
 731 66 l 1,25,-1
 776 75 l 1,26,-1
 776 345 l 2,27,28
 776 417 776 417 759.5 445 c 128,-1,29
 743 473 743 473 699 473 c 0,30,31
 653 473 653 473 603 434 c 1,32,33
 609 397 609 397 609 349 c 2,34,-1
 609 75 l 1,35,-1
 665 66 l 1,36,-1
 665 0 l 1,37,-1
 392 0 l 1,38,-1
 392 66 l 1,39,-1
 442 75 l 1,40,-1
 442 348 l 2,41,42
 442 419 442 419 426.5 446 c 128,-1,43
 411 473 411 473 368 473 c 0,44,45
 340 473 340 473 312.5 460.5 c 128,-1,46
 285 448 285 448 265 430 c 1,47,-1
 265 75 l 1,48,-1
 319 66 l 1,49,-1
 319 0 l 1,50,-1
 45 0 l 1,51,-1
 45 66 l 1,0,-1
EndSplineSet
Validated: 1
EndChar

StartChar: n
Encoding: 110 110 95
Width: 691
GlyphClass: 2
Flags: W
LayerCount: 2
Fore
SplineSet
98 451 m 1,0,-1
 39 469 l 1,1,-1
 39 547 l 1,2,-1
 221 569 l 1,3,-1
 224 569 l 1,4,-1
 250 548 l 1,5,-1
 250 511 l 1,6,-1
 249 488 l 1,7,8
 284 521 284 521 338 544 c 128,-1,9
 392 567 392 567 451 567 c 0,10,11
 511 567 511 567 545.5 545.5 c 128,-1,12
 580 524 580 524 595.5 477 c 128,-1,13
 611 430 611 430 611 349 c 2,14,-1
 611 75 l 1,15,-1
 667 67 l 1,16,-1
 667 0 l 1,17,-1
 395 0 l 1,18,-1
 395 66 l 1,19,-1
 444 75 l 1,20,-1
 444 348 l 2,21,22
 444 396 444 396 437.5 422.5 c 128,-1,23
 431 449 431 449 415 461 c 128,-1,24
 399 473 399 473 369 473 c 0,25,26
 323 473 323 473 265 430 c 1,27,-1
 265 75 l 1,28,-1
 320 66 l 1,29,-1
 320 0 l 1,30,-1
 43 0 l 1,31,-1
 43 66 l 1,32,-1
 98 75 l 1,33,-1
 98 451 l 1,0,-1
EndSplineSet
Validated: 1
EndChar

StartChar: o
Encoding: 111 111 97
Width: 642
GlyphClass: 2
Flags: W
LayerCount: 2
Fore
SplineSet
83 437.5 m 128,-1,1
 121 504 121 504 185.5 537 c 128,-1,2
 250 570 250 570 327 570 c 0,3,4
 453 570 453 570 524.5 494.5 c 128,-1,5
 596 419 596 419 596 284 c 0,6,7
 596 185 596 185 558 119 c 128,-1,8
 520 53 520 53 456 21 c 128,-1,9
 392 -11 392 -11 313 -11 c 0,10,11
 188 -11 188 -11 116.5 64.5 c 128,-1,12
 45 140 45 140 45 275 c 0,13,0
 45 371 45 371 83 437.5 c 128,-1,1
394.5 110.5 m 128,-1,15
 418 162 418 162 418 272 c 0,16,17
 418 389 418 389 395.5 444.5 c 128,-1,18
 373 500 373 500 320 500 c 0,19,20
 222 500 222 500 222 287 c 0,21,22
 222 171 222 171 246 115 c 128,-1,23
 270 59 270 59 323 59 c 0,24,14
 371 59 371 59 394.5 110.5 c 128,-1,15
EndSplineSet
Validated: 1
EndChar

StartChar: oslash
Encoding: 248 248 102
Width: 613
GlyphClass: 2
Flags: W
LayerCount: 2
Fore
SplineSet
69 437.5 m 128,-1,1
 107 504 107 504 171.5 537 c 128,-1,2
 236 570 236 570 313 570 c 0,3,4
 341 570 341 570 371 565 c 1,5,-1
 409 677 l 1,6,-1
 477 657 l 1,7,-1
 441 545 l 1,8,9
 509 513 509 513 545.5 446 c 128,-1,10
 582 379 582 379 582 284 c 0,11,12
 582 185 582 185 544 119 c 128,-1,13
 506 53 506 53 442 21 c 128,-1,14
 378 -11 378 -11 299 -11 c 0,15,16
 281 -11 281 -11 247 -7 c 1,17,-1
 202 -130 l 1,18,-1
 131 -110 l 1,19,-1
 176 13 l 1,20,21
 106 44 106 44 68.5 111 c 128,-1,22
 31 178 31 178 31 275 c 0,23,0
 31 371 31 371 69 437.5 c 128,-1,1
234 127 m 1,25,-1
 354 481 l 1,26,27
 336 500 336 500 306 500 c 0,28,29
 208 500 208 500 208 287 c 0,30,24
 208 179 208 179 234 127 c 1,25,-1
380.5 110.5 m 128,-1,32
 404 162 404 162 404 272 c 0,33,34
 404 379 404 379 380 428 c 1,35,-1
 261 77 l 1,36,37
 279 59 279 59 309 59 c 0,38,31
 357 59 357 59 380.5 110.5 c 128,-1,32
EndSplineSet
Validated: 1
EndChar

StartChar: oe
Encoding: 339 339 104
Width: 934
GlyphClass: 1
Flags: W
LayerCount: 2
Fore
SplineSet
103.5 63 m 128,-1,1
 31 137 31 137 31 274 c 0,2,3
 31 370 31 370 69.5 437 c 128,-1,4
 108 504 108 504 172.5 537 c 128,-1,5
 237 570 237 570 315 570 c 0,6,7
 437 570 437 570 498 500 c 1,8,9
 532 534 532 534 579 552 c 128,-1,10
 626 570 626 570 683 570 c 0,11,12
 788 570 788 570 843 517 c 128,-1,13
 898 464 898 464 900 367 c 0,14,15
 901 307 901 307 893 264 c 1,16,-1
 578 264 l 1,17,18
 584 179 584 179 620 134.5 c 128,-1,19
 656 90 656 90 723 90 c 0,20,21
 760 90 760 90 801 102 c 128,-1,22
 842 114 842 114 868 130 c 1,23,-1
 894 70 l 1,24,25
 867 41 867 41 804.5 15 c 128,-1,26
 742 -11 742 -11 677 -11 c 0,27,28
 548 -11 548 -11 483 64 c 1,29,30
 449 28 449 28 402.5 8.5 c 128,-1,31
 356 -11 356 -11 300 -11 c 0,32,0
 176 -11 176 -11 103.5 63 c 128,-1,1
742 330 m 1,33,-1
 742 372 l 2,34,35
 742 434 742 434 725 467.5 c 128,-1,36
 708 501 708 501 668 501 c 0,37,38
 625 501 625 501 602 464.5 c 128,-1,39
 579 428 579 428 577 330 c 1,40,-1
 742 330 l 1,33,-1
379.5 110 m 128,-1,42
 403 161 403 161 403 273 c 0,43,44
 403 393 403 393 380.5 446.5 c 128,-1,45
 358 500 358 500 306 500 c 0,46,47
 257 500 257 500 233 448.5 c 128,-1,48
 209 397 209 397 209 286 c 0,49,50
 209 166 209 166 233 112.5 c 128,-1,51
 257 59 257 59 309 59 c 0,52,41
 356 59 356 59 379.5 110 c 128,-1,42
EndSplineSet
Validated: 33
EndChar

StartChar: p
Encoding: 112 112 105
Width: 640
GlyphClass: 2
Flags: W
LayerCount: 2
Fore
SplineSet
571.5 143 m 128,-1,1
 537 73 537 73 469.5 31 c 128,-1,2
 402 -11 402 -11 307 -11 c 0,3,4
 291 -11 291 -11 272.5 -8 c 128,-1,5
 254 -5 254 -5 244 -1 c 1,6,-1
 247 -82 l 1,7,-1
 247 -167 l 1,8,-1
 333 -180 l 1,9,-1
 333 -242 l 1,10,-1
 26 -242 l 1,11,-1
 26 -180 l 1,12,-1
 87 -167 l 1,13,-1
 87 451 l 1,14,-1
 26 469 l 1,15,-1
 26 547 l 1,16,-1
 205 569 l 1,17,-1
 207 569 l 1,18,-1
 234 548 l 1,19,-1
 234 494 l 1,20,21
 257 525 257 525 298.5 547.5 c 128,-1,22
 340 570 340 570 389 570 c 0,23,24
 485 570 485 570 545.5 502.5 c 128,-1,25
 606 435 606 435 606 296 c 0,26,0
 606 213 606 213 571.5 143 c 128,-1,1
281 467.5 m 128,-1,28
 258 457 258 457 247 442 c 1,29,-1
 247 76 l 1,30,31
 254 67 254 67 271.5 61 c 128,-1,32
 289 55 289 55 310 55 c 0,33,34
 366 55 366 55 399.5 109 c 128,-1,35
 433 163 433 163 433 284 c 0,36,37
 433 382 433 382 405 430 c 128,-1,38
 377 478 377 478 330 478 c 0,39,27
 304 478 304 478 281 467.5 c 128,-1,28
EndSplineSet
Validated: 1
EndChar

StartChar: thorn
Encoding: 254 254 106
Width: 630
GlyphClass: 1
Flags: W
LayerCount: 2
Fore
SplineSet
203 820 m 1,0,-1
 205 820 l 1,1,-1
 237 800 l 1,2,-1
 237 508 l 1,3,4
 263 535 263 535 301 552.5 c 128,-1,5
 339 570 339 570 382 570 c 0,6,7
 479 570 479 570 538.5 502.5 c 128,-1,8
 598 435 598 435 598 296 c 0,9,10
 598 209 598 209 561.5 139 c 128,-1,11
 525 69 525 69 456.5 29 c 128,-1,12
 388 -11 388 -11 297 -11 c 0,13,14
 259 -11 259 -11 235 -7 c 1,15,-1
 238 -67 l 1,16,-1
 238 -168 l 1,17,-1
 331 -181 l 1,18,-1
 331 -242 l 1,19,-1
 15 -242 l 1,20,-1
 15 -181 l 1,21,-1
 77 -168 l 1,22,-1
 77 725 l 1,23,-1
 6 738 l 1,24,-1
 6 796 l 1,25,-1
 203 820 l 1,0,-1
272.5 461 m 128,-1,27
 250 450 250 450 237 435 c 1,28,-1
 237 73 l 1,29,30
 241 63 241 63 259.5 57 c 128,-1,31
 278 51 278 51 302 51 c 0,32,33
 358 51 358 51 391 110 c 128,-1,34
 424 169 424 169 424 284 c 0,35,36
 424 381 424 381 396 426.5 c 128,-1,37
 368 472 368 472 320 472 c 0,38,26
 295 472 295 472 272.5 461 c 128,-1,27
EndSplineSet
Validated: 1
EndChar

StartChar: q
Encoding: 113 113 107
Width: 618
GlyphClass: 1
Flags: W
LayerCount: 2
Fore
SplineSet
286 -180 m 1,0,-1
 394 -167 l 1,1,-1
 394 -23 l 1,2,-1
 397 50 l 1,3,4
 370 23 370 23 331 6 c 128,-1,5
 292 -11 292 -11 250 -11 c 0,6,7
 154 -11 154 -11 93.5 58 c 128,-1,8
 33 127 33 127 33 266 c 0,9,10
 33 349 33 349 67.5 418 c 128,-1,11
 102 487 102 487 170 528.5 c 128,-1,12
 238 570 238 570 334 570 c 0,13,14
 362 570 362 570 394.5 563.5 c 128,-1,15
 427 557 427 557 450 550 c 1,16,-1
 530 566 l 1,17,-1
 555 548 l 1,18,-1
 555 -168 l 1,19,-1
 622 -180 l 1,20,-1
 622 -242 l 1,21,-1
 286 -242 l 1,22,-1
 286 -180 l 1,0,-1
359 89 m 128,-1,24
 381 100 381 100 394 115 c 1,25,-1
 394 481 l 1,26,27
 388 490 388 490 369 496 c 128,-1,28
 350 502 350 502 328 502 c 0,29,30
 273 502 273 502 240 449 c 128,-1,31
 207 396 207 396 207 277 c 0,32,33
 207 178 207 178 236 128 c 128,-1,34
 265 78 265 78 312 78 c 0,35,23
 337 78 337 78 359 89 c 128,-1,24
EndSplineSet
Validated: 1
EndChar

StartChar: r
Encoding: 114 114 108
Width: 480
GlyphClass: 2
Flags: W
LayerCount: 2
Fore
SplineSet
43 66 m 1,0,-1
 104 75 l 1,1,-1
 104 451 l 1,2,-1
 45 469 l 1,3,-1
 45 547 l 1,4,-1
 211 569 l 1,5,-1
 214 569 l 1,6,-1
 242 548 l 1,7,-1
 242 524 l 1,8,-1
 239 441 l 1,9,-1
 242 441 l 1,10,11
 249 464 249 464 274 494.5 c 128,-1,12
 299 525 299 525 337.5 547.5 c 128,-1,13
 376 570 376 570 421 570 c 0,14,15
 447 570 447 570 461 563 c 1,16,-1
 461 389 l 1,17,18
 445 401 445 401 426.5 408 c 128,-1,19
 408 415 408 415 379 415 c 0,20,21
 343 415 343 415 314 405.5 c 128,-1,22
 285 396 285 396 268 384 c 1,23,-1
 268 75 l 1,24,-1
 378 65 l 1,25,-1
 378 0 l 1,26,-1
 43 0 l 1,27,-1
 43 66 l 1,0,-1
EndSplineSet
Validated: 1
EndChar

StartChar: s
Encoding: 115 115 109
Width: 528
GlyphClass: 2
Flags: W
LayerCount: 2
Fore
SplineSet
167 83 m 2,0,1
 174 72 174 72 199.5 63 c 128,-1,2
 225 54 225 54 251 54 c 0,3,4
 292 54 292 54 313.5 71.5 c 128,-1,5
 335 89 335 89 335 117 c 0,6,7
 335 147 335 147 307 166.5 c 128,-1,8
 279 186 279 186 215 214 c 2,9,-1
 177 231 l 2,10,11
 112 260 112 260 79.5 301.5 c 128,-1,12
 47 343 47 343 47 407 c 0,13,14
 47 453 47 453 74 489.5 c 128,-1,15
 101 526 101 526 152 547 c 128,-1,16
 203 568 203 568 272 568 c 0,17,18
 320 568 320 568 355 562 c 128,-1,19
 390 556 390 556 426 547 c 0,20,21
 450 540 450 540 462 539 c 1,22,-1
 462 403 l 1,23,-1
 373 403 l 1,24,-1
 347 480 l 2,25,26
 342 489 342 489 323 496.5 c 128,-1,27
 304 504 304 504 280 504 c 0,28,29
 242 504 242 504 220 487.5 c 128,-1,30
 198 471 198 471 198 443 c 0,31,32
 198 411 198 411 223 392.5 c 128,-1,33
 248 374 248 374 303 349 c 2,34,-1
 324 340 l 2,35,36
 405 306 405 306 451 266.5 c 128,-1,37
 497 227 497 227 497 158 c 0,38,39
 497 84 497 84 438 36.5 c 128,-1,40
 379 -11 379 -11 264 -11 c 0,41,42
 211 -11 211 -11 170 -2.5 c 128,-1,43
 129 6 129 6 80 20 c 2,44,-1
 47 29 l 1,45,-1
 47 162 l 1,46,-1
 142 162 l 1,47,-1
 167 83 l 2,0,1
EndSplineSet
Validated: 1
EndChar

StartChar: germandbls
Encoding: 223 223 110
Width: 665
GlyphClass: 1
Flags: W
LayerCount: 2
Fore
SplineSet
77 473 m 2,0,1
 77 563 77 563 115.5 634.5 c 128,-1,2
 154 706 154 706 224 746.5 c 128,-1,3
 294 787 294 787 387 787 c 0,4,5
 486 787 486 787 536 752.5 c 128,-1,6
 586 718 586 718 586 654 c 0,7,8
 586 612 586 612 569 587 c 128,-1,9
 552 562 552 562 520 535 c 0,10,11
 496 514 496 514 485 499.5 c 128,-1,12
 474 485 474 485 474 464 c 256,13,14
 474 443 474 443 489 424.5 c 128,-1,15
 504 406 504 406 537 376 c 0,16,17
 571 345 571 345 593.5 319.5 c 128,-1,18
 616 294 616 294 632.5 257 c 128,-1,19
 649 220 649 220 649 174 c 0,20,21
 649 88 649 88 586.5 38.5 c 128,-1,22
 524 -11 524 -11 403 -11 c 0,23,24
 388 -11 388 -11 361 -7.5 c 128,-1,25
 334 -4 334 -4 319 0 c 1,26,-1
 319 84 l 1,27,28
 332 78 332 78 351.5 74 c 128,-1,29
 371 70 371 70 390 70 c 0,30,31
 430 70 430 70 451 93 c 128,-1,32
 472 116 472 116 472 152 c 0,33,34
 472 195 472 195 454 225 c 128,-1,35
 436 255 436 255 401 292 c 0,36,37
 369 327 369 327 354 351 c 128,-1,38
 339 375 339 375 339 409 c 0,39,40
 339 436 339 436 349.5 455.5 c 128,-1,41
 360 475 360 475 381 500 c 0,42,43
 408 532 408 532 421.5 560 c 128,-1,44
 435 588 435 588 435 634 c 0,45,46
 435 714 435 714 364 714 c 0,47,48
 305 714 305 714 274 657.5 c 128,-1,49
 243 601 243 601 243 491 c 2,50,-1
 243 0 l 1,51,-1
 22 0 l 1,52,-1
 22 66 l 1,53,-1
 77 76 l 1,54,-1
 77 473 l 2,0,1
EndSplineSet
Validated: 1
EndChar

StartChar: t
Encoding: 116 116 111
Width: 408
GlyphClass: 2
Flags: W
LayerCount: 2
Fore
SplineSet
113.5 21.5 m 128,-1,1
 82 52 82 52 82 116 c 2,2,-1
 82 472 l 1,3,-1
 21 472 l 1,4,-1
 21 530 l 1,5,-1
 41 538 l 2,6,7
 65 546 65 546 83 555 c 1,8,9
 103 574 103 574 115 605 c 0,10,11
 130 641 130 641 148 706 c 1,12,-1
 241 706 l 1,13,-1
 247 556 l 1,14,-1
 390 556 l 1,15,-1
 390 472 l 1,16,-1
 249 472 l 1,17,-1
 249 207 l 2,18,19
 249 152 249 152 252 130 c 128,-1,20
 255 108 255 108 263.5 101.5 c 128,-1,21
 272 95 272 95 295 95 c 0,22,23
 342 95 342 95 384 111 c 1,24,-1
 405 48 l 1,25,26
 377 25 377 25 322 8 c 128,-1,27
 267 -9 267 -9 211 -9 c 0,28,0
 145 -9 145 -9 113.5 21.5 c 128,-1,1
EndSplineSet
Validated: 1
EndChar

StartChar: u
Encoding: 117 117 112
Width: 644
GlyphClass: 2
Flags: W
LayerCount: 2
Fore
SplineSet
441 5.5 m 128,-1,1
 425 21 425 21 425 51 c 2,2,-1
 425 73 l 1,3,4
 401 40 401 40 353 14.5 c 128,-1,5
 305 -11 305 -11 256 -11 c 0,6,7
 158 -11 158 -11 116.5 37.5 c 128,-1,8
 75 86 75 86 75 200 c 2,9,-1
 75 478 l 1,10,-1
 28 491 l 1,11,-1
 28 555 l 1,12,-1
 216 568 l 1,13,-1
 217 568 l 1,14,-1
 239 554 l 1,15,-1
 239 196 l 2,16,17
 239 131 239 131 255 105.5 c 128,-1,18
 271 80 271 80 312 80 c 0,19,20
 368 80 368 80 406 118 c 1,21,-1
 406 478 l 1,22,-1
 344 493 l 1,23,-1
 344 555 l 1,24,-1
 542 568 l 1,25,-1
 545 568 l 1,26,-1
 569 554 l 1,27,-1
 569 69 l 1,28,-1
 622 69 l 1,29,-1
 622 5 l 1,30,31
 588 -2 588 -2 559.5 -6 c 128,-1,32
 531 -10 531 -10 493 -10 c 0,33,0
 457 -10 457 -10 441 5.5 c 128,-1,1
EndSplineSet
Validated: 1
EndChar

StartChar: v
Encoding: 118 118 117
Width: 573
GlyphClass: 1
Flags: W
LayerCount: 2
Fore
SplineSet
-9 556 m 1,0,-1
 275 556 l 1,1,-1
 275 492 l 1,2,-1
 212 480 l 1,3,-1
 296 216 l 1,4,-1
 322 125 l 1,5,-1
 343 215 l 1,6,-1
 426 480 l 1,7,-1
 365 492 l 1,8,-1
 365 556 l 1,9,-1
 596 556 l 1,10,-1
 596 492 l 1,11,-1
 544 480 l 1,12,-1
 362 -8 l 1,13,-1
 228 -8 l 1,14,-1
 30 480 l 1,15,-1
 -9 492 l 1,16,-1
 -9 556 l 1,0,-1
EndSplineSet
Validated: 1
EndChar

StartChar: w
Encoding: 119 119 118
Width: 841
GlyphClass: 2
Flags: W
LayerCount: 2
Fore
SplineSet
-18 555 m 1,0,-1
 256 555 l 1,1,-1
 256 492 l 1,2,-1
 189 481 l 1,3,-1
 257 232 l 1,4,-1
 278 133 l 1,5,-1
 296 232 l 1,6,-1
 382 555 l 1,7,-1
 517 555 l 1,8,-1
 616 232 l 1,9,-1
 637 134 l 1,10,-1
 657 232 l 1,11,-1
 720 480 l 1,12,-1
 648 492 l 1,13,-1
 648 555 l 1,14,-1
 868 555 l 1,15,-1
 868 492 l 1,16,-1
 820 481 l 1,17,-1
 669 -8 l 1,18,-1
 542 -8 l 1,19,-1
 443 298 l 1,20,-1
 422 414 l 1,21,-1
 407 298 l 1,22,-1
 318 -8 l 1,23,-1
 188 -8 l 1,24,-1
 29 481 l 1,25,-1
 -18 492 l 1,26,-1
 -18 555 l 1,0,-1
EndSplineSet
Validated: 1
EndChar

StartChar: x
Encoding: 120 120 119
Width: 610
GlyphClass: 1
Flags: W
LayerCount: 2
Fore
SplineSet
219 271 m 1,0,-1
 56 481 l 1,1,-1
 6 492 l 1,2,-1
 6 556 l 1,3,-1
 318 556 l 1,4,-1
 318 492 l 1,5,-1
 256 481 l 1,6,-1
 326 380 l 1,7,-1
 351 339 l 1,8,-1
 376 381 l 1,9,-1
 448 481 l 1,10,-1
 384 492 l 1,11,-1
 384 556 l 1,12,-1
 605 556 l 1,13,-1
 605 492 l 1,14,-1
 549 481 l 1,15,-1
 397 293 l 1,16,-1
 567 75 l 1,17,-1
 621 65 l 1,18,-1
 621 0 l 1,19,-1
 311 0 l 1,20,-1
 311 65 l 1,21,-1
 366 75 l 1,22,-1
 298 182 l 1,23,-1
 268 225 l 1,24,-1
 245 182 l 1,25,-1
 173 75 l 1,26,-1
 246 65 l 1,27,-1
 246 0 l 1,28,-1
 1 0 l 1,29,-1
 1 65 l 1,30,-1
 63 75 l 1,31,-1
 219 271 l 1,0,-1
EndSplineSet
Validated: 1
EndChar

StartChar: y
Encoding: 121 121 120
Width: 573
GlyphClass: 2
Flags: W
LayerCount: 2
Fore
SplineSet
96.5 -246 m 128,-1,1
 74 -243 74 -243 64 -238 c 1,2,-1
 64 -118 l 1,3,4
 71 -123 71 -123 94 -127.5 c 128,-1,5
 117 -132 117 -132 136 -132 c 0,6,7
 187 -132 187 -132 217 -100 c 128,-1,8
 247 -68 247 -68 272 0 c 1,9,-1
 214 0 l 1,10,-1
 27 480 l 1,11,-1
 -17 492 l 1,12,-1
 -17 556 l 1,13,-1
 278 556 l 1,14,-1
 278 492 l 1,15,-1
 208 480 l 1,16,-1
 291 214 l 1,17,-1
 321 113 l 1,18,-1
 345 214 l 1,19,-1
 422 481 l 1,20,-1
 362 492 l 1,21,-1
 362 556 l 1,22,-1
 588 556 l 1,23,-1
 588 492 l 1,24,-1
 540 481 l 1,25,26
 498 352 498 352 437.5 178 c 128,-1,27
 377 4 377 4 370 -12 c 0,28,29
 340 -95 340 -95 309.5 -145.5 c 128,-1,30
 279 -196 279 -196 238 -222.5 c 128,-1,31
 197 -249 197 -249 140 -249 c 0,32,0
 119 -249 119 -249 96.5 -246 c 128,-1,1
EndSplineSet
Validated: 1
EndChar

StartChar: z
Encoding: 122 122 123
Width: 561
GlyphClass: 2
Flags: W
LayerCount: 2
Fore
SplineSet
161 479 m 1,0,-1
 134 380 l 1,1,-1
 55 380 l 1,2,-1
 55 556 l 1,3,-1
 506 556 l 1,4,-1
 532 498 l 1,5,-1
 283 145 l 1,6,-1
 211 68 l 1,7,-1
 409 79 l 1,8,-1
 460 196 l 1,9,-1
 535 187 l 1,10,-1
 519 0 l 1,11,-1
 46 0 l 1,12,-1
 18 61 l 1,13,-1
 275 405 l 1,14,-1
 351 487 l 1,15,-1
 161 479 l 1,0,-1
EndSplineSet
Validated: 1
EndChar

StartChar: ordfeminine
Encoding: 170 170 129
Width: 555
GlyphClass: 1
Flags: W
LayerCount: 2
Fore
SplineSet
123 342.5 m 128,-1,1
 90 357 90 357 69 386 c 128,-1,2
 48 415 48 415 48 457 c 0,3,4
 48 530 48 530 116.5 565 c 128,-1,5
 185 600 185 600 335 605 c 1,6,-1
 335 628 l 2,7,8
 335 674 335 674 315 696 c 128,-1,9
 295 718 295 718 248 718 c 0,10,11
 209 718 209 718 163.5 706 c 128,-1,12
 118 694 118 694 89 679 c 1,13,-1
 59 745 l 1,14,15
 92 766 92 766 150.5 783 c 128,-1,16
 209 800 209 800 269 800 c 0,17,18
 362 800 362 800 417 762 c 128,-1,19
 472 724 472 724 472 638 c 2,20,-1
 472 404 l 1,21,-1
 528 404 l 1,22,-1
 528 341 l 1,23,24
 511 337 511 337 477.5 333 c 128,-1,25
 444 329 444 329 417 329 c 0,26,27
 378 329 378 329 358.5 343 c 128,-1,28
 339 357 339 357 339 379 c 2,29,-1
 339 410 l 1,30,31
 318 371 318 371 280 349.5 c 128,-1,32
 242 328 242 328 190 328 c 0,33,0
 156 328 156 328 123 342.5 c 128,-1,1
294.5 408 m 128,-1,35
 313 422 313 422 335 447 c 1,36,-1
 335 563 l 1,37,38
 189 560 189 560 189 463 c 0,39,40
 189 431 189 431 205 412.5 c 128,-1,41
 221 394 221 394 245 394 c 0,42,34
 276 394 276 394 294.5 408 c 128,-1,35
EndSplineSet
Validated: 1
EndChar

StartChar: ordmasculine
Encoding: 186 186 130
Width: 536
GlyphClass: 1
Flags: W
LayerCount: 2
Fore
SplineSet
103 391.5 m 128,-1,1
 42 450 42 450 42 566 c 0,2,3
 42 643 42 643 74.5 695.5 c 128,-1,4
 107 748 107 748 160 773.5 c 128,-1,5
 213 799 213 799 274 799 c 0,6,7
 383 799 383 799 438.5 740 c 128,-1,8
 494 681 494 681 494 569 c 0,9,10
 494 489 494 489 462.5 436 c 128,-1,11
 431 383 431 383 379.5 358.5 c 128,-1,12
 328 334 328 334 268 333 c 0,13,0
 164 333 164 333 103 391.5 c 128,-1,1
314 405 m 128,-1,15
 331 417 331 417 339 452.5 c 128,-1,16
 347 488 347 488 347 559 c 0,17,18
 347 740 347 740 269 740 c 0,19,20
 228 740 228 740 208.5 701.5 c 128,-1,21
 189 663 189 663 189 574 c 0,22,23
 189 488 189 488 210 440.5 c 128,-1,24
 231 393 231 393 266 393 c 0,25,14
 297 393 297 393 314 405 c 128,-1,15
EndSplineSet
Validated: 1
EndChar

StartChar: zero
Encoding: 48 48 131
Width: 666
GlyphClass: 1
Flags: W
LayerCount: 2
Fore
SplineSet
123 71.5 m 128,-1,1
 53 153 53 153 53 304 c 0,2,3
 53 412 53 412 93 485.5 c 128,-1,4
 133 559 133 559 200 594.5 c 128,-1,5
 267 630 267 630 348 630 c 0,6,7
 476 630 476 630 544.5 550.5 c 128,-1,8
 613 471 613 471 613 319 c 0,9,10
 613 211 613 211 573.5 137 c 128,-1,11
 534 63 534 63 468 26.5 c 128,-1,12
 402 -10 402 -10 321 -10 c 0,13,0
 193 -10 193 -10 123 71.5 c 128,-1,1
413 117 m 128,-1,15
 439 179 439 179 439 306 c 0,16,17
 439 401 439 401 428.5 457 c 128,-1,18
 418 513 418 513 395 538.5 c 128,-1,19
 372 564 372 564 333 564 c 0,20,21
 227 564 227 564 227 317 c 0,22,23
 227 178 227 178 252 116.5 c 128,-1,24
 277 55 277 55 334 55 c 0,25,14
 387 55 387 55 413 117 c 128,-1,15
EndSplineSet
Validated: 1
Substitution2: "'lnum' Lining Figures lookup 9 subtable" zero.lf
EndChar

StartChar: one
Encoding: 49 49 132
Width: 469
GlyphClass: 1
Flags: W
LayerCount: 2
Fore
SplineSet
173 474 m 1,0,1
 156 469 156 469 112.5 460.5 c 128,-1,2
 69 452 69 452 47 450 c 1,3,-1
 36 529 l 1,4,5
 92 540 92 540 154 570 c 128,-1,6
 216 600 216 600 253 631 c 1,7,-1
 254 631 l 1,8,-1
 344 619 l 1,9,-1
 344 77 l 1,10,-1
 452 65 l 1,11,-1
 452 0 l 1,12,-1
 57 0 l 1,13,-1
 57 65 l 1,14,-1
 173 76 l 1,15,-1
 173 474 l 1,0,1
EndSplineSet
Validated: 1
Substitution2: "'lnum' Lining Figures lookup 9 subtable" one.lf
Substitution2: "'numr' Numerators lookup 6 subtable" one.numr
EndChar

StartChar: two
Encoding: 50 50 133
Width: 609
GlyphClass: 1
Flags: W
LayerCount: 2
Fore
SplineSet
253.5 236.5 m 128,-1,1
 337 329 337 329 337 420 c 0,2,3
 337 465 337 465 307.5 492 c 128,-1,4
 278 519 278 519 228 519 c 0,5,6
 194 519 194 519 166.5 509 c 128,-1,7
 139 499 139 499 122.5 487.5 c 128,-1,8
 106 476 106 476 81 455 c 1,9,-1
 40 516 l 1,10,11
 59 541 59 541 98 567.5 c 128,-1,12
 137 594 137 594 187.5 612 c 128,-1,13
 238 630 238 630 290 630 c 0,14,15
 365 630 365 630 416 605.5 c 128,-1,16
 467 581 467 581 491.5 540 c 128,-1,17
 516 499 516 499 516 449 c 0,18,19
 516 355 516 355 426.5 263 c 128,-1,20
 337 171 337 171 193 90 c 1,21,-1
 471 119 l 1,22,-1
 511 202 l 1,23,-1
 580 187 l 1,24,-1
 550 0 l 1,25,-1
 57 0 l 1,26,-1
 33 61 l 1,27,0
 170 144 170 144 253.5 236.5 c 128,-1,1
EndSplineSet
Validated: 1
Substitution2: "'lnum' Lining Figures lookup 9 subtable" two.lf
Substitution2: "'dnom' Denominators lookup 7 subtable" two.dnom
Substitution2: "'numr' Numerators lookup 6 subtable" two.numr
EndChar

StartChar: three
Encoding: 51 51 134
Width: 570
GlyphClass: 1
Flags: W
LayerCount: 2
Fore
SplineSet
104.5 -154.5 m 128,-1,1
 65 -149 65 -149 42 -142 c 1,2,-1
 42 -58 l 1,3,4
 86 -72 86 -72 139 -72 c 0,5,6
 204 -72 204 -72 251.5 -51 c 128,-1,7
 299 -30 299 -30 324 7 c 128,-1,8
 349 44 349 44 349 89 c 0,9,10
 349 212 349 212 209 220 c 1,11,-1
 151 205 l 1,12,-1
 129 272 l 1,13,14
 165 277 165 277 210 297 c 0,15,16
 265 323 265 323 293.5 360 c 128,-1,17
 322 397 322 397 322 439 c 0,18,19
 322 484 322 484 293 505.5 c 128,-1,20
 264 527 264 527 221 527 c 0,21,22
 177 527 177 527 140.5 512.5 c 128,-1,23
 104 498 104 498 79 477 c 1,24,-1
 39 547 l 1,25,26
 57 564 57 564 94.5 583.5 c 128,-1,27
 132 603 132 603 179.5 616.5 c 128,-1,28
 227 630 227 630 275 630 c 0,29,30
 374 630 374 630 435 589 c 128,-1,31
 496 548 496 548 496 466 c 0,32,33
 496 393 496 393 440.5 340 c 128,-1,34
 385 287 385 287 301 257 c 1,35,36
 312 258 312 258 332 258 c 0,37,38
 422 258 422 258 478 213.5 c 128,-1,39
 534 169 534 169 534 92 c 0,40,41
 534 21 534 21 491 -36.5 c 128,-1,42
 448 -94 448 -94 367 -127 c 128,-1,43
 286 -160 286 -160 177 -160 c 0,44,0
 144 -160 144 -160 104.5 -154.5 c 128,-1,1
EndSplineSet
Validated: 1
Substitution2: "'lnum' Lining Figures lookup 9 subtable" three.lf
Substitution2: "'dnom' Denominators lookup 7 subtable" three.dnom
Substitution2: "'numr' Numerators lookup 6 subtable" three.numr
EndChar

StartChar: four
Encoding: 52 52 135
Width: 671
GlyphClass: 1
Flags: W
LayerCount: 2
Fore
SplineSet
391 0 m 1,0,-1
 62 0 l 1,1,-1
 25 57 l 1,2,3
 102 200 102 200 300 681 c 1,4,-1
 333 681 l 1,5,-1
 466 614 l 1,6,-1
 220 149 l 1,7,-1
 175 82 l 1,8,-1
 392 96 l 1,9,-1
 406 278 l 1,10,-1
 529 287 l 1,11,-1
 529 106 l 1,12,-1
 649 113 l 1,13,-1
 649 0 l 1,14,-1
 529 0 l 1,15,-1
 529 -160 l 1,16,-1
 391 -160 l 1,17,-1
 391 0 l 1,0,-1
EndSplineSet
Validated: 1
Substitution2: "'lnum' Lining Figures lookup 9 subtable" four.lf
Substitution2: "'dnom' Denominators lookup 7 subtable" four.dnom
Substitution2: "'numr' Numerators lookup 6 subtable" four.numr
EndChar

StartChar: five
Encoding: 53 53 136
Width: 623
GlyphClass: 1
Flags: W
LayerCount: 2
Fore
SplineSet
145 -84 m 0,1,2
 212 -84 212 -84 267.5 -56.5 c 128,-1,3
 323 -29 323 -29 355 18.5 c 128,-1,4
 387 66 387 66 387 121 c 0,5,6
 387 190 387 190 352.5 219.5 c 128,-1,7
 318 249 318 249 253 249 c 0,8,9
 220 249 220 249 182 240.5 c 128,-1,10
 144 232 144 232 118 221 c 1,11,-1
 81 247 l 1,12,-1
 129 621 l 1,13,-1
 453 621 l 1,14,-1
 463 640 l 1,15,-1
 536 640 l 1,16,-1
 513 501 l 1,17,-1
 234 501 l 1,18,-1
 195 309 l 1,19,20
 273 348 273 348 353 348 c 0,21,22
 458 348 458 348 512.5 295.5 c 128,-1,23
 567 243 567 243 567 150 c 0,24,25
 567 59 567 59 514 -12 c 128,-1,26
 461 -83 461 -83 367.5 -122 c 128,-1,27
 274 -161 274 -161 157 -161 c 0,28,29
 119 -161 119 -161 87 -154 c 1,30,-1
 87 -81 l 1,31,0
 116 -84 116 -84 145 -84 c 0,1,2
EndSplineSet
Validated: 1
Substitution2: "'lnum' Lining Figures lookup 9 subtable" five.lf
Substitution2: "'numr' Numerators lookup 6 subtable" five.numr
EndChar

StartChar: six
Encoding: 54 54 137
Width: 676
GlyphClass: 1
Flags: W
LayerCount: 2
Fore
SplineSet
192.5 29.5 m 128,-1,1
 130 71 130 71 97 143 c 128,-1,2
 64 215 64 215 64 305 c 0,3,4
 64 435 64 435 128.5 541.5 c 128,-1,5
 193 648 193 648 292 712 c 128,-1,6
 391 776 391 776 490 786 c 1,7,-1
 524 726 l 1,8,9
 422 696 422 696 354.5 623 c 128,-1,10
 287 550 287 550 258 450 c 1,11,12
 315 499 315 499 406 499 c 0,13,14
 503 499 503 499 561 438 c 128,-1,15
 619 377 619 377 619 270 c 0,16,17
 619 195 619 195 586.5 130.5 c 128,-1,18
 554 66 554 66 491 27 c 128,-1,19
 428 -12 428 -12 341 -12 c 0,20,0
 255 -12 255 -12 192.5 29.5 c 128,-1,1
285.5 402 m 128,-1,22
 258 389 258 389 242 371 c 1,23,24
 238 343 238 343 238 285 c 0,25,26
 238 55 238 55 346 55 c 0,27,28
 396 55 396 55 423 106.5 c 128,-1,29
 450 158 450 158 450 239 c 0,30,31
 450 415 450 415 346 415 c 0,32,21
 313 415 313 415 285.5 402 c 128,-1,22
EndSplineSet
Validated: 1
Substitution2: "'lnum' Lining Figures lookup 9 subtable" six.lf
EndChar

StartChar: seven
Encoding: 55 55 138
Width: 598
GlyphClass: 1
Flags: W
LayerCount: 2
Fore
SplineSet
139 -139 m 1,0,1
 204 -12 204 -12 266.5 132.5 c 128,-1,2
 329 277 329 277 406 463 c 2,3,-1
 432 525 l 1,4,-1
 187 520 l 1,5,-1
 129 365 l 1,6,-1
 34 384 l 1,7,-1
 60 621 l 1,8,-1
 550 621 l 1,9,-1
 580 583 l 1,10,-1
 313 -185 l 1,11,-1
 139 -139 l 1,0,1
EndSplineSet
Validated: 1
Substitution2: "'lnum' Lining Figures lookup 9 subtable" seven.lf
Substitution2: "'numr' Numerators lookup 6 subtable" seven.numr
EndChar

StartChar: eight
Encoding: 56 56 139
Width: 647
GlyphClass: 1
Flags: W
LayerCount: 2
Fore
SplineSet
85 286.5 m 128,-1,1
 123 334 123 334 195 363 c 1,2,3
 140 400 140 400 109.5 445.5 c 128,-1,4
 79 491 79 491 79 557 c 0,5,6
 79 618 79 618 112 662 c 128,-1,7
 145 706 145 706 202 729.5 c 128,-1,8
 259 753 259 753 329 753 c 0,9,10
 402 753 402 753 454.5 731.5 c 128,-1,11
 507 710 507 710 534.5 672 c 128,-1,12
 562 634 562 634 562 586 c 0,13,14
 562 532 562 532 528.5 487.5 c 128,-1,15
 495 443 495 443 431 414 c 1,16,17
 511 369 511 369 556.5 319 c 128,-1,18
 602 269 602 269 602 194 c 0,19,20
 602 132 602 132 566 85.5 c 128,-1,21
 530 39 530 39 465.5 14 c 128,-1,22
 401 -11 401 -11 317 -11 c 0,23,24
 203 -11 203 -11 125 36.5 c 128,-1,25
 47 84 47 84 47 182 c 0,26,0
 47 239 47 239 85 286.5 c 128,-1,1
244 537 m 128,-1,28
 263 512 263 512 293 492.5 c 128,-1,29
 323 473 323 473 373 446 c 1,30,31
 405 469 405 469 422.5 499.5 c 128,-1,32
 440 530 440 530 440 564 c 0,33,34
 440 624 440 624 411.5 657 c 128,-1,35
 383 690 383 690 329 690 c 0,36,37
 286 690 286 690 255.5 664.5 c 128,-1,38
 225 639 225 639 225 594 c 0,39,27
 225 562 225 562 244 537 c 128,-1,28
418 221 m 128,-1,41
 399 246 399 246 369.5 264.5 c 128,-1,42
 340 283 340 283 291 309 c 2,43,-1
 248 332 l 1,44,45
 217 309 217 309 199 277 c 128,-1,46
 181 245 181 245 181 206 c 0,47,48
 181 139 181 139 217.5 97.5 c 128,-1,49
 254 56 254 56 320 56 c 0,50,51
 366 56 366 56 401.5 86 c 128,-1,52
 437 116 437 116 437 165 c 0,53,40
 437 196 437 196 418 221 c 128,-1,41
EndSplineSet
Validated: 1
Substitution2: "'lnum' Lining Figures lookup 9 subtable" eight.lf
Substitution2: "'dnom' Denominators lookup 7 subtable" eight.dnom
EndChar

StartChar: nine
Encoding: 57 57 140
Width: 662
GlyphClass: 1
Flags: W
LayerCount: 2
Fore
SplineSet
480.5 590.5 m 128,-1,1
 542 551 542 551 573.5 481 c 128,-1,2
 605 411 605 411 605 320 c 0,3,4
 605 187 605 187 544.5 78.5 c 128,-1,5
 484 -30 484 -30 388 -95.5 c 128,-1,6
 292 -161 292 -161 191 -171 c 1,7,-1
 158 -111 l 1,8,9
 259 -81 259 -81 322.5 -8 c 128,-1,10
 386 65 386 65 412 169 c 1,11,12
 388 147 388 147 352 133 c 128,-1,13
 316 119 316 119 271 119 c 0,14,15
 207 119 207 119 156.5 148.5 c 128,-1,16
 106 178 106 178 77.5 232.5 c 128,-1,17
 49 287 49 287 49 359 c 0,18,19
 49 432 49 432 82.5 494 c 128,-1,20
 116 556 116 556 179.5 593 c 128,-1,21
 243 630 243 630 330 630 c 0,22,0
 419 630 419 630 480.5 590.5 c 128,-1,1
385 217 m 128,-1,24
 412 230 412 230 427 247 c 1,25,26
 431 297 431 297 432 322 c 0,27,28
 432 440 432 440 406 502 c 128,-1,29
 380 564 380 564 321 564 c 0,30,31
 272 564 272 564 245 513.5 c 128,-1,32
 218 463 218 463 218 387 c 0,33,34
 218 293 218 293 247 248.5 c 128,-1,35
 276 204 276 204 326 204 c 0,36,23
 358 204 358 204 385 217 c 128,-1,24
EndSplineSet
Validated: 1
Substitution2: "'lnum' Lining Figures lookup 9 subtable" nine.lf
EndChar

StartChar: zero.lf
Encoding: 65545 -1 141
Width: 652
GlyphClass: 1
Flags: W
LayerCount: 2
Fore
SplineSet
117.5 86 m 128,-1,1
 50 182 50 182 50 364 c 0,2,3
 50 558 50 558 127.5 655.5 c 128,-1,4
 205 753 205 753 341 753 c 0,5,6
 466 753 466 753 534 658 c 128,-1,7
 602 563 602 563 602 383 c 0,8,9
 602 185 602 185 527.5 87.5 c 128,-1,10
 453 -10 453 -10 312 -10 c 0,11,0
 185 -10 185 -10 117.5 86 c 128,-1,1
388 83 m 128,-1,13
 410 111 410 111 419.5 177 c 128,-1,14
 429 243 429 243 429 361 c 0,15,16
 429 492 429 492 417.5 563.5 c 128,-1,17
 406 635 406 635 384 661.5 c 128,-1,18
 362 688 362 688 326 688 c 0,19,20
 291 688 291 688 268.5 661.5 c 128,-1,21
 246 635 246 635 234.5 566.5 c 128,-1,22
 223 498 223 498 223 373 c 0,23,24
 223 254 223 254 234.5 184 c 128,-1,25
 246 114 246 114 268.5 84.5 c 128,-1,26
 291 55 291 55 327 55 c 0,27,12
 366 55 366 55 388 83 c 128,-1,13
EndSplineSet
Validated: 1
EndChar

StartChar: one.lf
Encoding: 65546 -1 142
Width: 469
GlyphClass: 1
Flags: W
LayerCount: 2
Fore
SplineSet
173 598 m 1,0,1
 154 592 154 592 111 583 c 128,-1,2
 68 574 68 574 47 572 c 1,3,-1
 32 656 l 1,4,5
 90 667 90 667 154 695 c 128,-1,6
 218 723 218 723 253 753 c 1,7,-1
 254 753 l 1,8,-1
 344 743 l 1,9,-1
 344 77 l 1,10,-1
 452 65 l 1,11,-1
 452 0 l 1,12,-1
 57 0 l 1,13,-1
 57 65 l 1,14,-1
 173 76 l 1,15,-1
 173 598 l 1,0,1
EndSplineSet
Validated: 1
EndChar

StartChar: two.lf
Encoding: 65547 -1 143
Width: 600
GlyphClass: 1
Flags: W
LayerCount: 2
Fore
SplineSet
197.5 189.5 m 128,-1,1
 272 266 272 266 318 351 c 128,-1,2
 364 436 364 436 364 511 c 0,3,4
 364 574 364 574 328 606.5 c 128,-1,5
 292 639 292 639 237 639 c 0,6,7
 202 639 202 639 174.5 628 c 128,-1,8
 147 617 147 617 130 603.5 c 128,-1,9
 113 590 113 590 87 565 c 1,10,-1
 34 624 l 1,11,12
 73 677 73 677 142 714.5 c 128,-1,13
 211 752 211 752 298 752 c 0,14,15
 412 752 412 752 475 693 c 128,-1,16
 538 634 538 634 538 535 c 0,17,18
 538 465 538 465 489.5 380.5 c 128,-1,19
 441 296 441 296 361.5 218 c 128,-1,20
 282 140 282 140 192 88 c 1,21,-1
 473 114 l 1,22,-1
 513 193 l 1,23,-1
 582 179 l 1,24,-1
 555 0 l 1,25,-1
 65 0 l 1,26,-1
 41 61 l 1,27,0
 123 113 123 113 197.5 189.5 c 128,-1,1
EndSplineSet
Validated: 1
EndChar

StartChar: three.lf
Encoding: 65548 -1 144
Width: 600
GlyphClass: 1
Flags: W
LayerCount: 2
Fore
SplineSet
112 -12.5 m 128,-1,1
 73 -7 73 -7 50 0 c 1,2,-1
 50 84 l 1,3,4
 94 70 94 70 147 70 c 0,5,6
 246 70 246 70 301.5 110 c 128,-1,7
 357 150 357 150 357 218 c 0,8,9
 357 341 357 341 217 347 c 0,10,11
 198 344 198 344 159 333 c 1,12,-1
 136 400 l 1,13,14
 174 405 174 405 217 425 c 0,15,16
 331 475 331 475 329 560 c 0,17,18
 330 605 330 605 300.5 627 c 128,-1,19
 271 649 271 649 228 649 c 0,20,21
 183 649 183 649 143 634 c 128,-1,22
 103 619 103 619 79 599 c 1,23,-1
 39 669 l 1,24,25
 57 686 57 686 95.5 705.5 c 128,-1,26
 134 725 134 725 183.5 738.5 c 128,-1,27
 233 752 233 752 281 752 c 0,28,29
 380 752 380 752 442 711 c 128,-1,30
 504 670 504 670 504 588 c 0,31,32
 504 515 504 515 449 464.5 c 128,-1,33
 394 414 394 414 309 384 c 1,34,35
 320 385 320 385 341 385 c 0,36,37
 429 385 429 385 485.5 344 c 128,-1,38
 542 303 542 303 542 234 c 0,39,40
 542 163 542 163 499 105.5 c 128,-1,41
 456 48 456 48 375 15 c 128,-1,42
 294 -18 294 -18 184 -18 c 0,43,0
 151 -18 151 -18 112 -12.5 c 128,-1,1
EndSplineSet
Validated: 33
EndChar

StartChar: four.lf
Encoding: 65549 -1 145
Width: 663
GlyphClass: 1
Flags: W
LayerCount: 2
Fore
SplineSet
381 160 m 1,0,-1
 58 160 l 1,1,-1
 21 217 l 1,2,3
 78 320 78 320 155.5 482 c 128,-1,4
 233 644 233 644 276 750 c 1,5,-1
 311 750 l 1,6,-1
 444 683 l 1,7,-1
 216 310 l 1,8,-1
 157 242 l 1,9,-1
 382 256 l 1,10,-1
 396 417 l 1,11,-1
 519 426 l 1,12,-1
 519 266 l 1,13,-1
 639 273 l 1,14,-1
 639 160 l 1,15,-1
 519 160 l 1,16,-1
 519 0 l 1,17,-1
 381 0 l 1,18,-1
 381 160 l 1,0,-1
EndSplineSet
Validated: 1
EndChar

StartChar: five.lf
Encoding: 65550 -1 146
Width: 600
GlyphClass: 1
Flags: W
LayerCount: 2
Fore
SplineSet
136 61 m 0,1,2
 204 61 204 61 259 85 c 128,-1,3
 314 109 314 109 346 151.5 c 128,-1,4
 378 194 378 194 378 246 c 0,5,6
 378 315 378 315 343.5 343 c 128,-1,7
 309 371 309 371 244 371 c 0,8,9
 210 371 210 371 172 363 c 128,-1,10
 134 355 134 355 109 343 c 1,11,-1
 72 369 l 1,12,-1
 120 743 l 1,13,-1
 444 743 l 1,14,-1
 454 762 l 1,15,-1
 527 762 l 1,16,-1
 504 624 l 1,17,-1
 225 624 l 1,18,-1
 186 431 l 1,19,20
 266 471 266 471 344 471 c 0,21,22
 449 471 449 471 503.5 419.5 c 128,-1,23
 558 368 558 368 558 275 c 0,24,25
 558 184 558 184 505 118 c 128,-1,26
 452 52 452 52 359.5 17.5 c 128,-1,27
 267 -17 267 -17 149 -17 c 0,28,29
 111 -17 111 -17 79 -10 c 1,30,-1
 79 63 l 1,31,0
 117 61 117 61 136 61 c 0,1,2
EndSplineSet
Validated: 1
EndChar

StartChar: six.lf
Encoding: 65551 -1 147
Width: 661
GlyphClass: 1
Flags: W
LayerCount: 2
Fore
SplineSet
187 20.5 m 128,-1,1
 126 58 126 58 95 124 c 128,-1,2
 64 190 64 190 64 273 c 0,3,4
 64 404 64 404 127 509.5 c 128,-1,5
 190 615 190 615 287.5 678.5 c 128,-1,6
 385 742 385 742 483 752 c 1,7,-1
 516 692 l 1,8,9
 414 662 414 662 346.5 589.5 c 128,-1,10
 279 517 279 517 251 418 c 1,11,12
 308 467 308 467 399 467 c 0,13,14
 495 467 495 467 549.5 406.5 c 128,-1,15
 604 346 604 346 604 238 c 0,16,17
 604 163 604 163 573.5 105.5 c 128,-1,18
 543 48 543 48 482.5 15.5 c 128,-1,19
 422 -17 422 -17 334 -17 c 0,20,0
 248 -17 248 -17 187 20.5 c 128,-1,1
276.5 370 m 128,-1,22
 251 357 251 357 235 339 c 1,23,24
 230 304 230 304 230 272 c 0,25,26
 230 163 230 163 256.5 106.5 c 128,-1,27
 283 50 283 50 340 50 c 0,28,29
 391 50 391 50 414 89 c 128,-1,30
 437 128 437 128 437 207 c 0,31,32
 437 300 437 300 411.5 341.5 c 128,-1,33
 386 383 386 383 338 383 c 0,34,21
 302 383 302 383 276.5 370 c 128,-1,22
EndSplineSet
Validated: 1
EndChar

StartChar: seven.lf
Encoding: 65552 -1 148
Width: 600
GlyphClass: 1
Flags: W
LayerCount: 2
Fore
SplineSet
146 0 m 1,0,1
 243 206 243 206 310.5 357.5 c 128,-1,2
 378 509 378 509 428 639 c 1,3,-1
 180 632 l 1,4,-1
 127 487 l 1,5,-1
 32 506 l 1,6,-1
 59 743 l 1,7,-1
 551 743 l 1,8,-1
 581 705 l 1,9,-1
 341 0 l 1,10,-1
 146 0 l 1,0,1
EndSplineSet
Validated: 1
EndChar

StartChar: eight.lf
Encoding: 65553 -1 149
Width: 638
GlyphClass: 1
Flags: W
LayerCount: 2
Fore
SplineSet
86.5 286 m 128,-1,1
 125 335 125 335 196 361 c 1,2,3
 143 397 143 397 112.5 444 c 128,-1,4
 82 491 82 491 82 557 c 0,5,6
 82 618 82 618 114.5 662 c 128,-1,7
 147 706 147 706 203 729.5 c 128,-1,8
 259 753 259 753 328 753 c 0,9,10
 400 753 400 753 451.5 731.5 c 128,-1,11
 503 710 503 710 530 672 c 128,-1,12
 557 634 557 634 557 586 c 0,13,14
 557 531 557 531 524 486.5 c 128,-1,15
 491 442 491 442 428 413 c 1,16,17
 506 368 506 368 550 318 c 128,-1,18
 594 268 594 268 594 194 c 0,19,20
 594 132 594 132 558.5 85.5 c 128,-1,21
 523 39 523 39 459 14 c 128,-1,22
 395 -11 395 -11 313 -11 c 0,23,24
 201 -11 201 -11 124.5 37 c 128,-1,25
 48 85 48 85 48 182 c 0,26,0
 48 237 48 237 86.5 286 c 128,-1,1
244 536.5 m 128,-1,28
 263 511 263 511 292.5 491 c 128,-1,29
 322 471 322 471 372 444 c 1,30,31
 402 467 402 467 420 499 c 128,-1,32
 438 531 438 531 438 564 c 0,33,34
 438 624 438 624 409 657 c 128,-1,35
 380 690 380 690 328 690 c 0,36,37
 286 690 286 690 255.5 664.5 c 128,-1,38
 225 639 225 639 225 594 c 0,39,27
 225 562 225 562 244 536.5 c 128,-1,28
413.5 220 m 128,-1,41
 395 244 395 244 366.5 262.5 c 128,-1,42
 338 281 338 281 290 306 c 2,43,-1
 246 330 l 1,44,45
 215 309 215 309 197 276.5 c 128,-1,46
 179 244 179 244 179 206 c 0,47,48
 179 139 179 139 215.5 97.5 c 128,-1,49
 252 56 252 56 316 56 c 0,50,51
 362 56 362 56 397 86 c 128,-1,52
 432 116 432 116 432 165 c 0,53,40
 432 196 432 196 413.5 220 c 128,-1,41
EndSplineSet
Validated: 1
EndChar

StartChar: nine.lf
Encoding: 65554 -1 150
Width: 600
GlyphClass: 1
Flags: W
LayerCount: 2
Fore
SplineSet
505.5 668 m 128,-1,1
 575 583 575 583 575 443 c 0,2,3
 575 309 575 309 515.5 200.5 c 128,-1,4
 456 92 456 92 361 27 c 128,-1,5
 266 -38 266 -38 164 -48 c 1,6,-1
 132 12 l 1,7,8
 233 41 233 41 294.5 114 c 128,-1,9
 356 187 356 187 382 291 c 1,10,11
 325 242 325 242 249 242 c 0,12,13
 185 242 185 242 134.5 271.5 c 128,-1,14
 84 301 84 301 55.5 355.5 c 128,-1,15
 27 410 27 410 27 481 c 0,16,17
 27 555 27 555 59.5 617 c 128,-1,18
 92 679 92 679 154.5 716 c 128,-1,19
 217 753 217 753 304 753 c 0,20,0
 436 753 436 753 505.5 668 c 128,-1,1
356 339.5 m 128,-1,22
 384 353 384 353 399 370 c 1,23,24
 400 380 400 380 402 405.5 c 128,-1,25
 404 431 404 431 404 452 c 0,26,27
 404 567 404 567 378.5 626.5 c 128,-1,28
 353 686 353 686 295 686 c 0,29,30
 246 686 246 686 221 636.5 c 128,-1,31
 196 587 196 587 196 510 c 0,32,33
 196 415 196 415 222.5 370.5 c 128,-1,34
 249 326 249 326 296 326 c 0,35,21
 328 326 328 326 356 339.5 c 128,-1,22
EndSplineSet
Validated: 1
EndChar

StartChar: two.dnom
Encoding: 65555 -1 151
Width: 511
GlyphClass: 1
Flags: W
LayerCount: 2
Fore
SplineSet
157.5 132 m 128,-1,1
 216 182 216 182 256.5 240.5 c 128,-1,2
 297 299 297 299 297 352 c 0,3,4
 297 389 297 389 273.5 411.5 c 128,-1,5
 250 434 250 434 214 434 c 0,6,7
 175 434 175 434 147 419 c 128,-1,8
 119 404 119 404 92 382 c 1,9,-1
 48 432 l 1,10,11
 77 465 77 465 128 492.5 c 128,-1,12
 179 520 179 520 251 520 c 0,13,14
 334 520 334 520 382 478.5 c 128,-1,15
 430 437 430 437 430 365 c 0,16,17
 430 289 430 289 350 206 c 128,-1,18
 270 123 270 123 157 63 c 1,19,-1
 376 82 l 1,20,-1
 417 154 l 1,21,-1
 479 141 l 1,22,-1
 454 -8 l 1,23,-1
 69 -8 l 1,24,-1
 46 52 l 1,25,0
 99 82 99 82 157.5 132 c 128,-1,1
EndSplineSet
Validated: 1
EndChar

StartChar: three.dnom
Encoding: 65556 -1 152
Width: 492
GlyphClass: 1
Flags: W
LayerCount: 2
Fore
SplineSet
128.5 -7.5 m 128,-1,1
 83 2 83 2 60 14 c 1,2,-1
 60 84 l 1,3,4
 79 74 79 74 113.5 68.5 c 128,-1,5
 148 63 148 63 174 63 c 0,6,7
 311 63 311 63 311 149 c 0,8,9
 311 179 311 179 287.5 201.5 c 128,-1,10
 264 224 264 224 212 225 c 0,11,12
 208 224 208 224 155 208 c 1,13,-1
 135 263 l 1,14,15
 156 267 156 267 200 284 c 0,16,17
 238 298 238 298 261 319.5 c 128,-1,18
 284 341 284 341 284 374 c 0,19,20
 284 434 284 434 203 434 c 0,21,22
 172 434 172 434 138.5 423 c 128,-1,23
 105 412 105 412 85 397 c 1,24,-1
 50 454 l 1,25,26
 73 477 73 477 127.5 496.5 c 128,-1,27
 182 516 182 516 240 516 c 0,28,29
 324 516 324 516 370 482 c 128,-1,30
 416 448 416 448 416 392 c 0,31,32
 416 347 416 347 385.5 316 c 128,-1,33
 355 285 355 285 298 262 c 1,34,35
 346 263 346 263 382.5 247.5 c 128,-1,36
 419 232 419 232 439 204.5 c 128,-1,37
 459 177 459 177 459 144 c 0,38,39
 459 72 459 72 394 27.5 c 128,-1,40
 329 -17 329 -17 210 -17 c 0,41,0
 174 -17 174 -17 128.5 -7.5 c 128,-1,1
EndSplineSet
Validated: 33
EndChar

StartChar: four.dnom
Encoding: 65557 -1 153
Width: 521
GlyphClass: 1
Flags: W
LayerCount: 2
Fore
SplineSet
221 545 m 1,1,-1
 339 545 l 1,2,-1
 363 518 l 1,3,-1
 189 241 l 1,4,-1
 134 169 l 1,5,-1
 302 178 l 1,6,-1
 317 303 l 1,7,-1
 413 308 l 1,8,-1
 413 183 l 1,9,-1
 498 187 l 1,10,-1
 498 102 l 1,11,-1
 413 102 l 1,12,-1
 413 1 l 1,13,-1
 300 1 l 1,14,-1
 299 102 l 1,15,-1
 60 102 l 1,16,-1
 19 155 l 1,17,0
 52 214 52 214 221 545 c 1,1,-1
EndSplineSet
Validated: 1
EndChar

StartChar: eight.dnom
Encoding: 65558 -1 154
Width: 531
GlyphClass: 1
Flags: W
LayerCount: 2
Fore
SplineSet
159 8.5 m 128,-1,1
 109 25 109 25 78 58 c 128,-1,2
 47 91 47 91 47 139 c 0,3,4
 47 179 47 179 73 209.5 c 128,-1,5
 99 240 99 240 144 256 c 1,6,7
 108 281 108 281 88 312 c 128,-1,8
 68 343 68 343 68 386 c 0,9,10
 68 428 68 428 94.5 461 c 128,-1,11
 121 494 121 494 166.5 512.5 c 128,-1,12
 212 531 212 531 268 531 c 0,13,14
 360 531 360 531 406 493 c 128,-1,15
 452 455 452 455 452 400 c 0,16,17
 452 366 452 366 430.5 335 c 128,-1,18
 409 304 409 304 368 285 c 1,19,20
 422 258 422 258 452.5 227 c 128,-1,21
 483 196 483 196 483 149 c 0,22,23
 484 102 484 102 456 66.5 c 128,-1,24
 428 31 428 31 378 11.5 c 128,-1,25
 328 -8 328 -8 265 -8 c 0,26,0
 209 -8 209 -8 159 8.5 c 128,-1,1
218.5 357.5 m 128,-1,28
 250 336 250 336 315 308 c 1,29,30
 337 324 337 324 347.5 348.5 c 128,-1,31
 358 373 358 373 358 396 c 0,32,33
 358 431 358 431 333.5 454 c 128,-1,34
 309 477 309 477 268 477 c 0,35,36
 232 477 232 477 209.5 459.5 c 128,-1,37
 187 442 187 442 187 414 c 0,38,27
 187 379 187 379 218.5 357.5 c 128,-1,28
322.5 164 m 128,-1,40
 296 183 296 183 239 208 c 0,41,42
 199 226 199 226 190 230 c 1,43,44
 172 217 172 217 162 197.5 c 128,-1,45
 152 178 152 178 152 155 c 0,46,47
 152 109 152 109 181 79 c 128,-1,48
 210 49 210 49 261 49 c 0,49,50
 296 49 296 49 322.5 68 c 128,-1,51
 349 87 349 87 349 116 c 256,52,39
 349 145 349 145 322.5 164 c 128,-1,40
EndSplineSet
Validated: 33
EndChar

StartChar: one.numr
Encoding: 65559 -1 155
Width: 494
GlyphClass: 1
Flags: W
LayerCount: 2
Fore
SplineSet
197 652 m 1,0,1
 172 644 172 644 139.5 637.5 c 128,-1,2
 107 631 107 631 79 626 c 1,3,-1
 57 697 l 1,4,5
 114 713 114 713 162 732.5 c 128,-1,6
 210 752 210 752 249 783 c 1,7,-1
 251 783 l 1,8,-1
 327 769 l 1,9,-1
 327 336 l 1,10,-1
 444 324 l 1,11,-1
 444 258 l 1,12,-1
 69 258 l 1,13,-1
 69 324 l 1,14,-1
 197 335 l 1,15,-1
 197 652 l 1,0,1
EndSplineSet
Validated: 1
EndChar

StartChar: two.numr
Encoding: 65560 -1 156
Width: 511
GlyphClass: 1
Flags: W
LayerCount: 2
Fore
SplineSet
157.5 398 m 128,-1,1
 216 448 216 448 256.5 506.5 c 128,-1,2
 297 565 297 565 297 618 c 0,3,4
 297 655 297 655 273.5 677.5 c 128,-1,5
 250 700 250 700 214 700 c 0,6,7
 175 700 175 700 147 685 c 128,-1,8
 119 670 119 670 92 648 c 1,9,-1
 48 698 l 1,10,11
 77 731 77 731 128 758.5 c 128,-1,12
 179 786 179 786 251 786 c 0,13,14
 334 786 334 786 382 744.5 c 128,-1,15
 430 703 430 703 430 631 c 0,16,17
 430 555 430 555 350 472 c 128,-1,18
 270 389 270 389 157 329 c 1,19,-1
 376 348 l 1,20,-1
 417 420 l 1,21,-1
 479 407 l 1,22,-1
 454 258 l 1,23,-1
 69 258 l 1,24,-1
 46 318 l 1,25,0
 99 348 99 348 157.5 398 c 128,-1,1
EndSplineSet
Validated: 1
EndChar

StartChar: three.numr
Encoding: 65561 -1 157
Width: 492
GlyphClass: 1
Flags: W
LayerCount: 2
Fore
SplineSet
128.5 263.5 m 128,-1,1
 83 273 83 273 60 285 c 1,2,-1
 60 355 l 1,3,4
 79 345 79 345 113.5 339.5 c 128,-1,5
 148 334 148 334 174 334 c 0,6,7
 311 334 311 334 311 420 c 0,8,9
 311 450 311 450 287.5 472.5 c 128,-1,10
 264 495 264 495 212 496 c 0,11,12
 208 495 208 495 155 479 c 1,13,-1
 135 534 l 1,14,15
 156 538 156 538 200 555 c 0,16,17
 238 569 238 569 261 590.5 c 128,-1,18
 284 612 284 612 284 645 c 0,19,20
 284 705 284 705 203 705 c 0,21,22
 172 705 172 705 138.5 694 c 128,-1,23
 105 683 105 683 85 668 c 1,24,-1
 50 725 l 1,25,26
 73 748 73 748 127.5 767.5 c 128,-1,27
 182 787 182 787 240 787 c 0,28,29
 324 787 324 787 370 753 c 128,-1,30
 416 719 416 719 416 663 c 0,31,32
 416 618 416 618 385.5 587 c 128,-1,33
 355 556 355 556 298 533 c 1,34,35
 346 534 346 534 382.5 518.5 c 128,-1,36
 419 503 419 503 439 475.5 c 128,-1,37
 459 448 459 448 459 415 c 0,38,39
 459 343 459 343 394 298.5 c 128,-1,40
 329 254 329 254 210 254 c 0,41,0
 174 254 174 254 128.5 263.5 c 128,-1,1
EndSplineSet
Validated: 33
EndChar

StartChar: four.numr
Encoding: 65562 -1 158
Width: 509
GlyphClass: 1
Flags: W
LayerCount: 2
Fore
SplineSet
104 591 m 128,-1,1
 162 714 162 714 191 783 c 1,2,-1
 317 783 l 1,3,-1
 340 756 l 1,4,-1
 194 515 l 1,5,-1
 139 444 l 1,6,-1
 294 452 l 1,7,-1
 310 577 l 1,8,-1
 406 582 l 1,9,-1
 406 457 l 1,10,-1
 491 462 l 1,11,-1
 491 376 l 1,12,-1
 406 376 l 1,13,-1
 406 258 l 1,14,-1
 293 258 l 1,15,-1
 292 376 l 1,16,-1
 65 376 l 1,17,-1
 24 429 l 1,18,0
 46 468 46 468 104 591 c 128,-1,1
EndSplineSet
Validated: 1
EndChar

StartChar: five.numr
Encoding: 65563 -1 159
Width: 477
GlyphClass: 1
Flags: W
LayerCount: 2
Fore
SplineSet
103.5 320.5 m 128,-1,1
 125 318 125 318 140 318 c 0,2,3
 215 318 215 318 255 347 c 128,-1,4
 295 376 295 376 295 429 c 0,5,6
 295 468 295 468 271 490.5 c 128,-1,7
 247 513 247 513 201 513 c 0,8,9
 171 513 171 513 142.5 504 c 128,-1,10
 114 495 114 495 100 486 c 1,11,-1
 58 514 l 1,12,-1
 84 783 l 1,13,-1
 415 783 l 1,14,-1
 409 688 l 1,15,-1
 168 688 l 1,16,-1
 147 558 l 1,17,18
 167 569 167 569 201.5 579 c 128,-1,19
 236 589 236 589 272 589 c 0,20,21
 357 589 357 589 396.5 549 c 128,-1,22
 436 509 436 509 436 442 c 0,23,24
 436 354 436 354 362.5 304 c 128,-1,25
 289 254 289 254 159 254 c 0,26,27
 101 254 101 254 66 265 c 1,28,-1
 72 326 l 1,29,0
 82 323 82 323 103.5 320.5 c 128,-1,1
EndSplineSet
Validated: 1
EndChar

StartChar: seven.numr
Encoding: 65564 -1 160
Width: 473
GlyphClass: 1
Flags: W
LayerCount: 2
Fore
SplineSet
345 707 m 1,1,-1
 155 704 l 1,2,-1
 115 593 l 1,3,-1
 33 605 l 1,4,-1
 59 783 l 1,5,-1
 431 783 l 1,6,-1
 458 749 l 1,7,-1
 301 258 l 1,8,-1
 138 258 l 1,9,0
 204 377 204 377 345 707 c 1,1,-1
EndSplineSet
Validated: 1
EndChar

StartChar: fraction
Encoding: 8260 8260 165
Width: 194
GlyphClass: 1
Flags: W
LayerCount: 2
Fore
SplineSet
316 803 m 1,0,-1
 -26 -94 l 1,1,-1
 -122 -90 l 1,2,-1
 219 808 l 1,3,-1
 316 803 l 1,0,-1
EndSplineSet
Validated: 1
EndChar

StartChar: asterisk
Encoding: 42 42 175
Width: 668
GlyphClass: 1
Flags: W
LayerCount: 2
Fore
SplineSet
290 576 m 1,0,-1
 153 615 l 1,1,-1
 63 657 l 1,2,-1
 125 765 l 1,3,-1
 208 707 l 1,4,-1
 312 611 l 1,5,-1
 275 744 l 1,6,-1
 264 848 l 1,7,-1
 395 848 l 1,8,-1
 387 746 l 1,9,-1
 356 614 l 1,10,-1
 457 709 l 1,11,-1
 540 768 l 1,12,-1
 605 661 l 1,13,-1
 518 616 l 1,14,-1
 378 576 l 1,15,-1
 518 539 l 1,16,-1
 607 497 l 1,17,-1
 541 386 l 1,18,-1
 463 443 l 1,19,-1
 356 538 l 1,20,-1
 393 405 l 1,21,-1
 403 302 l 1,22,-1
 273 302 l 1,23,-1
 281 405 l 1,24,-1
 312 540 l 1,25,-1
 210 442 l 1,26,-1
 129 382 l 1,27,-1
 64 490 l 1,28,-1
 153 535 l 1,29,-1
 290 576 l 1,0,-1
EndSplineSet
Validated: 1
EndChar

StartChar: backslash
Encoding: 92 92 176
Width: 431
GlyphClass: 1
Flags: W
LayerCount: 2
Fore
SplineSet
270 -177 m 1,0,-1
 16 781 l 1,1,-1
 127 781 l 1,2,-1
 382 -177 l 1,3,-1
 270 -177 l 1,0,-1
EndSplineSet
Validated: 1
EndChar

StartChar: periodcentered
Encoding: 183 183 177
Width: 241
GlyphClass: 1
Flags: W
LayerCount: 2
Fore
SplineSet
51.5 323 m 128,-1,1
 26 347 26 347 26 383 c 0,2,3
 26 423 26 423 55 448.5 c 128,-1,4
 84 474 84 474 127 474 c 0,5,6
 167 474 167 474 191 449 c 128,-1,7
 215 424 215 424 215 390 c 0,8,9
 215 347 215 347 186.5 323 c 128,-1,10
 158 299 158 299 111 299 c 0,11,0
 77 299 77 299 51.5 323 c 128,-1,1
EndSplineSet
Validated: 1
EndChar

StartChar: bullet
Encoding: 8226 8226 178
Width: 425
GlyphClass: 1
Flags: W
LayerCount: 2
Fore
SplineSet
122.5 244.5 m 128,-1,1
 88 281 88 281 87 333 c 0,2,3
 87 369 87 369 105.5 397.5 c 128,-1,4
 124 426 124 426 154.5 442.5 c 128,-1,5
 185 459 185 459 219 459 c 0,6,7
 270 459 270 459 304 423.5 c 128,-1,8
 338 388 338 388 338 333 c 0,9,10
 338 299 338 299 319.5 270 c 128,-1,11
 301 241 301 241 270.5 224.5 c 128,-1,12
 240 208 240 208 207 208 c 0,13,0
 157 208 157 208 122.5 244.5 c 128,-1,1
EndSplineSet
Validated: 1
EndChar

StartChar: colon
Encoding: 58 58 179
Width: 340
GlyphClass: 1
Flags: W
LayerCount: 2
Fore
SplineSet
100.5 420.5 m 128,-1,1
 75 444 75 444 75 480 c 0,2,3
 75 520 75 520 104 545.5 c 128,-1,4
 133 571 133 571 176 571 c 0,5,6
 216 571 216 571 240 546 c 128,-1,7
 264 521 264 521 264 487 c 0,8,9
 264 445 264 445 235.5 421 c 128,-1,10
 207 397 207 397 160 397 c 0,11,0
 126 397 126 397 100.5 420.5 c 128,-1,1
100.5 16 m 128,-1,13
 75 40 75 40 75 75 c 0,14,15
 75 115 75 115 104 140.5 c 128,-1,16
 133 166 133 166 176 166 c 0,17,18
 216 166 216 166 240 141 c 128,-1,19
 264 116 264 116 264 82 c 0,20,21
 264 40 264 40 235.5 16 c 128,-1,22
 207 -8 207 -8 160 -8 c 0,23,12
 126 -8 126 -8 100.5 16 c 128,-1,13
EndSplineSet
Validated: 1
EndChar

StartChar: comma
Encoding: 44 44 180
Width: 334
GlyphClass: 1
Flags: W
LayerCount: 2
Fore
SplineSet
220.5 160.5 m 128,-1,1
 243 142 243 142 256.5 110.5 c 128,-1,2
 270 79 270 79 270 41 c 0,3,4
 270 -21 270 -21 247.5 -83 c 128,-1,5
 225 -145 225 -145 192.5 -190 c 128,-1,6
 160 -235 160 -235 131 -249 c 1,7,-1
 130 -249 l 1,8,-1
 82 -217 l 1,9,-1
 82 -201 l 1,10,11
 106 -181 106 -181 124 -126.5 c 128,-1,12
 142 -72 142 -72 142 -25 c 0,13,14
 142 -9 142 -9 135.5 2 c 128,-1,15
 129 13 129 13 116 26 c 0,16,17
 100 42 100 42 91 58.5 c 128,-1,18
 82 75 82 75 82 102 c 0,19,20
 82 137 82 137 105.5 158 c 128,-1,21
 129 179 129 179 166 179 c 2,22,-1
 172 179 l 2,23,0
 198 179 198 179 220.5 160.5 c 128,-1,1
EndSplineSet
Validated: 1
EndChar

StartChar: ellipsis
Encoding: 8230 8230 181
Width: 929
GlyphClass: 1
Flags: W
LayerCount: 2
Fore
SplineSet
86 16 m 128,-1,1
 60 40 60 40 60 75 c 0,2,3
 60 115 60 115 89.5 140.5 c 128,-1,4
 119 166 119 166 161 166 c 0,5,6
 201 166 201 166 225 141 c 128,-1,7
 249 116 249 116 249 82 c 0,8,9
 249 40 249 40 220.5 16 c 128,-1,10
 192 -8 192 -8 146 -8 c 0,11,0
 112 -8 112 -8 86 16 c 128,-1,1
395.5 16 m 128,-1,13
 370 40 370 40 370 75 c 0,14,15
 370 115 370 115 399 140.5 c 128,-1,16
 428 166 428 166 470 166 c 0,17,18
 510 166 510 166 534 141 c 128,-1,19
 558 116 558 116 558 82 c 0,20,21
 558 40 558 40 529.5 16 c 128,-1,22
 501 -8 501 -8 455 -8 c 0,23,12
 421 -8 421 -8 395.5 16 c 128,-1,13
705 16 m 128,-1,25
 679 40 679 40 679 75 c 0,26,27
 679 115 679 115 708 140.5 c 128,-1,28
 737 166 737 166 780 166 c 0,29,30
 820 166 820 166 844 141 c 128,-1,31
 868 116 868 116 868 82 c 0,32,33
 868 40 868 40 839.5 16 c 128,-1,34
 811 -8 811 -8 764 -8 c 0,35,24
 731 -8 731 -8 705 16 c 128,-1,25
EndSplineSet
Validated: 1
EndChar

StartChar: exclam
Encoding: 33 33 182
Width: 351
GlyphClass: 1
Flags: W
LayerCount: 2
Fore
SplineSet
222 258 m 1,0,-1
 124 258 l 1,1,-1
 80 886 l 1,2,-1
 265 886 l 1,3,-1
 222 258 l 1,0,-1
112.5 139.5 m 128,-1,5
 142 165 142 165 183 165 c 256,6,7
 224 165 224 165 248 140.5 c 128,-1,8
 272 116 272 116 272 82 c 0,9,10
 272 40 272 40 243.5 16 c 128,-1,11
 215 -8 215 -8 168 -8 c 0,12,13
 135 -8 135 -8 109 15.5 c 128,-1,14
 83 39 83 39 83 74 c 0,15,4
 83 114 83 114 112.5 139.5 c 128,-1,5
EndSplineSet
Validated: 1
EndChar

StartChar: exclamdown
Encoding: 161 161 183
Width: 351
GlyphClass: 1
Flags: W
LayerCount: 2
Fore
SplineSet
237 551.5 m 128,-1,1
 208 526 208 526 166 526 c 0,2,3
 126 526 126 526 101.5 551 c 128,-1,4
 77 576 77 576 77 609 c 0,5,6
 77 651 77 651 105.5 675 c 128,-1,7
 134 699 134 699 181 699 c 0,8,9
 214 699 214 699 240 675.5 c 128,-1,10
 266 652 266 652 266 617 c 0,11,0
 266 577 266 577 237 551.5 c 128,-1,1
124 433 m 1,12,-1
 229 433 l 1,13,-1
 272 -188 l 1,14,-1
 84 -188 l 1,15,-1
 124 433 l 1,12,-1
EndSplineSet
Validated: 1
EndChar

StartChar: numbersign
Encoding: 35 35 184
Width: 744
GlyphClass: 1
Flags: W
LayerCount: 2
Fore
SplineSet
65 284 m 1,0,-1
 187 284 l 1,1,-1
 204 453 l 1,2,-1
 90 453 l 1,3,-1
 90 536 l 1,4,-1
 219 536 l 1,5,-1
 243 743 l 1,6,-1
 365 743 l 1,7,-1
 341 536 l 1,8,-1
 479 536 l 1,9,-1
 503 743 l 1,10,-1
 626 743 l 1,11,-1
 601 536 l 1,12,-1
 711 536 l 1,13,-1
 711 453 l 1,14,-1
 587 453 l 1,15,-1
 571 284 l 1,16,-1
 689 284 l 1,17,-1
 690 201 l 1,18,-1
 558 201 l 1,19,-1
 536 0 l 1,20,-1
 414 0 l 1,21,-1
 435 201 l 1,22,-1
 296 201 l 1,23,-1
 274 0 l 1,24,-1
 150 0 l 1,25,-1
 174 201 l 1,26,-1
 66 201 l 1,27,-1
 65 284 l 1,0,-1
326 453 m 1,28,-1
 309 284 l 1,29,-1
 445 284 l 1,30,-1
 465 453 l 1,31,-1
 326 453 l 1,28,-1
EndSplineSet
Validated: 1
EndChar

StartChar: period
Encoding: 46 46 185
Width: 311
GlyphClass: 1
Flags: W
LayerCount: 2
Fore
SplineSet
86.5 16 m 128,-1,1
 61 40 61 40 61 75 c 0,2,3
 61 115 61 115 90 140.5 c 128,-1,4
 119 166 119 166 162 166 c 0,5,6
 201 166 201 166 225 141 c 128,-1,7
 249 116 249 116 249 82 c 0,8,9
 249 40 249 40 221 16 c 128,-1,10
 193 -8 193 -8 146 -8 c 0,11,0
 112 -8 112 -8 86.5 16 c 128,-1,1
EndSplineSet
Validated: 1
EndChar

StartChar: question
Encoding: 63 63 186
Width: 514
GlyphClass: 1
Flags: W
LayerCount: 2
Fore
SplineSet
132 393 m 0,1,2
 132 439 132 439 174.5 483.5 c 128,-1,3
 217 528 217 528 308 574 c 0,4,5
 309 575 309 575 319 596 c 128,-1,6
 329 617 329 617 329 657 c 0,7,8
 329 696 329 696 308.5 730.5 c 128,-1,9
 288 765 288 765 244.5 786.5 c 128,-1,10
 201 808 201 808 137 808 c 0,11,12
 97 808 97 808 61 789 c 1,13,-1
 38 878 l 1,14,15
 60 890 60 890 102 899 c 128,-1,16
 144 908 144 908 201 908 c 0,17,18
 301 908 301 908 366 875.5 c 128,-1,19
 431 843 431 843 461.5 789.5 c 128,-1,20
 492 736 492 736 492 672 c 0,21,22
 492 621 492 621 472 585.5 c 128,-1,23
 452 550 452 550 424.5 528.5 c 128,-1,24
 397 507 397 507 352 480 c 0,25,26
 319 460 319 460 302 448 c 128,-1,27
 285 436 285 436 274 421 c 0,28,29
 267 407 267 407 268 389 c 0,30,31
 268 311 268 311 278 261 c 1,32,-1
 181 261 l 1,33,0
 134 335 134 335 132 393 c 0,1,2
159 15.5 m 128,-1,35
 133 39 133 39 133 74 c 0,36,37
 133 114 133 114 162.5 139.5 c 128,-1,38
 192 165 192 165 233 165 c 256,39,40
 274 165 274 165 298 140.5 c 128,-1,41
 322 116 322 116 322 82 c 0,42,43
 322 40 322 40 293.5 16 c 128,-1,44
 265 -8 265 -8 218 -8 c 0,45,34
 185 -8 185 -8 159 15.5 c 128,-1,35
EndSplineSet
Validated: 33
EndChar

StartChar: questiondown
Encoding: 191 191 187
Width: 514
GlyphClass: 1
Flags: W
LayerCount: 2
Fore
SplineSet
354.5 678.5 m 128,-1,1
 380 655 380 655 380 619 c 0,2,3
 380 579 380 579 351 554 c 128,-1,4
 322 529 322 529 280 529 c 0,5,6
 240 529 240 529 215.5 553.5 c 128,-1,7
 191 578 191 578 191 612 c 0,8,9
 191 654 191 654 220 678 c 128,-1,10
 249 702 249 702 295 702 c 0,11,0
 329 702 329 702 354.5 678.5 c 128,-1,1
365.5 369.5 m 128,-1,13
 380 335 380 335 382 301 c 0,14,15
 382 255 382 255 339.5 210 c 128,-1,16
 297 165 297 165 206 119 c 0,17,18
 205 118 205 118 195 97 c 128,-1,19
 185 76 185 76 185 37 c 256,20,21
 185 -2 185 -2 205.5 -36.5 c 128,-1,22
 226 -71 226 -71 269 -92.5 c 128,-1,23
 312 -114 312 -114 377 -114 c 0,24,25
 417 -114 417 -114 453 -95 c 1,26,-1
 476 -184 l 1,27,28
 453 -196 453 -196 411 -205 c 128,-1,29
 369 -214 369 -214 312 -214 c 0,30,31
 213 -214 213 -214 148 -181.5 c 128,-1,32
 83 -149 83 -149 52.5 -95.5 c 128,-1,33
 22 -42 22 -42 22 22 c 0,34,35
 22 73 22 73 42 108.5 c 128,-1,36
 62 144 62 144 89.5 166 c 128,-1,37
 117 188 117 188 161 213 c 0,38,39
 191 231 191 231 209.5 244 c 128,-1,40
 228 257 228 257 239 273 c 0,41,42
 247 285 247 285 246 305 c 0,43,44
 246 377 246 377 236 432 c 1,45,-1
 333 432 l 1,46,12
 351 404 351 404 365.5 369.5 c 128,-1,13
EndSplineSet
Validated: 33
EndChar

StartChar: quotedbl
Encoding: 34 34 188
Width: 645
GlyphClass: 1
Flags: W
LayerCount: 2
Fore
SplineSet
232 423 m 1,0,-1
 134 423 l 1,1,-1
 110 841 l 1,2,-1
 257 841 l 1,3,-1
 232 423 l 1,0,-1
510 423 m 1,4,-1
 412 423 l 1,5,-1
 388 841 l 1,6,-1
 535 841 l 1,7,-1
 510 423 l 1,4,-1
EndSplineSet
Validated: 1
EndChar

StartChar: quotesingle
Encoding: 39 39 189
Width: 367
GlyphClass: 1
Flags: W
LayerCount: 2
Fore
SplineSet
232 423 m 1,0,-1
 134 423 l 1,1,-1
 110 841 l 1,2,-1
 257 841 l 1,3,-1
 232 423 l 1,0,-1
EndSplineSet
Validated: 1
EndChar

StartChar: semicolon
Encoding: 59 59 190
Width: 340
GlyphClass: 1
Flags: W
LayerCount: 2
Fore
SplineSet
101.5 420.5 m 128,-1,1
 76 444 76 444 76 480 c 0,2,3
 76 520 76 520 105 545.5 c 128,-1,4
 134 571 134 571 176 571 c 0,5,6
 216 571 216 571 240 546 c 128,-1,7
 264 521 264 521 264 487 c 0,8,9
 264 445 264 445 235.5 421 c 128,-1,10
 207 397 207 397 161 397 c 0,11,0
 127 397 127 397 101.5 420.5 c 128,-1,1
220.5 160.5 m 128,-1,13
 243 142 243 142 256.5 110.5 c 128,-1,14
 270 79 270 79 270 41 c 0,15,16
 270 -21 270 -21 247.5 -83 c 128,-1,17
 225 -145 225 -145 192.5 -190 c 128,-1,18
 160 -235 160 -235 131 -249 c 1,19,-1
 130 -249 l 1,20,-1
 82 -217 l 1,21,-1
 82 -201 l 1,22,23
 106 -181 106 -181 124 -126.5 c 128,-1,24
 142 -72 142 -72 142 -25 c 0,25,26
 142 -9 142 -9 135.5 2 c 128,-1,27
 129 13 129 13 116 26 c 0,28,29
 100 42 100 42 91 58.5 c 128,-1,30
 82 75 82 75 82 102 c 0,31,32
 82 137 82 137 105.5 158 c 128,-1,33
 129 179 129 179 166 179 c 2,34,-1
 172 179 l 2,35,12
 198 179 198 179 220.5 160.5 c 128,-1,13
EndSplineSet
Validated: 1
EndChar

StartChar: slash
Encoding: 47 47 191
Width: 431
GlyphClass: 1
Flags: W
LayerCount: 2
Fore
SplineSet
144 -177 m 1,0,-1
 32 -177 l 1,1,-1
 287 781 l 1,2,-1
 398 781 l 1,3,-1
 144 -177 l 1,0,-1
EndSplineSet
Validated: 1
EndChar

StartChar: underscore
Encoding: 95 95 192
Width: 835
GlyphClass: 1
Flags: W
LayerCount: 2
Fore
SplineSet
-10 -198 m 1,0,-1
 -10 -122 l 1,1,-1
 845 -122 l 1,2,-1
 845 -198 l 1,3,-1
 -10 -198 l 1,0,-1
EndSplineSet
Validated: 1
EndChar

StartChar: braceleft
Encoding: 123 123 193
Width: 525
GlyphClass: 1
Flags: W
LayerCount: 2
Fore
SplineSet
179 -107 m 128,-1,1
 137 -73 137 -73 137 -7 c 0,2,3
 137 23 137 23 145 49 c 128,-1,4
 153 75 153 75 170 112 c 0,5,6
 185 144 185 144 193 168.5 c 128,-1,7
 201 193 201 193 201 221 c 0,8,9
 201 247 201 247 193.5 262.5 c 128,-1,10
 186 278 186 278 158.5 287.5 c 128,-1,11
 131 297 131 297 74 297 c 1,12,-1
 74 381 l 1,13,14
 132 381 132 381 159.5 387.5 c 128,-1,15
 187 394 187 394 194 407 c 128,-1,16
 201 420 201 420 201 445 c 0,17,18
 201 473 201 473 193 497 c 128,-1,19
 185 521 185 521 170 555 c 0,20,21
 153 594 153 594 145 619.5 c 128,-1,22
 137 645 137 645 137 676 c 0,23,24
 137 742 137 742 179 776 c 128,-1,25
 221 810 221 810 315 810 c 0,26,27
 346 810 346 810 373.5 805.5 c 128,-1,28
 401 801 401 801 425 795.5 c 128,-1,29
 449 790 449 790 458 788 c 1,30,-1
 458 727 l 1,31,32
 438 728 438 728 385 728 c 0,33,34
 343 728 343 728 318 712 c 128,-1,35
 293 696 293 696 293 653 c 0,36,37
 293 635 293 635 298 615 c 128,-1,38
 303 595 303 595 313 561 c 0,39,40
 325 522 325 522 330.5 497.5 c 128,-1,41
 336 473 336 473 336 449 c 0,42,43
 336 400 336 400 294 372.5 c 128,-1,44
 252 345 252 345 185 336 c 1,45,46
 251 327 251 327 293.5 297.5 c 128,-1,47
 336 268 336 268 336 219 c 0,48,49
 336 196 336 196 330.5 172.5 c 128,-1,50
 325 149 325 149 313 109 c 0,51,52
 305 85 305 85 299 60.5 c 128,-1,53
 293 36 293 36 293 19 c 0,54,55
 293 -25 293 -25 318 -41 c 128,-1,56
 343 -57 343 -57 385 -57 c 0,57,58
 438 -57 438 -57 458 -56 c 1,59,-1
 458 -119 l 1,60,61
 449 -121 449 -121 420.5 -127.5 c 128,-1,62
 392 -134 392 -134 366 -137.5 c 128,-1,63
 340 -141 340 -141 315 -141 c 0,64,0
 221 -141 221 -141 179 -107 c 128,-1,1
EndSplineSet
Validated: 1
EndChar

StartChar: braceright
Encoding: 125 125 194
Width: 525
GlyphClass: 1
Flags: W
LayerCount: 2
Fore
SplineSet
152 -136.5 m 128,-1,1
 124 -132 124 -132 99.5 -126.5 c 128,-1,2
 75 -121 75 -121 67 -119 c 1,3,-1
 67 -56 l 1,4,5
 87 -57 87 -57 140 -57 c 0,6,7
 182 -57 182 -57 207 -41 c 128,-1,8
 232 -25 232 -25 232 19 c 0,9,10
 232 37 232 37 227 57.5 c 128,-1,11
 222 78 222 78 213 109 c 0,12,13
 201 149 201 149 195.5 172.5 c 128,-1,14
 190 196 190 196 190 219 c 0,15,16
 190 268 190 268 232 297.5 c 128,-1,17
 274 327 274 327 340 336 c 1,18,19
 273 345 273 345 231.5 372.5 c 128,-1,20
 190 400 190 400 190 449 c 0,21,22
 190 473 190 473 195.5 497.5 c 128,-1,23
 201 522 201 522 213 561 c 0,24,25
 215 567 215 567 220.5 587.5 c 128,-1,26
 226 608 226 608 229 624.5 c 128,-1,27
 232 641 232 641 232 653 c 0,28,29
 232 696 232 696 207 712 c 128,-1,30
 182 728 182 728 140 728 c 0,31,32
 87 728 87 728 67 727 c 1,33,-1
 67 788 l 1,34,35
 75 790 75 790 104 796.5 c 128,-1,36
 133 803 133 803 159.5 806.5 c 128,-1,37
 186 810 186 810 211 810 c 0,38,39
 304 810 304 810 346 776 c 128,-1,40
 388 742 388 742 388 676 c 0,41,42
 388 645 388 645 380 619 c 128,-1,43
 372 593 372 593 355 556 c 0,44,45
 340 522 340 522 332 498 c 128,-1,46
 324 474 324 474 324 446 c 0,47,48
 324 422 324 422 331.5 409 c 128,-1,49
 339 396 339 396 366 389 c 128,-1,50
 393 382 393 382 451 382 c 1,51,-1
 451 296 l 1,52,53
 394 296 394 296 366.5 286.5 c 128,-1,54
 339 277 339 277 331.5 261.5 c 128,-1,55
 324 246 324 246 324 220 c 0,56,57
 324 192 324 192 332 167.5 c 128,-1,58
 340 143 340 143 355 111 c 0,59,60
 371 75 371 75 379.5 49.5 c 128,-1,61
 388 24 388 24 388 -7 c 0,62,63
 388 -73 388 -73 346 -107 c 128,-1,64
 304 -141 304 -141 211 -141 c 0,65,0
 180 -141 180 -141 152 -136.5 c 128,-1,1
EndSplineSet
Validated: 1
EndChar

StartChar: bracketleft
Encoding: 91 91 195
Width: 432
GlyphClass: 1
Flags: W
LayerCount: 2
Fore
SplineSet
101.5 764.5 m 128,-1,1
 116 788 116 788 142.5 796 c 128,-1,2
 169 804 169 804 212 804 c 0,3,4
 276 804 276 804 356 784 c 1,5,-1
 356 729 l 1,6,-1
 229 729 l 1,7,-1
 229 -61 l 1,8,-1
 356 -61 l 1,9,-1
 356 -117 l 1,10,11
 281 -137 281 -137 212 -137 c 0,12,13
 169 -137 169 -137 142.5 -129 c 128,-1,14
 116 -121 116 -121 101.5 -97.5 c 128,-1,15
 87 -74 87 -74 87 -29 c 2,16,-1
 87 696 l 2,17,0
 87 741 87 741 101.5 764.5 c 128,-1,1
EndSplineSet
Validated: 1
EndChar

StartChar: bracketright
Encoding: 93 93 196
Width: 432
GlyphClass: 1
Flags: W
LayerCount: 2
Fore
SplineSet
330.5 -97.5 m 128,-1,1
 316 -121 316 -121 289.5 -129 c 128,-1,2
 263 -137 263 -137 220 -137 c 0,3,4
 151 -137 151 -137 76 -117 c 1,5,-1
 76 -61 l 1,6,-1
 203 -61 l 1,7,-1
 203 729 l 1,8,-1
 76 729 l 1,9,-1
 76 784 l 1,10,11
 156 804 156 804 220 804 c 0,12,13
 263 804 263 804 289.5 796 c 128,-1,14
 316 788 316 788 330.5 764.5 c 128,-1,15
 345 741 345 741 345 696 c 2,16,-1
 345 -29 l 2,17,0
 345 -74 345 -74 330.5 -97.5 c 128,-1,1
EndSplineSet
Validated: 1
EndChar

StartChar: parenleft
Encoding: 40 40 197
Width: 448
GlyphClass: 1
Flags: W
LayerCount: 2
Fore
SplineSet
103 581.5 m 128,-1,1
 154 688 154 688 215.5 749 c 128,-1,2
 277 810 277 810 321 835 c 1,3,-1
 378 790 l 1,4,5
 347 771 347 771 305.5 713.5 c 128,-1,6
 264 656 264 656 232 556 c 128,-1,7
 200 456 200 456 200 322 c 0,8,9
 200 193 200 193 231 93.5 c 128,-1,10
 262 -6 262 -6 303.5 -66 c 128,-1,11
 345 -126 345 -126 377 -148 c 1,12,-1
 321 -191 l 1,13,14
 231 -137 231 -137 141.5 -17.5 c 128,-1,15
 52 102 52 102 52 334 c 0,16,0
 52 475 52 475 103 581.5 c 128,-1,1
EndSplineSet
Validated: 1
EndChar

StartChar: parenright
Encoding: 41 41 198
Width: 448
GlyphClass: 1
Flags: W
LayerCount: 2
Fore
SplineSet
345.5 63.5 m 128,-1,1
 294 -43 294 -43 232.5 -104 c 128,-1,2
 171 -165 171 -165 127 -190 c 1,3,-1
 70 -145 l 1,4,5
 101 -126 101 -126 142.5 -68.5 c 128,-1,6
 184 -11 184 -11 216 89 c 128,-1,7
 248 189 248 189 248 323 c 0,8,9
 248 452 248 452 217 551.5 c 128,-1,10
 186 651 186 651 144.5 711 c 128,-1,11
 103 771 103 771 71 793 c 1,12,-1
 127 836 l 1,13,14
 217 782 217 782 307 662.5 c 128,-1,15
 397 543 397 543 397 311 c 0,16,0
 397 170 397 170 345.5 63.5 c 128,-1,1
EndSplineSet
Validated: 1
EndChar

StartChar: emdash
Encoding: 8212 8212 199
Width: 1214
GlyphClass: 1
Flags: W
LayerCount: 2
Fore
SplineSet
1102 266 m 1,0,-1
 112 266 l 1,1,-1
 112 372 l 1,2,-1
 1102 372 l 1,3,-1
 1102 266 l 1,0,-1
EndSplineSet
Validated: 1
EndChar

StartChar: endash
Encoding: 8211 8211 200
Width: 818
GlyphClass: 1
Flags: W
LayerCount: 2
Fore
SplineSet
705 266 m 1,0,-1
 112 266 l 1,1,-1
 112 372 l 1,2,-1
 705 372 l 1,3,-1
 705 266 l 1,0,-1
EndSplineSet
Validated: 1
EndChar

StartChar: hyphen
Encoding: 45 45 201
Width: 632
GlyphClass: 1
Flags: W
LayerCount: 2
Fore
SplineSet
520 267 m 1,0,-1
 112 267 l 1,1,-1
 112 372 l 1,2,-1
 520 372 l 1,3,-1
 520 267 l 1,0,-1
EndSplineSet
Validated: 1
EndChar

StartChar: uni00AD
Encoding: 173 173 202
Width: 632
GlyphClass: 1
Flags: W
LayerCount: 2
Fore
SplineSet
520 267 m 1,0,-1
 112 267 l 1,1,-1
 112 372 l 1,2,-1
 520 372 l 1,3,-1
 520 267 l 1,0,-1
EndSplineSet
Validated: 1
EndChar

StartChar: guillemotleft
Encoding: 171 171 203
Width: 697
GlyphClass: 1
Flags: W
LayerCount: 2
Fore
SplineSet
342 534 m 1,0,-1
 208 298 l 1,1,-1
 342 69 l 1,2,-1
 279 40 l 1,3,-1
 56 260 l 1,4,-1
 56 336 l 1,5,-1
 279 561 l 1,6,-1
 342 534 l 1,0,-1
631 534 m 1,7,-1
 482 298 l 1,8,-1
 631 69 l 1,9,-1
 567 40 l 1,10,-1
 331 260 l 1,11,-1
 331 336 l 1,12,-1
 567 561 l 1,13,-1
 631 534 l 1,7,-1
EndSplineSet
Validated: 1
EndChar

StartChar: guillemotright
Encoding: 187 187 204
Width: 697
GlyphClass: 1
Flags: W
LayerCount: 2
Fore
SplineSet
366 336 m 1,0,-1
 366 260 l 1,1,-1
 129 40 l 1,2,-1
 66 69 l 1,3,-1
 214 298 l 1,4,-1
 66 534 l 1,5,-1
 129 561 l 1,6,-1
 366 336 l 1,0,-1
641 336 m 1,7,-1
 641 260 l 1,8,-1
 418 40 l 1,9,-1
 355 69 l 1,10,-1
 489 298 l 1,11,-1
 355 534 l 1,12,-1
 418 561 l 1,13,-1
 641 336 l 1,7,-1
EndSplineSet
Validated: 1
EndChar

StartChar: guilsinglleft
Encoding: 8249 8249 205
Width: 422
GlyphClass: 1
Flags: W
LayerCount: 2
Fore
SplineSet
356 534 m 1,0,-1
 208 298 l 1,1,-1
 356 69 l 1,2,-1
 293 40 l 1,3,-1
 56 260 l 1,4,-1
 56 336 l 1,5,-1
 293 561 l 1,6,-1
 356 534 l 1,0,-1
EndSplineSet
Validated: 1
EndChar

StartChar: guilsinglright
Encoding: 8250 8250 206
Width: 422
GlyphClass: 1
Flags: W
LayerCount: 2
Fore
SplineSet
366 336 m 1,0,-1
 366 260 l 1,1,-1
 129 40 l 1,2,-1
 66 69 l 1,3,-1
 214 298 l 1,4,-1
 66 534 l 1,5,-1
 129 561 l 1,6,-1
 366 336 l 1,0,-1
EndSplineSet
Validated: 1
EndChar

StartChar: quotedblbase
Encoding: 8222 8222 207
Width: 676
GlyphClass: 1
Flags: W
LayerCount: 2
Fore
SplineSet
98 -227 m 1,0,-1
 98 -211 l 1,1,2
 123 -187 123 -187 144.5 -144 c 128,-1,3
 166 -101 166 -101 166 -39 c 0,4,5
 166 -8 166 -8 157 12 c 128,-1,6
 148 32 148 32 131 54 c 0,7,8
 116 74 116 74 109 89.5 c 128,-1,9
 102 105 102 105 102 128 c 0,10,11
 102 160 102 160 124.5 181.5 c 128,-1,12
 147 203 147 203 180 203 c 256,13,14
 213 203 213 203 239.5 179.5 c 128,-1,15
 266 156 266 156 281 118 c 128,-1,16
 296 80 296 80 296 37 c 0,17,18
 296 -33 296 -33 271 -94.5 c 128,-1,19
 246 -156 246 -156 209 -199.5 c 128,-1,20
 172 -243 172 -243 138 -262 c 1,21,-1
 137 -262 l 1,22,-1
 98 -227 l 1,0,-1
385 -227 m 1,23,-1
 385 -211 l 1,24,25
 410 -187 410 -187 431.5 -144 c 128,-1,26
 453 -101 453 -101 453 -39 c 0,27,28
 453 -8 453 -8 444 12 c 128,-1,29
 435 32 435 32 418 54 c 0,30,31
 403 74 403 74 396 89.5 c 128,-1,32
 389 105 389 105 389 128 c 0,33,34
 389 160 389 160 411.5 181.5 c 128,-1,35
 434 203 434 203 466 203 c 0,36,37
 499 203 499 203 526 180 c 128,-1,38
 553 157 553 157 568 118.5 c 128,-1,39
 583 80 583 80 583 37 c 0,40,41
 583 -33 583 -33 558 -94.5 c 128,-1,42
 533 -156 533 -156 496 -199.5 c 128,-1,43
 459 -243 459 -243 425 -262 c 1,44,-1
 424 -262 l 1,45,-1
 385 -227 l 1,23,-1
EndSplineSet
Validated: 1
EndChar

StartChar: quotedblleft
Encoding: 8220 8220 208
Width: 677
GlyphClass: 1
Flags: W
LayerCount: 2
Fore
SplineSet
149.5 416.5 m 128,-1,1
 123 440 123 440 108 478 c 128,-1,2
 93 516 93 516 93 559 c 0,3,4
 93 629 93 629 118 690.5 c 128,-1,5
 143 752 143 752 180 795.5 c 128,-1,6
 217 839 217 839 251 858 c 1,7,-1
 252 858 l 1,8,-1
 291 823 l 1,9,-1
 291 807 l 1,10,11
 266 784 266 784 244.5 741 c 128,-1,12
 223 698 223 698 223 635 c 0,13,14
 223 604 223 604 232 584 c 128,-1,15
 241 564 241 564 258 542 c 0,16,17
 273 522 273 522 280 506.5 c 128,-1,18
 287 491 287 491 287 468 c 0,19,20
 287 436 287 436 264.5 414.5 c 128,-1,21
 242 393 242 393 209 393 c 256,22,0
 176 393 176 393 149.5 416.5 c 128,-1,1
437.5 416.5 m 128,-1,24
 411 440 411 440 396 478 c 128,-1,25
 381 516 381 516 381 559 c 0,26,27
 381 629 381 629 406 690.5 c 128,-1,28
 431 752 431 752 468 795.5 c 128,-1,29
 505 839 505 839 539 858 c 1,30,-1
 540 858 l 1,31,-1
 579 823 l 1,32,-1
 579 807 l 1,33,34
 554 784 554 784 532 740.5 c 128,-1,35
 510 697 510 697 510 635 c 0,36,37
 510 604 510 604 519 584 c 128,-1,38
 528 564 528 564 545 542 c 0,39,40
 560 522 560 522 567 506.5 c 128,-1,41
 574 491 574 491 574 468 c 0,42,43
 574 436 574 436 552 414.5 c 128,-1,44
 530 393 530 393 497 393 c 256,45,23
 464 393 464 393 437.5 416.5 c 128,-1,24
EndSplineSet
Validated: 1
EndChar

StartChar: quotedblright
Encoding: 8221 8221 209
Width: 676
GlyphClass: 1
Flags: W
LayerCount: 2
Fore
SplineSet
98 448 m 1,0,-1
 98 464 l 1,1,2
 122 487 122 487 144 533 c 128,-1,3
 166 579 166 579 166 641 c 0,4,5
 166 671 166 671 157.5 689.5 c 128,-1,6
 149 708 149 708 132 729 c 0,7,8
 117 749 117 749 109.5 764.5 c 128,-1,9
 102 780 102 780 102 803 c 0,10,11
 102 835 102 835 124.5 856.5 c 128,-1,12
 147 878 147 878 180 878 c 256,13,14
 213 878 213 878 239.5 855 c 128,-1,15
 266 832 266 832 281 794 c 128,-1,16
 296 756 296 756 296 713 c 0,17,18
 296 643 296 643 271 581 c 128,-1,19
 246 519 246 519 209 475.5 c 128,-1,20
 172 432 172 432 138 414 c 1,21,-1
 137 414 l 1,22,-1
 98 448 l 1,0,-1
385 448 m 1,23,-1
 385 464 l 1,24,25
 409 487 409 487 431 533 c 128,-1,26
 453 579 453 579 453 641 c 0,27,28
 453 671 453 671 444.5 689.5 c 128,-1,29
 436 708 436 708 419 729 c 0,30,31
 404 749 404 749 396.5 764.5 c 128,-1,32
 389 780 389 780 389 803 c 0,33,34
 389 835 389 835 411.5 856.5 c 128,-1,35
 434 878 434 878 466 878 c 0,36,37
 499 878 499 878 526 855 c 128,-1,38
 553 832 553 832 568 794 c 128,-1,39
 583 756 583 756 583 713 c 0,40,41
 583 643 583 643 558 581 c 128,-1,42
 533 519 533 519 496 475.5 c 128,-1,43
 459 432 459 432 425 414 c 1,44,-1
 424 414 l 1,45,-1
 385 448 l 1,23,-1
EndSplineSet
Validated: 1
EndChar

StartChar: quoteleft
Encoding: 8216 8216 210
Width: 389
GlyphClass: 1
Flags: W
LayerCount: 2
Fore
SplineSet
149.5 416.5 m 128,-1,1
 123 440 123 440 108 478 c 128,-1,2
 93 516 93 516 93 559 c 0,3,4
 93 629 93 629 118 690.5 c 128,-1,5
 143 752 143 752 180 795.5 c 128,-1,6
 217 839 217 839 252 858 c 1,7,-1
 291 823 l 1,8,-1
 291 807 l 1,9,10
 267 785 267 785 245 737.5 c 128,-1,11
 223 690 223 690 223 628 c 0,12,13
 223 600 223 600 231 583 c 128,-1,14
 239 566 239 566 256 543 c 0,15,16
 272 523 272 523 279.5 507.5 c 128,-1,17
 287 492 287 492 287 468 c 0,18,19
 287 436 287 436 264.5 414.5 c 128,-1,20
 242 393 242 393 209 393 c 256,21,0
 176 393 176 393 149.5 416.5 c 128,-1,1
EndSplineSet
Validated: 1
EndChar

StartChar: quoteright
Encoding: 8217 8217 211
Width: 389
GlyphClass: 1
Flags: W
LayerCount: 2
Fore
SplineSet
98 421 m 1,0,-1
 98 438 l 1,1,2
 110 450 110 450 126.5 483.5 c 128,-1,3
 143 517 143 517 154.5 561.5 c 128,-1,4
 166 606 166 606 166 650 c 0,5,6
 166 665 166 665 159.5 675 c 128,-1,7
 153 685 153 685 139 700 c 0,8,9
 121 717 121 717 111.5 733.5 c 128,-1,10
 102 750 102 750 102 776 c 0,11,12
 102 808 102 808 124.5 830 c 128,-1,13
 147 852 147 852 180 852 c 256,14,15
 213 852 213 852 239.5 830 c 128,-1,16
 266 808 266 808 281 771.5 c 128,-1,17
 296 735 296 735 296 692 c 0,18,19
 296 622 296 622 271 558.5 c 128,-1,20
 246 495 246 495 209 450 c 128,-1,21
 172 405 172 405 138 387 c 1,22,-1
 98 421 l 1,0,-1
EndSplineSet
Validated: 1
EndChar

StartChar: quotesinglbase
Encoding: 8218 8218 212
Width: 389
GlyphClass: 1
Flags: W
LayerCount: 2
Fore
SplineSet
98 -225 m 1,0,-1
 98 -209 l 1,1,2
 110 -197 110 -197 126.5 -163.5 c 128,-1,3
 143 -130 143 -130 154.5 -85.5 c 128,-1,4
 166 -41 166 -41 166 3 c 0,5,6
 166 18 166 18 159.5 28.5 c 128,-1,7
 153 39 153 39 139 53 c 0,8,9
 121 71 121 71 111.5 87 c 128,-1,10
 102 103 102 103 102 130 c 0,11,12
 102 162 102 162 124.5 183.5 c 128,-1,13
 147 205 147 205 180 205 c 256,14,15
 213 205 213 205 239.5 183 c 128,-1,16
 266 161 266 161 281 124.5 c 128,-1,17
 296 88 296 88 296 45 c 0,18,19
 296 -25 296 -25 271 -88 c 128,-1,20
 246 -151 246 -151 209 -196.5 c 128,-1,21
 172 -242 172 -242 138 -260 c 1,22,-1
 98 -225 l 1,0,-1
EndSplineSet
Validated: 1
EndChar

StartChar: cent
Encoding: 162 162 217
Width: 582
GlyphClass: 1
Flags: W
LayerCount: 2
Fore
SplineSet
125 474 m 128,-1,1
 190 553 190 553 301 567 c 1,2,-1
 311 685 l 1,3,-1
 396 685 l 1,4,-1
 387 568 l 1,5,6
 428 565 428 565 483 549 c 0,7,8
 512 541 512 541 519 540 c 1,9,-1
 511 359 l 1,10,-1
 411 359 l 1,11,-1
 384 474 l 2,12,13
 381 487 381 487 367.5 492.5 c 128,-1,14
 354 498 354 498 335 498 c 0,15,16
 236 498 236 498 236 299 c 0,17,18
 236 197 236 197 268.5 142.5 c 128,-1,19
 301 88 301 88 358 88 c 0,20,21
 433 88 433 88 495 126 c 1,22,-1
 522 67 l 1,23,24
 500 42 500 42 452 18.5 c 128,-1,25
 404 -5 404 -5 344 -10 c 1,26,-1
 338 -119 l 1,27,-1
 253 -119 l 1,28,-1
 260 -6 l 1,29,30
 160 12 160 12 110.5 86.5 c 128,-1,31
 61 161 61 161 60 274 c 0,32,0
 60 395 60 395 125 474 c 128,-1,1
EndSplineSet
Validated: 1
EndChar

StartChar: currency
Encoding: 164 164 218
Width: 755
GlyphClass: 1
Flags: W
LayerCount: 2
Fore
SplineSet
155 372 m 0,1,2
 155 446 155 446 196 506 c 1,3,-1
 84 617 l 1,4,-1
 146 681 l 1,5,-1
 260 567 l 1,6,7
 311 601 311 601 376 601 c 0,8,9
 442 601 442 601 495 569 c 1,10,-1
 608 681 l 1,11,-1
 671 618 l 1,12,-1
 560 509 l 1,13,14
 600 453 600 453 600 383 c 0,15,16
 600 308 600 308 557 249 c 1,17,-1
 669 139 l 1,18,-1
 606 75 l 1,19,-1
 494 188 l 1,20,21
 437 154 437 154 376 154 c 0,22,23
 312 154 312 154 259 185 c 1,24,-1
 147 73 l 1,25,-1
 84 137 l 1,26,-1
 194 246 l 1,27,0
 155 301 155 301 155 372 c 0,1,2
452.5 297.5 m 128,-1,29
 479 328 479 328 479 375 c 0,30,31
 479 424 479 424 447.5 456 c 128,-1,32
 416 488 416 488 375 488 c 0,33,34
 328 488 328 488 301 455 c 128,-1,35
 274 422 274 422 274 375 c 0,36,37
 274 331 274 331 305 299 c 128,-1,38
 336 267 336 267 377 267 c 0,39,28
 426 267 426 267 452.5 297.5 c 128,-1,29
EndSplineSet
Validated: 1
EndChar

StartChar: dollar
Encoding: 36 36 219
Width: 667
GlyphClass: 1
Flags: W
LayerCount: 2
Fore
SplineSet
545 66.5 m 128,-1,1
 491 5 491 5 376 -8 c 1,2,-1
 375 -126 l 1,3,-1
 288 -126 l 1,4,-1
 289 -10 l 1,5,6
 234 -7 234 -7 187.5 3.5 c 128,-1,7
 141 14 141 14 113 22.5 c 128,-1,8
 85 31 85 31 78 33 c 1,9,-1
 86 214 l 1,10,-1
 181 214 l 1,11,-1
 207 93 l 1,12,13
 236 58 236 58 313 58 c 0,14,15
 431 58 431 58 431 162 c 0,16,17
 431 208 431 208 390 241.5 c 128,-1,18
 349 275 349 275 260 320 c 0,19,20
 175 363 175 363 128.5 415.5 c 128,-1,21
 82 468 82 468 82 555 c 0,22,23
 82 603 82 603 106.5 644.5 c 128,-1,24
 131 686 131 686 178.5 714 c 128,-1,25
 226 742 226 742 292 750 c 1,26,-1
 292 860 l 1,27,-1
 381 860 l 1,28,-1
 381 751 l 1,29,30
 449 747 449 747 499 732 c 128,-1,31
 549 717 549 717 554 716 c 1,32,-1
 548 550 l 1,33,-1
 456 550 l 1,34,-1
 434 660 l 1,35,36
 423 671 423 671 402 678.5 c 128,-1,37
 381 686 381 686 356 686 c 0,38,39
 303 686 303 686 273 660 c 128,-1,40
 243 634 243 634 243 592 c 0,41,42
 243 556 243 556 266 528 c 128,-1,43
 289 500 289 500 319.5 481.5 c 128,-1,44
 350 463 350 463 410 432 c 0,45,46
 471 399 471 399 509.5 371 c 128,-1,47
 548 343 548 343 573.5 303 c 128,-1,48
 599 263 599 263 599 210 c 0,49,0
 599 128 599 128 545 66.5 c 128,-1,1
EndSplineSet
Validated: 1
EndChar

StartChar: Euro
Encoding: 8364 8364 220
Width: 719
GlyphClass: 1
Flags: W
LayerCount: 2
Fore
SplineSet
112 348 m 2,0,1
 112 383 112 383 114 407 c 1,2,-1
 26 407 l 1,3,-1
 46 476 l 1,4,-1
 125 476 l 1,5,6
 157 613 157 613 246.5 684.5 c 128,-1,7
 336 756 336 756 466 756 c 0,8,9
 518 756 518 756 556.5 748 c 128,-1,10
 595 740 595 740 635 727 c 0,11,12
 643 725 643 725 660.5 720 c 128,-1,13
 678 715 678 715 690 714 c 1,14,-1
 677 531 l 1,15,-1
 587 531 l 1,16,-1
 559 656 l 1,17,18
 548 670 548 670 520 677.5 c 128,-1,19
 492 685 492 685 460 685 c 0,20,21
 394 685 394 685 355.5 635 c 128,-1,22
 317 585 317 585 303 476 c 1,23,-1
 525 476 l 1,24,-1
 505 407 l 1,25,-1
 300 407 l 1,26,27
 298 377 298 377 298 370 c 0,28,29
 298 337 298 337 299 320 c 1,30,-1
 479 320 l 1,31,-1
 459 252 l 1,32,-1
 305 252 l 1,33,34
 318 152 318 152 358 102 c 128,-1,35
 398 52 398 52 462 52 c 0,36,37
 496 52 496 52 520 61 c 128,-1,38
 544 70 544 70 562 89 c 1,39,-1
 606 197 l 1,40,-1
 685 185 l 1,41,-1
 675 29 l 1,42,43
 658 28 658 28 621 16 c 0,44,45
 571 2 571 2 531.5 -6 c 128,-1,46
 492 -14 492 -14 437 -14 c 0,47,48
 311 -14 311 -14 227.5 58 c 128,-1,49
 144 130 144 130 120 252 c 1,50,-1
 26 252 l 1,51,-1
 46 320 l 1,52,-1
 112 320 l 1,53,-1
 112 348 l 2,0,1
EndSplineSet
Validated: 1
EndChar

StartChar: sterling
Encoding: 163 163 221
Width: 781
GlyphClass: 1
Flags: W
LayerCount: 2
Fore
SplineSet
181 500 m 2,0,1
 181 574 181 574 217.5 631.5 c 128,-1,2
 254 689 254 689 316.5 720.5 c 128,-1,3
 379 752 379 752 454 752 c 0,4,5
 518 752 518 752 571 734 c 128,-1,6
 624 716 624 716 657 690 c 1,7,-1
 587 590 l 1,8,9
 580 603 580 603 557 623 c 128,-1,10
 534 643 534 643 503 658 c 128,-1,11
 472 673 472 673 440 673 c 0,12,13
 403 673 403 673 378.5 644.5 c 128,-1,14
 354 616 354 616 354 536 c 2,15,-1
 354 429 l 1,16,-1
 492 429 l 1,17,-1
 492 356 l 1,18,-1
 354 356 l 1,19,-1
 354 256 l 2,20,21
 354 199 354 199 338 164.5 c 128,-1,22
 322 130 322 130 292 107 c 1,23,24
 307 105 307 105 353 95 c 0,25,26
 421 79 421 79 466 79 c 0,27,28
 529 79 529 79 554 102.5 c 128,-1,29
 579 126 579 126 579 176 c 0,30,31
 579 205 579 205 570 230.5 c 128,-1,32
 561 256 561 256 549 266 c 1,33,-1
 715 266 l 1,34,35
 724 258 724 258 732 234.5 c 128,-1,36
 740 211 740 211 740 183 c 0,37,38
 740 130 740 130 711.5 87 c 128,-1,39
 683 44 683 44 630.5 18.5 c 128,-1,40
 578 -7 578 -7 508 -7 c 0,41,42
 456 -7 456 -7 412.5 2.5 c 128,-1,43
 369 12 369 12 317 29 c 0,44,45
 282 40 282 40 259 45.5 c 128,-1,46
 236 51 236 51 214 52 c 1,47,48
 162 0 162 0 107 0 c 0,49,50
 78 0 78 0 59 13 c 128,-1,51
 40 26 40 26 40 52 c 0,52,53
 40 85 40 85 79.5 107.5 c 128,-1,54
 119 130 119 130 164 129 c 1,55,56
 171 139 171 139 176 168.5 c 128,-1,57
 181 198 181 198 181 235 c 2,58,-1
 181 356 l 1,59,-1
 93 356 l 1,60,-1
 93 429 l 1,61,-1
 181 429 l 1,62,-1
 181 500 l 2,0,1
EndSplineSet
Validated: 33
EndChar

StartChar: yen
Encoding: 165 165 222
Width: 811
GlyphClass: 1
Flags: W
LayerCount: 2
Fore
SplineSet
120 662 m 1,0,-1
 53 676 l 1,1,-1
 53 743 l 1,2,-1
 386 743 l 1,3,-1
 386 676 l 1,4,-1
 316 663 l 1,5,-1
 421 458 l 1,6,-1
 447 398 l 1,7,-1
 474 457 l 1,8,-1
 578 663 l 1,9,-1
 497 676 l 1,10,-1
 497 743 l 1,11,-1
 758 743 l 1,12,-1
 758 676 l 1,13,-1
 684 662 l 1,14,-1
 533 397 l 1,15,-1
 717 397 l 1,16,-1
 717 331 l 1,17,-1
 501 331 l 1,18,-1
 501 230 l 1,19,-1
 717 230 l 1,20,-1
 717 164 l 1,21,-1
 501 164 l 1,22,-1
 501 75 l 1,23,-1
 608 63 l 1,24,-1
 608 0 l 1,25,-1
 229 0 l 1,26,-1
 229 63 l 1,27,-1
 328 75 l 1,28,-1
 328 164 l 1,29,-1
 115 164 l 1,30,-1
 115 230 l 1,31,-1
 328 230 l 1,32,-1
 328 331 l 1,33,-1
 115 331 l 1,34,-1
 115 397 l 1,35,-1
 286 397 l 1,36,-1
 120 662 l 1,0,-1
EndSplineSet
Validated: 1
EndChar

StartChar: uni2215
Encoding: 8725 8725 223
Width: 431
GlyphClass: 1
Flags: W
LayerCount: 2
Fore
SplineSet
142 -177 m 1,0,-1
 30 -177 l 1,1,-1
 289 781 l 1,2,-1
 401 781 l 1,3,-1
 142 -177 l 1,0,-1
EndSplineSet
Validated: 1
EndChar

StartChar: plus
Encoding: 43 43 224
Width: 661
GlyphClass: 1
Flags: W
LayerCount: 2
Fore
SplineSet
281 367 m 1,0,-1
 278 444 l 1,1,-1
 278 553 l 1,2,-1
 383 553 l 1,3,-1
 383 444 l 1,4,-1
 378 367 l 1,5,-1
 457 372 l 1,6,-1
 561 372 l 1,7,-1
 561 268 l 1,8,-1
 457 268 l 1,9,-1
 378 271 l 1,10,-1
 383 196 l 1,11,-1
 383 81 l 1,12,-1
 278 81 l 1,13,-1
 278 196 l 1,14,-1
 281 271 l 1,15,-1
 189 268 l 1,16,-1
 100 268 l 1,17,-1
 100 372 l 1,18,-1
 189 372 l 1,19,-1
 281 367 l 1,0,-1
EndSplineSet
Validated: 1
EndChar

StartChar: minus
Encoding: 8722 8722 225
Width: 657
GlyphClass: 1
Flags: W
LayerCount: 2
Fore
SplineSet
544 266 m 1,0,-1
 112 266 l 1,1,-1
 112 372 l 1,2,-1
 544 372 l 1,3,-1
 544 266 l 1,0,-1
EndSplineSet
Validated: 1
EndChar

StartChar: multiply
Encoding: 215 215 226
Width: 618
GlyphClass: 1
Flags: W
LayerCount: 2
Fore
SplineSet
67 459 m 1,0,-1
 154 546 l 1,1,-1
 310 374 l 1,2,-1
 465 546 l 1,3,-1
 550 460 l 1,4,-1
 385 301 l 1,5,-1
 550 143 l 1,6,-1
 465 57 l 1,7,-1
 310 228 l 1,8,-1
 155 57 l 1,9,-1
 70 143 l 1,10,-1
 235 301 l 1,11,-1
 67 459 l 1,0,-1
EndSplineSet
Validated: 1
EndChar

StartChar: divide
Encoding: 247 247 227
Width: 662
GlyphClass: 1
Flags: W
LayerCount: 2
Fore
SplineSet
273 484 m 128,-1,1
 249 505 249 505 249 538 c 0,2,3
 249 573 249 573 276 596.5 c 128,-1,4
 303 620 303 620 341 620 c 0,5,6
 378 620 378 620 400 597.5 c 128,-1,7
 422 575 422 575 422 544 c 0,8,9
 422 507 422 507 395.5 485 c 128,-1,10
 369 463 369 463 328 463 c 0,11,0
 297 463 297 463 273 484 c 128,-1,1
562 274 m 1,12,-1
 100 274 l 1,13,-1
 100 372 l 1,14,-1
 562 372 l 1,15,-1
 562 274 l 1,12,-1
272 169 m 128,-1,17
 299 192 299 192 337 192 c 0,18,19
 374 192 374 192 396 170 c 128,-1,20
 418 148 418 148 418 117 c 0,21,22
 418 79 418 79 391.5 57 c 128,-1,23
 365 35 365 35 323 35 c 0,24,25
 292 35 292 35 268.5 56.5 c 128,-1,26
 245 78 245 78 245 110 c 0,27,16
 245 146 245 146 272 169 c 128,-1,17
EndSplineSet
Validated: 1
EndChar

StartChar: equal
Encoding: 61 61 228
Width: 653
GlyphClass: 1
Flags: W
LayerCount: 2
Fore
SplineSet
558 387 m 1,0,-1
 99 387 l 1,1,-1
 99 486 l 1,2,-1
 558 486 l 1,3,-1
 558 387 l 1,0,-1
558 115 m 1,4,-1
 99 115 l 1,5,-1
 99 214 l 1,6,-1
 558 214 l 1,7,-1
 558 115 l 1,4,-1
EndSplineSet
Validated: 1
EndChar

StartChar: greater
Encoding: 62 62 229
Width: 669
GlyphClass: 1
Flags: W
LayerCount: 2
Fore
SplineSet
114 27 m 1,0,-1
 114 142 l 1,1,-1
 439 301 l 1,2,-1
 114 457 l 1,3,-1
 114 575 l 1,4,-1
 587 331 l 1,5,-1
 587 270 l 1,6,-1
 114 27 l 1,0,-1
EndSplineSet
Validated: 1
EndChar

StartChar: less
Encoding: 60 60 230
Width: 669
GlyphClass: 1
Flags: W
LayerCount: 2
Fore
SplineSet
555 457 m 1,0,-1
 230 301 l 1,1,-1
 555 142 l 1,2,-1
 555 27 l 1,3,-1
 82 270 l 1,4,-1
 82 331 l 1,5,-1
 555 575 l 1,6,-1
 555 457 l 1,0,-1
EndSplineSet
Validated: 1
EndChar

StartChar: plusminus
Encoding: 177 177 231
Width: 661
GlyphClass: 1
Flags: W
LayerCount: 2
Fore
SplineSet
281 404 m 1,0,-1
 278 481 l 1,1,-1
 278 592 l 1,2,-1
 383 592 l 1,3,-1
 383 481 l 1,4,-1
 378 404 l 1,5,-1
 457 409 l 1,6,-1
 561 409 l 1,7,-1
 561 308 l 1,8,-1
 457 308 l 1,9,-1
 378 311 l 1,10,-1
 383 237 l 1,11,-1
 383 132 l 1,12,-1
 278 132 l 1,13,-1
 278 237 l 1,14,-1
 281 311 l 1,15,-1
 189 308 l 1,16,-1
 100 308 l 1,17,-1
 100 409 l 1,18,-1
 189 409 l 1,19,-1
 281 404 l 1,0,-1
556 0 m 1,20,-1
 104 0 l 1,21,-1
 104 98 l 1,22,-1
 556 98 l 1,23,-1
 556 0 l 1,20,-1
EndSplineSet
Validated: 1
EndChar

StartChar: asciitilde
Encoding: 126 126 232
Width: 699
GlyphClass: 1
Flags: W
LayerCount: 2
Fore
SplineSet
160 359 m 128,-1,1
 205 392 205 392 257 392 c 0,2,3
 293 392 293 392 319 379 c 128,-1,4
 345 366 345 366 379 340 c 0,5,6
 403 322 403 322 417.5 314 c 128,-1,7
 432 306 432 306 448 306 c 0,8,9
 482 306 482 306 504 320.5 c 128,-1,10
 526 335 526 335 546 361 c 1,11,-1
 595 304 l 1,12,13
 575 261 575 261 531.5 229 c 128,-1,14
 488 197 488 197 436 197 c 0,15,16
 403 197 403 197 379 210 c 128,-1,17
 355 223 355 223 326 247 c 0,18,19
 303 266 303 266 286.5 275.5 c 128,-1,20
 270 285 270 285 250 285 c 0,21,22
 219 285 219 285 194 270 c 128,-1,23
 169 255 169 255 146 231 c 1,24,-1
 98 287 l 1,25,0
 115 326 115 326 160 359 c 128,-1,1
EndSplineSet
Validated: 1
EndChar

StartChar: logicalnot
Encoding: 172 172 233
Width: 688
GlyphClass: 1
Flags: W
LayerCount: 2
Fore
SplineSet
586 82 m 1,0,-1
 476 82 l 1,1,-1
 476 263 l 1,2,-1
 103 263 l 1,3,-1
 103 356 l 1,4,-1
 586 356 l 1,5,-1
 586 82 l 1,0,-1
EndSplineSet
Validated: 1
EndChar

StartChar: uni00B5
Encoding: 181 181 234
Width: 683
GlyphClass: 1
Flags: W
LayerCount: 2
Fore
SplineSet
93 476 m 1,0,-1
 43 495 l 1,1,-1
 43 554 l 1,2,-1
 235 566 l 1,3,-1
 256 554 l 1,4,-1
 256 169 l 2,5,6
 256 136 256 136 281 109 c 128,-1,7
 306 82 306 82 346 82 c 0,8,9
 380 82 380 82 401.5 97.5 c 128,-1,10
 423 113 423 113 430 133 c 1,11,-1
 430 476 l 1,12,-1
 372 495 l 1,13,-1
 371 554 l 1,14,-1
 573 566 l 1,15,-1
 593 554 l 1,16,-1
 593 69 l 1,17,-1
 645 69 l 1,18,-1
 645 5 l 1,19,20
 589 -13 589 -13 529 -13 c 0,21,22
 497 -13 497 -13 482 3.5 c 128,-1,23
 467 20 467 20 467 47 c 2,24,-1
 467 75 l 1,25,26
 453 38 453 38 419 14 c 128,-1,27
 385 -10 385 -10 345 -10 c 0,28,29
 315 -10 315 -10 289 -0.5 c 128,-1,30
 263 9 263 9 247 26 c 1,31,-1
 247 -182 l 1,32,-1
 94 -182 l 1,33,-1
 93 476 l 1,0,-1
EndSplineSet
Validated: 1
EndChar

StartChar: percent
Encoding: 37 37 235
Width: 1079
GlyphClass: 1
Flags: W
LayerCount: 2
Fore
SplineSet
646 751 m 1,0,-1
 749 751 l 1,1,-1
 428 0 l 1,2,-1
 326 0 l 1,3,-1
 646 751 l 1,0,-1
132 340.5 m 128,-1,5
 88 369 88 369 66 417.5 c 128,-1,6
 44 466 44 466 44 525 c 0,7,8
 44 594 44 594 71.5 644.5 c 128,-1,9
 99 695 99 695 147 721.5 c 128,-1,10
 195 748 195 748 254 748 c 0,11,12
 355 748 355 748 401 689 c 128,-1,13
 447 630 447 630 447 531 c 0,14,15
 447 463 447 463 419 413.5 c 128,-1,16
 391 364 391 364 343 338 c 128,-1,17
 295 312 295 312 237 312 c 0,18,4
 176 312 176 312 132 340.5 c 128,-1,5
300.5 415.5 m 128,-1,20
 316 455 316 455 316 527 c 0,21,22
 316 595 316 595 300.5 638.5 c 128,-1,23
 285 682 285 682 248 682 c 0,24,25
 210 682 210 682 193.5 642.5 c 128,-1,26
 177 603 177 603 177 532 c 0,27,28
 177 469 177 469 193 422.5 c 128,-1,29
 209 376 209 376 246 376 c 0,30,19
 285 376 285 376 300.5 415.5 c 128,-1,20
717.5 39 m 128,-1,32
 674 68 674 68 652 116.5 c 128,-1,33
 630 165 630 165 630 224 c 0,34,35
 630 293 630 293 657.5 343.5 c 128,-1,36
 685 394 685 394 732.5 420 c 128,-1,37
 780 446 780 446 840 446 c 0,38,39
 940 446 940 446 986.5 387 c 128,-1,40
 1033 328 1033 328 1033 230 c 0,41,42
 1033 161 1033 161 1005 111.5 c 128,-1,43
 977 62 977 62 929 36 c 128,-1,44
 881 10 881 10 822 10 c 0,45,31
 761 10 761 10 717.5 39 c 128,-1,32
885 113 m 128,-1,47
 901 150 901 150 901 218 c 0,48,49
 901 290 901 290 886.5 335 c 128,-1,50
 872 380 872 380 834 380 c 0,51,52
 795 380 795 380 778.5 340.5 c 128,-1,53
 762 301 762 301 762 230 c 0,54,55
 762 167 762 167 778 121.5 c 128,-1,56
 794 76 794 76 831 76 c 0,57,46
 869 76 869 76 885 113 c 128,-1,47
EndSplineSet
Validated: 1
EndChar

StartChar: arrowup
Encoding: 8593 8593 236
Width: 713
GlyphClass: 1
Flags: W
LayerCount: 2
Fore
SplineSet
412 64 m 1,0,-1
 302 64 l 1,1,-1
 302 444 l 1,2,-1
 311 521 l 1,3,-1
 135 346 l 1,4,-1
 63 419 l 1,5,-1
 357 714 l 1,6,-1
 651 419 l 1,7,-1
 578 346 l 1,8,-1
 404 521 l 1,9,-1
 412 444 l 1,10,-1
 412 64 l 1,0,-1
EndSplineSet
Validated: 1
EndChar

StartChar: arrowdown
Encoding: 8595 8595 237
Width: 721
GlyphClass: 1
Flags: W
LayerCount: 2
Fore
SplineSet
654 331 m 1,0,-1
 360 36 l 1,1,-1
 67 331 l 1,2,-1
 139 404 l 1,3,-1
 314 229 l 1,4,-1
 306 306 l 1,5,-1
 306 686 l 1,6,-1
 416 686 l 1,7,-1
 416 306 l 1,8,-1
 408 229 l 1,9,-1
 582 404 l 1,10,-1
 654 331 l 1,0,-1
EndSplineSet
Validated: 1
EndChar

StartChar: at
Encoding: 64 64 238
Width: 1087
GlyphClass: 1
Flags: W
LayerCount: 2
Fore
SplineSet
142 473 m 128,-1,1
 211 615 211 615 338.5 698 c 128,-1,2
 466 781 466 781 634 781 c 0,3,4
 744 781 744 781 830.5 735 c 128,-1,5
 917 689 917 689 966.5 603 c 128,-1,6
 1016 517 1016 517 1016 402 c 0,7,8
 1016 275 1016 275 962.5 183 c 128,-1,9
 909 91 909 91 833 43.5 c 128,-1,10
 757 -4 757 -4 695 -4 c 0,11,12
 667 -4 667 -4 647.5 20 c 128,-1,13
 628 44 628 44 628 87 c 0,14,15
 628 129 628 129 644 219 c 1,16,17
 608 119 608 119 557 52.5 c 128,-1,18
 506 -14 506 -14 445 -14 c 0,19,20
 410 -14 410 -14 377 11 c 128,-1,21
 344 36 344 36 323 82 c 128,-1,22
 302 128 302 128 302 190 c 0,23,24
 302 272 302 272 334.5 350 c 128,-1,25
 367 428 367 428 427.5 477 c 128,-1,26
 488 526 488 526 566 526 c 0,27,28
 593 526 593 526 624 518.5 c 128,-1,29
 655 511 655 511 682 498 c 1,30,31
 685 508 685 508 695 516 c 128,-1,32
 705 524 705 524 714 522 c 0,33,34
 728 518 728 518 752 509 c 2,35,-1
 793 496 l 1,36,37
 786 461 786 461 786 461 c 1,38,39
 737 242 737 242 737 155 c 0,40,41
 737 125 737 125 743.5 105 c 128,-1,42
 750 85 750 85 757 85 c 0,43,44
 802 85 802 85 842 120 c 128,-1,45
 882 155 882 155 906 218.5 c 128,-1,46
 930 282 930 282 930 363 c 0,47,48
 930 544 930 544 833 621 c 128,-1,49
 736 698 736 698 591 698 c 0,50,51
 467 698 467 698 373 631.5 c 128,-1,52
 279 565 279 565 227.5 447.5 c 128,-1,53
 176 330 176 330 176 182 c 0,54,55
 176 63 176 63 219.5 -20 c 128,-1,56
 263 -103 263 -103 335.5 -144.5 c 128,-1,57
 408 -186 408 -186 494 -186 c 0,58,59
 553 -186 553 -186 611.5 -173 c 128,-1,60
 670 -160 670 -160 700 -141 c 1,61,-1
 719 -186 l 1,62,63
 678 -221 678 -221 610.5 -241 c 128,-1,64
 543 -261 543 -261 468 -261 c 0,65,66
 360 -261 360 -261 269.5 -209.5 c 128,-1,67
 179 -158 179 -158 126 -62 c 128,-1,68
 73 34 73 34 73 161 c 0,69,0
 73 331 73 331 142 473 c 128,-1,1
439 144.5 m 128,-1,71
 453 104 453 104 479 104 c 0,72,73
 509 104 509 104 551 164.5 c 128,-1,74
 593 225 593 225 619 302 c 0,75,76
 643 376 643 376 646 404 c 1,77,78
 635 417 635 417 600.5 430.5 c 128,-1,79
 566 444 566 444 546 444 c 0,80,81
 489 444 489 444 457 379.5 c 128,-1,82
 425 315 425 315 425 227 c 0,83,70
 425 185 425 185 439 144.5 c 128,-1,71
EndSplineSet
Validated: 1
EndChar

StartChar: ampersand
Encoding: 38 38 239
Width: 765
GlyphClass: 1
Flags: W
LayerCount: 2
Fore
SplineSet
755 341 m 1,0,-1
 685 327 l 1,1,2
 685 266 685 266 665 215 c 128,-1,3
 645 164 645 164 613 129 c 1,4,5
 644 103 644 103 673 89 c 128,-1,6
 702 75 702 75 737 73 c 1,7,-1
 737 10 l 1,8,9
 726 2 726 2 693 -2.5 c 128,-1,10
 660 -7 660 -7 639 -7 c 0,11,12
 598 -7 598 -7 568 2 c 128,-1,13
 538 11 538 11 505 34 c 1,14,15
 441 -11 441 -11 324 -11 c 0,16,17
 190 -11 190 -11 114 42 c 128,-1,18
 38 95 38 95 38 191 c 0,19,20
 38 254 38 254 82.5 300 c 128,-1,21
 127 346 127 346 190 370 c 1,22,23
 150 423 150 423 128.5 466 c 128,-1,24
 107 509 107 509 107 563 c 0,25,26
 107 616 107 616 137 659.5 c 128,-1,27
 167 703 167 703 219 728 c 128,-1,28
 271 753 271 753 335 753 c 0,29,30
 401 753 401 753 446 732.5 c 128,-1,31
 491 712 491 712 513 678.5 c 128,-1,32
 535 645 535 645 535 607 c 0,33,34
 535 531 535 531 495 484.5 c 128,-1,35
 455 438 455 438 364 392 c 1,36,37
 403 344 403 344 456 285.5 c 128,-1,38
 509 227 509 227 543 195 c 2,39,-1
 559 179 l 1,40,41
 590 239 590 239 586 327 c 1,42,-1
 511 341 l 1,43,-1
 511 414 l 1,44,-1
 755 414 l 1,45,-1
 755 341 l 1,0,-1
278.5 512 m 128,-1,47
 298 475 298 475 327 438 c 1,48,49
 368 476 368 476 385 517.5 c 128,-1,50
 402 559 402 559 402 608 c 0,51,52
 402 641 402 641 387 669.5 c 128,-1,53
 372 698 372 698 335 698 c 0,54,55
 300 698 300 698 279.5 671 c 128,-1,56
 259 644 259 644 259 593 c 0,57,46
 259 549 259 549 278.5 512 c 128,-1,47
441 83 m 1,59,60
 402 115 402 115 361.5 161.5 c 128,-1,61
 321 208 321 208 263 279 c 2,62,-1
 232 317 l 1,63,64
 210 295 210 295 195.5 266.5 c 128,-1,65
 181 238 181 238 181 206 c 0,66,67
 181 140 181 140 224.5 100 c 128,-1,68
 268 60 268 60 344 60 c 0,69,58
 407 60 407 60 441 83 c 1,59,60
EndSplineSet
Validated: 33
EndChar

StartChar: paragraph
Encoding: 182 182 240
Width: 816
GlyphClass: 1
Flags: W
LayerCount: 2
Fore
SplineSet
283 385 m 1,0,1
 177 385 177 385 124 444.5 c 128,-1,2
 71 504 71 504 71 613 c 0,3,4
 71 677 71 677 102.5 727.5 c 128,-1,5
 134 778 134 778 194.5 806.5 c 128,-1,6
 255 835 255 835 340 835 c 0,7,8
 405 835 405 835 500 830 c 0,9,10
 564 826 564 826 605 826 c 2,11,-1
 738 826 l 1,12,-1
 738 758 l 1,13,-1
 659 748 l 1,14,-1
 659 75 l 1,15,-1
 727 65 l 1,16,-1
 727 0 l 1,17,-1
 534 0 l 1,18,-1
 534 751 l 1,19,20
 497 756 497 756 446 756 c 0,21,22
 416 756 416 756 408 754 c 1,23,-1
 408 0 l 1,24,-1
 185 0 l 1,25,-1
 185 65 l 1,26,-1
 283 75 l 1,27,-1
 283 385 l 1,0,1
EndSplineSet
Validated: 1
EndChar

StartChar: section
Encoding: 167 167 241
Width: 687
GlyphClass: 1
Flags: W
LayerCount: 2
Fore
SplineSet
223 10 m 1,0,1
 234 -5 234 -5 267.5 -18 c 128,-1,2
 301 -31 301 -31 340 -31 c 0,3,4
 393 -31 393 -31 420 -12 c 128,-1,5
 447 7 447 7 447 39 c 0,6,7
 447 63 447 63 429.5 81.5 c 128,-1,8
 412 100 412 100 385 114 c 128,-1,9
 358 128 358 128 307 149 c 2,10,-1
 288 157 l 2,11,12
 219 187 219 187 175.5 217 c 128,-1,13
 132 247 132 247 109 287.5 c 128,-1,14
 86 328 86 328 86 385 c 0,15,16
 86 428 86 428 106.5 469.5 c 128,-1,17
 127 511 127 511 164 537 c 1,18,19
 109 589 109 589 109 659 c 0,20,21
 109 707 109 707 140.5 744 c 128,-1,22
 172 781 172 781 227.5 802 c 128,-1,23
 283 823 283 823 353 823 c 0,24,25
 428 823 428 823 525 794 c 0,26,27
 551 787 551 787 559 786 c 1,28,-1
 553 634 l 1,29,-1
 465 634 l 1,30,-1
 437 722 l 2,31,32
 431 731 431 731 404.5 741 c 128,-1,33
 378 751 378 751 345 751 c 0,34,35
 298 751 298 751 273.5 733.5 c 128,-1,36
 249 716 249 716 249 685 c 0,37,38
 249 658 249 658 264.5 640 c 128,-1,39
 280 622 280 622 302.5 610 c 128,-1,40
 325 598 325 598 378 575 c 0,41,42
 390 569 390 569 418 557 c 0,43,44
 475 533 475 533 513 511.5 c 128,-1,45
 551 490 551 490 579 454 c 128,-1,46
 607 418 607 418 607 366 c 0,47,48
 607 310 607 310 587 264 c 128,-1,49
 567 218 567 218 533 189 c 1,50,51
 586 139 586 139 586 74 c 0,52,53
 586 29 586 29 559.5 -10 c 128,-1,54
 533 -49 533 -49 476.5 -74 c 128,-1,55
 420 -99 420 -99 336 -99 c 0,56,57
 283 -99 283 -99 236.5 -89.5 c 128,-1,58
 190 -80 190 -80 139 -64 c 0,59,60
 107 -54 107 -54 94 -53 c 1,61,-1
 104 110 l 1,62,-1
 202 110 l 1,63,-1
 223 10 l 1,0,1
392 273 m 2,64,65
 454 244 454 244 480 229 c 1,66,67
 501 256 501 256 501 287 c 0,68,69
 501 320 501 320 480.5 344.5 c 128,-1,70
 460 369 460 369 426.5 388 c 128,-1,71
 393 407 393 407 326 440 c 0,72,73
 317 444 317 444 279.5 461.5 c 128,-1,74
 242 479 242 479 209 500 c 1,75,76
 186 477 186 477 186 438 c 0,77,78
 186 395 186 395 232 360 c 128,-1,79
 278 325 278 325 369 284 c 2,80,-1
 392 273 l 2,64,65
EndSplineSet
Validated: 1
EndChar

StartChar: copyright
Encoding: 169 169 242
Width: 1040
GlyphClass: 1
Flags: W
LayerCount: 2
Fore
SplineSet
153 702.5 m 128,-1,1
 210 800 210 800 307.5 856.5 c 128,-1,2
 405 913 405 913 521 913 c 256,3,4
 637 913 637 913 734 856.5 c 128,-1,5
 831 800 831 800 887.5 703 c 128,-1,6
 944 606 944 606 944 489 c 256,7,8
 944 372 944 372 887.5 274.5 c 128,-1,9
 831 177 831 177 734 120.5 c 128,-1,10
 637 64 637 64 521 64 c 256,11,12
 405 64 405 64 307.5 120.5 c 128,-1,13
 210 177 210 177 153 274.5 c 128,-1,14
 96 372 96 372 96 489 c 0,15,0
 96 605 96 605 153 702.5 c 128,-1,1
214 305.5 m 128,-1,17
 261 222 261 222 342 173.5 c 128,-1,18
 423 125 423 125 521 125 c 256,19,20
 619 125 619 125 699.5 174 c 128,-1,21
 780 223 780 223 826.5 306.5 c 128,-1,22
 873 390 873 390 873 489 c 0,23,24
 873 589 873 589 826.5 672.5 c 128,-1,25
 780 756 780 756 699.5 804.5 c 128,-1,26
 619 853 619 853 521 853 c 0,27,28
 422 853 422 853 341 804 c 128,-1,29
 260 755 260 755 213.5 671.5 c 128,-1,30
 167 588 167 588 167 489 c 0,31,16
 167 389 167 389 214 305.5 c 128,-1,17
363.5 316 m 128,-1,33
 308 381 308 381 308 488 c 0,34,35
 308 556 308 556 339.5 612 c 128,-1,36
 371 668 371 668 427.5 700 c 128,-1,37
 484 732 484 732 555 732 c 0,38,39
 591 732 591 732 629.5 723.5 c 128,-1,40
 668 715 668 715 681 702 c 1,41,-1
 679 577 l 1,42,-1
 614 577 l 1,43,-1
 592 644 l 1,44,45
 582 651 582 651 568 655 c 128,-1,46
 554 659 554 659 525 659 c 0,47,48
 472 659 472 659 443.5 617 c 128,-1,49
 415 575 415 575 415 506 c 0,50,51
 415 433 415 433 454.5 388.5 c 128,-1,52
 494 344 494 344 557 344 c 0,53,54
 585 344 585 344 612.5 354.5 c 128,-1,55
 640 365 640 365 658 381 c 1,56,-1
 688 327 l 1,57,58
 665 298 665 298 620 274.5 c 128,-1,59
 575 251 575 251 526 251 c 0,60,32
 419 251 419 251 363.5 316 c 128,-1,33
EndSplineSet
Validated: 1
EndChar

StartChar: registered
Encoding: 174 174 243
Width: 1040
GlyphClass: 1
Flags: W
LayerCount: 2
Fore
SplineSet
153 702.5 m 128,-1,1
 210 800 210 800 307.5 856.5 c 128,-1,2
 405 913 405 913 521 913 c 256,3,4
 637 913 637 913 734 856.5 c 128,-1,5
 831 800 831 800 887.5 703 c 128,-1,6
 944 606 944 606 944 489 c 256,7,8
 944 372 944 372 887.5 274.5 c 128,-1,9
 831 177 831 177 734 120.5 c 128,-1,10
 637 64 637 64 521 64 c 256,11,12
 405 64 405 64 307.5 120.5 c 128,-1,13
 210 177 210 177 153 274.5 c 128,-1,14
 96 372 96 372 96 489 c 0,15,0
 96 605 96 605 153 702.5 c 128,-1,1
214 305.5 m 128,-1,17
 261 222 261 222 342 173.5 c 128,-1,18
 423 125 423 125 521 125 c 256,19,20
 619 125 619 125 699.5 174 c 128,-1,21
 780 223 780 223 826.5 306.5 c 128,-1,22
 873 390 873 390 873 489 c 0,23,24
 873 589 873 589 826.5 672.5 c 128,-1,25
 780 756 780 756 699.5 804.5 c 128,-1,26
 619 853 619 853 521 853 c 0,27,28
 422 853 422 853 341 804 c 128,-1,29
 260 755 260 755 213.5 671.5 c 128,-1,30
 167 588 167 588 167 489 c 0,31,16
 167 389 167 389 214 305.5 c 128,-1,17
362 660 m 1,32,-1
 321 671 l 1,33,-1
 321 724 l 1,34,-1
 414 724 l 2,35,36
 436 723 436 723 476 725 c 0,37,38
 506 727 506 727 532 727 c 0,39,40
 626 727 626 727 671 692.5 c 128,-1,41
 716 658 716 658 716 599 c 0,42,43
 716 548 716 548 691.5 511 c 128,-1,44
 667 474 667 474 614 463 c 1,45,46
 652 448 652 448 669 423.5 c 128,-1,47
 686 399 686 399 700 361 c 0,48,49
 709 334 709 334 718.5 320.5 c 128,-1,50
 728 307 728 307 747 306 c 1,51,-1
 747 254 l 1,52,-1
 645 254 l 2,53,54
 624 254 624 254 613 273.5 c 128,-1,55
 602 293 602 293 591 333 c 0,56,57
 579 379 579 379 566.5 403.5 c 128,-1,58
 554 428 554 428 527 437 c 1,59,-1
 471 437 l 1,60,-1
 471 312 l 1,61,-1
 517 302 l 1,62,-1
 517 254 l 1,63,-1
 321 254 l 1,64,-1
 321 302 l 1,65,-1
 362 315 l 1,66,-1
 362 660 l 1,32,-1
530 497 m 0,68,69
 558 497 558 497 577 522.5 c 128,-1,70
 596 548 596 548 596 583 c 0,71,72
 596 629 596 629 578 648.5 c 128,-1,73
 560 668 560 668 519 668 c 0,74,75
 492 668 492 668 471 663 c 1,76,-1
 471 501 l 1,77,67
 487 497 487 497 530 497 c 0,68,69
EndSplineSet
Validated: 33
EndChar

StartChar: trademark
Encoding: 8482 8482 244
Width: 1154
GlyphClass: 1
Flags: W
LayerCount: 2
Fore
SplineSet
198 710 m 1,0,-1
 128 709 l 1,1,-1
 107 627 l 1,2,-1
 58 627 l 1,3,-1
 67 763 l 1,4,-1
 446 763 l 1,5,-1
 446 628 l 1,6,-1
 399 625 l 1,7,-1
 386 709 l 1,8,-1
 313 711 l 1,9,-1
 313 416 l 1,10,-1
 371 408 l 1,11,-1
 371 364 l 1,12,-1
 144 364 l 1,13,-1
 144 408 l 1,14,-1
 198 416 l 1,15,-1
 198 710 l 1,0,-1
556 710 m 1,16,-1
 503 714 l 1,17,-1
 503 763 l 1,18,-1
 724 763 l 1,19,-1
 782 567 l 1,20,-1
 803 489 l 1,21,-1
 890 763 l 1,22,-1
 1085 763 l 1,23,-1
 1085 714 l 1,24,-1
 1034 710 l 1,25,-1
 1060 416 l 1,26,-1
 1112 408 l 1,27,-1
 1112 364 l 1,28,-1
 905 364 l 1,29,-1
 905 408 l 1,30,-1
 951 416 l 1,31,-1
 937 609 l 1,32,-1
 935 711 l 1,33,-1
 914 639 l 1,34,-1
 820 360 l 1,35,-1
 742 360 l 1,36,-1
 653 625 l 1,37,-1
 619 714 l 1,38,-1
 618 623 l 1,39,-1
 603 416 l 1,40,-1
 647 408 l 1,41,-1
 647 364 l 1,42,-1
 477 364 l 1,43,-1
 477 408 l 1,44,-1
 529 416 l 1,45,-1
 556 710 l 1,16,-1
EndSplineSet
Validated: 1
EndChar

StartChar: degree
Encoding: 176 176 245
Width: 505
GlyphClass: 1
Flags: W
LayerCount: 2
Fore
SplineSet
160.5 473 m 128,-1,1
 118 498 118 498 93 540 c 128,-1,2
 68 582 68 582 68 631 c 0,3,4
 68 682 68 682 93 724 c 128,-1,5
 118 766 118 766 160.5 790 c 128,-1,6
 203 814 203 814 253 814 c 0,7,8
 305 814 305 814 347.5 789 c 128,-1,9
 390 764 390 764 414 722 c 128,-1,10
 438 680 438 680 438 631 c 0,11,12
 438 580 438 580 413 538 c 128,-1,13
 388 496 388 496 346 472 c 128,-1,14
 304 448 304 448 253 448 c 0,15,0
 203 448 203 448 160.5 473 c 128,-1,1
317.5 563 m 128,-1,17
 342 590 342 590 342 631 c 0,18,19
 342 670 342 670 316 698.5 c 128,-1,20
 290 727 290 727 252 727 c 0,21,22
 213 727 213 727 188 699.5 c 128,-1,23
 163 672 163 672 163 631 c 0,24,25
 163 593 163 593 190 564.5 c 128,-1,26
 217 536 217 536 254 536 c 0,27,16
 293 536 293 536 317.5 563 c 128,-1,17
EndSplineSet
Validated: 1
EndChar

StartChar: bar
Encoding: 124 124 246
Width: 422
GlyphClass: 1
Flags: W
LayerCount: 2
Fore
SplineSet
266 -91 m 1,0,-1
 156 -91 l 1,1,-1
 156 869 l 1,2,-1
 266 869 l 1,3,-1
 266 -91 l 1,0,-1
EndSplineSet
Validated: 1
EndChar

StartChar: brokenbar
Encoding: 166 166 247
Width: 422
GlyphClass: 1
Flags: W
LayerCount: 2
Fore
SplineSet
266 464 m 1,0,-1
 156 464 l 1,1,-1
 156 869 l 1,2,-1
 266 869 l 1,3,-1
 266 464 l 1,0,-1
266 -91 m 1,4,-1
 156 -91 l 1,5,-1
 156 313 l 1,6,-1
 266 313 l 1,7,-1
 266 -91 l 1,4,-1
EndSplineSet
Validated: 1
EndChar

StartChar: asciicircum
Encoding: 94 94 248
Width: 666
GlyphClass: 1
Flags: W
LayerCount: 2
Fore
SplineSet
588 134 m 1,0,-1
 460 134 l 1,1,-1
 332 587 l 1,2,-1
 205 134 l 1,3,-1
 77 134 l 1,4,-1
 276 748 l 1,5,-1
 387 748 l 1,6,-1
 588 134 l 1,0,-1
EndSplineSet
Validated: 1
EndChar

StartChar: minute
Encoding: 8242 8242 249
Width: 343
GlyphClass: 1
Flags: W
LayerCount: 2
Fore
SplineSet
295 875 m 1,0,-1
 201 547 l 1,1,-1
 98 547 l 1,2,-1
 146 875 l 1,3,-1
 295 875 l 1,0,-1
EndSplineSet
Validated: 1
EndChar

StartChar: second
Encoding: 8243 8243 250
Width: 594
GlyphClass: 1
Flags: W
LayerCount: 2
Fore
SplineSet
295 875 m 1,0,-1
 201 547 l 1,1,-1
 98 547 l 1,2,-1
 146 875 l 1,3,-1
 295 875 l 1,0,-1
546 875 m 1,4,-1
 452 547 l 1,5,-1
 349 547 l 1,6,-1
 397 875 l 1,7,-1
 546 875 l 1,4,-1
EndSplineSet
Validated: 1
EndChar

StartChar: uni0308
Encoding: 65571 -1 251
Width: 0
GlyphClass: 1
Flags: W
LayerCount: 2
Fore
SplineSet
-184.5 666 m 128,-1,1
 -204 689 -204 689 -204 722 c 0,2,3
 -204 764 -204 764 -183 789.5 c 128,-1,4
 -162 815 -162 815 -120 815 c 0,5,6
 -81 815 -81 815 -62 793 c 128,-1,7
 -43 771 -43 771 -43 737 c 0,8,9
 -43 643 -43 643 -130 643 c 0,10,0
 -165 643 -165 643 -184.5 666 c 128,-1,1
64 667 m 128,-1,12
 44 691 44 691 44 722 c 0,13,14
 44 764 44 764 65 789.5 c 128,-1,15
 86 815 86 815 128 815 c 0,16,17
 167 815 167 815 186.5 793 c 128,-1,18
 206 771 206 771 206 737 c 0,19,20
 206 643 206 643 119 643 c 0,21,11
 84 643 84 643 64 667 c 128,-1,12
EndSplineSet
Validated: 1
EndChar

StartChar: uni0307
Encoding: 65572 -1 252
Width: 0
GlyphClass: 1
Flags: W
LayerCount: 2
Fore
SplineSet
-72 665 m 128,-1,1
 -96 688 -96 688 -96 724 c 0,2,3
 -96 766 -96 766 -69 793 c 128,-1,4
 -42 820 -42 820 3 820 c 0,5,6
 47 820 47 820 71 797 c 128,-1,7
 95 774 95 774 95 738 c 0,8,9
 95 695 95 695 68 668.5 c 128,-1,10
 41 642 41 642 -8 642 c 2,11,-1
 -9 642 l 2,12,0
 -48 642 -48 642 -72 665 c 128,-1,1
EndSplineSet
Validated: 1
EndChar

StartChar: gravecomb
Encoding: 65573 -1 253
Width: 0
GlyphClass: 1
Flags: W
LayerCount: 2
Fore
SplineSet
-43.5 677.5 m 128,-1,1
 -87 709 -87 709 -126.5 746.5 c 128,-1,2
 -166 784 -166 784 -182 813 c 1,3,-1
 -87 899 l 1,4,-1
 87 685 l 1,5,-1
 29 636 l 1,6,-1
 28 636 l 1,7,0
 0 646 0 646 -43.5 677.5 c 128,-1,1
EndSplineSet
Validated: 1
EndChar

StartChar: acutecomb
Encoding: 65574 -1 254
Width: 0
GlyphClass: 1
Flags: W
LayerCount: 2
Fore
SplineSet
-104 685 m 1,0,-1
 70 899 l 1,1,-1
 166 813 l 1,2,3
 140 769 140 769 70 711.5 c 128,-1,4
 0 654 0 654 -46 636 c 1,5,-1
 -104 685 l 1,0,-1
EndSplineSet
Validated: 1
EndChar

StartChar: uni0302
Encoding: 65575 -1 255
Width: 0
GlyphClass: 1
Flags: W
LayerCount: 2
Fore
SplineSet
45 865 m 1,0,-1
 199 670 l 1,1,-1
 144 625 l 1,2,-1
 0 750 l 1,3,-1
 -147 624 l 1,4,-1
 -200 669 l 1,5,-1
 -47 865 l 1,6,-1
 45 865 l 1,0,-1
EndSplineSet
Validated: 1
EndChar

StartChar: uni030A
Encoding: 65576 -1 256
Width: 0
GlyphClass: 1
Flags: W
LayerCount: 2
Fore
SplineSet
-134 670 m 128,-1,1
 -177 709 -177 709 -177 773 c 0,2,3
 -177 843 -177 843 -124 882 c 128,-1,4
 -71 921 -71 921 6 921 c 0,5,6
 89 921 89 921 132.5 881.5 c 128,-1,7
 176 842 176 842 176 777 c 0,8,9
 176 709 176 709 125.5 670 c 128,-1,10
 75 631 75 631 -2 631 c 0,11,0
 -91 631 -91 631 -134 670 c 128,-1,1
63.5 715.5 m 128,-1,13
 83 734 83 734 83 772 c 0,14,15
 83 809 83 809 63 831 c 128,-1,16
 43 853 43 853 1 853 c 0,17,18
 -84 853 -84 853 -84 778 c 0,19,20
 -84 743 -84 743 -63 720 c 128,-1,21
 -42 697 -42 697 0 697 c 0,22,12
 44 697 44 697 63.5 715.5 c 128,-1,13
EndSplineSet
Validated: 1
EndChar

StartChar: tildecomb
Encoding: 65577 -1 257
Width: 0
GlyphClass: 1
Flags: W
LayerCount: 2
Fore
SplineSet
-160.5 789.5 m 128,-1,1
 -122 822 -122 822 -74 822 c 0,2,3
 -45 822 -45 822 -24 811 c 128,-1,4
 -3 800 -3 800 23 779 c 0,5,6
 42 764 42 764 54 757 c 128,-1,7
 66 750 66 750 80 750 c 0,8,9
 103 750 103 750 114 761.5 c 128,-1,10
 125 773 125 773 130.5 785.5 c 128,-1,11
 136 798 136 798 138 802 c 1,12,-1
 202 765 l 1,13,14
 196 713 196 713 161.5 679 c 128,-1,15
 127 645 127 645 77 645 c 0,16,17
 48 645 48 645 27 656.5 c 128,-1,18
 6 668 6 668 -19 689 c 0,19,20
 -39 705 -39 705 -52 712.5 c 128,-1,21
 -65 720 -65 720 -80 720 c 0,22,23
 -101 720 -101 720 -112.5 709.5 c 128,-1,24
 -124 699 -124 699 -132.5 686 c 128,-1,25
 -141 673 -141 673 -147 666 c 1,26,-1
 -210 703 l 1,27,0
 -199 757 -199 757 -160.5 789.5 c 128,-1,1
EndSplineSet
Validated: 1
EndChar

StartChar: uni0308.case
Encoding: 65578 -1 258
Width: 0
GlyphClass: 1
Flags: W
LayerCount: 2
Fore
SplineSet
-192 824.5 m 128,-1,1
 -211 847 -211 847 -211 879 c 0,2,3
 -211 920 -211 920 -190 945 c 128,-1,4
 -169 970 -169 970 -127 970 c 2,5,-1
 -126 970 l 2,6,7
 -88 970 -88 970 -68.5 948 c 128,-1,8
 -49 926 -49 926 -49 893 c 0,9,10
 -49 853 -49 853 -72 827.5 c 128,-1,11
 -95 802 -95 802 -141 802 c 2,12,-1
 -142 802 l 2,13,0
 -173 802 -173 802 -192 824.5 c 128,-1,1
69 825.5 m 128,-1,15
 50 849 50 849 50 879 c 0,16,17
 50 920 50 920 70.5 945 c 128,-1,18
 91 970 91 970 133 970 c 2,19,-1
 134 970 l 2,20,21
 173 970 173 970 192 948 c 128,-1,22
 211 926 211 926 211 893 c 0,23,24
 211 853 211 853 188.5 827.5 c 128,-1,25
 166 802 166 802 119 802 c 0,26,14
 88 802 88 802 69 825.5 c 128,-1,15
EndSplineSet
Validated: 1
EndChar

StartChar: gravecomb.case
Encoding: 65579 -1 259
Width: 0
GlyphClass: 1
Flags: W
LayerCount: 2
Fore
SplineSet
-76.5 841 m 128,-1,1
 -131 877 -131 877 -161 913 c 1,2,-1
 -55 982 l 1,3,-1
 79 836 l 1,4,-1
 15 792 l 1,5,0
 -22 805 -22 805 -76.5 841 c 128,-1,1
EndSplineSet
Validated: 1
EndChar

StartChar: acutecomb.case
Encoding: 65580 -1 260
Width: 0
GlyphClass: 1
Flags: W
LayerCount: 2
Fore
SplineSet
-85 836 m 1,0,-1
 44 982 l 1,1,-1
 156 913 l 1,2,3
 119 872 119 872 69 838 c 128,-1,4
 19 804 19 804 -14 792 c 1,5,-1
 -85 836 l 1,0,-1
EndSplineSet
Validated: 1
EndChar

StartChar: uni0302.case
Encoding: 65581 -1 261
Width: 0
GlyphClass: 1
Flags: W
LayerCount: 2
Fore
SplineSet
49 980 m 1,0,-1
 199 835 l 1,1,-1
 144 789 l 1,2,-1
 1 884 l 1,3,-1
 -143 789 l 1,4,-1
 -197 834 l 1,5,-1
 -46 980 l 1,6,-1
 49 980 l 1,0,-1
EndSplineSet
Validated: 1
EndChar

StartChar: tildecomb.case
Encoding: 65582 -1 262
Width: 0
GlyphClass: 1
Flags: W
LayerCount: 2
Fore
SplineSet
25 813.5 m 128,-1,1
 7 823 7 823 -15 842 c 0,2,3
 -31 856 -31 856 -43 863 c 128,-1,4
 -55 870 -55 870 -71 870 c 0,5,6
 -94 870 -94 870 -108 854.5 c 128,-1,7
 -122 839 -122 839 -132 810 c 1,8,-1
 -193 848 l 1,9,10
 -178 903 -178 903 -145.5 933.5 c 128,-1,11
 -113 964 -113 964 -68 964 c 0,12,13
 -39 964 -39 964 -19.5 954 c 128,-1,14
 0 944 0 944 21 926 c 0,15,16
 39 911 39 911 50.5 904.5 c 128,-1,17
 62 898 62 898 77 898 c 0,18,19
 98 898 98 898 111.5 913.5 c 128,-1,20
 125 929 125 929 135 958 c 1,21,-1
 197 920 l 1,22,23
 181 864 181 864 149 834 c 128,-1,24
 117 804 117 804 71 804 c 0,25,0
 43 804 43 804 25 813.5 c 128,-1,1
EndSplineSet
Validated: 1
EndChar

StartChar: uni02BC
Encoding: 700 700 263
Width: 242
GlyphClass: 1
Flags: W
LayerCount: 2
Fore
SplineSet
16 471 m 1,0,-1
 16 487 l 1,1,2
 41 510 41 510 63 553.5 c 128,-1,3
 85 597 85 597 85 659 c 0,4,5
 85 690 85 690 76 710 c 128,-1,6
 67 730 67 730 50 752 c 0,7,8
 35 772 35 772 28 787.5 c 128,-1,9
 21 803 21 803 21 826 c 0,10,11
 21 858 21 858 43 879.5 c 128,-1,12
 65 901 65 901 98 901 c 256,13,14
 131 901 131 901 157.5 878 c 128,-1,15
 184 855 184 855 199 816.5 c 128,-1,16
 214 778 214 778 214 735 c 0,17,18
 214 665 214 665 189 603.5 c 128,-1,19
 164 542 164 542 127.5 498 c 128,-1,20
 91 454 91 454 56 436 c 1,21,-1
 16 471 l 1,0,-1
EndSplineSet
Validated: 1
EndChar

StartChar: acute
Encoding: 180 180 264
Width: 333
GlyphClass: 1
Flags: W
LayerCount: 2
Fore
SplineSet
74 685 m 1,0,-1
 252 899 l 1,1,-1
 347 813 l 1,2,3
 321 769 321 769 250.5 711 c 128,-1,4
 180 653 180 653 135 636 c 1,5,-1
 74 685 l 1,0,-1
EndSplineSet
Validated: 1
EndChar

StartChar: cedilla
Encoding: 184 184 265
Width: 300
GlyphClass: 1
Flags: W
LayerCount: 2
Fore
SplineSet
55.5 -252 m 128,-1,1
 35 -248 35 -248 22 -242 c 1,2,-1
 22 -150 l 1,3,4
 43 -156 43 -156 64 -156 c 0,5,6
 102 -156 102 -156 117.5 -143 c 128,-1,7
 133 -130 133 -130 133 -87 c 0,8,9
 133 -63 133 -63 122.5 -37.5 c 128,-1,10
 112 -12 112 -12 101 3 c 1,11,-1
 153 7 l 1,12,-1
 173 3 l 1,13,14
 196 -17 196 -17 219 -55.5 c 128,-1,15
 242 -94 242 -94 242 -136 c 0,16,17
 242 -203 242 -203 205 -229.5 c 128,-1,18
 168 -256 168 -256 93 -256 c 0,19,0
 76 -256 76 -256 55.5 -252 c 128,-1,1
EndSplineSet
Validated: 1
EndChar

StartChar: circumflex
Encoding: 710 710 266
Width: 503
GlyphClass: 1
Flags: W
LayerCount: 2
Fore
SplineSet
297 876 m 1,0,-1
 451 680 l 1,1,-1
 396 635 l 1,2,-1
 252 761 l 1,3,-1
 105 635 l 1,4,-1
 52 680 l 1,5,-1
 205 876 l 1,6,-1
 297 876 l 1,0,-1
EndSplineSet
Validated: 1
EndChar

StartChar: dieresis
Encoding: 168 168 267
Width: 500
GlyphClass: 1
Flags: W
LayerCount: 2
Fore
SplineSet
63.5 675.5 m 128,-1,1
 43 699 43 699 43 731 c 0,2,3
 43 773 43 773 65 799 c 128,-1,4
 87 825 87 825 129 825 c 0,5,6
 169 825 169 825 189 802.5 c 128,-1,7
 209 780 209 780 209 746 c 0,8,9
 209 704 209 704 185.5 678 c 128,-1,10
 162 652 162 652 115 652 c 0,11,0
 84 652 84 652 63.5 675.5 c 128,-1,1
311.5 676.5 m 128,-1,13
 291 701 291 701 291 731 c 0,14,15
 291 773 291 773 313 799 c 128,-1,16
 335 825 335 825 378 825 c 0,17,18
 417 825 417 825 437 802.5 c 128,-1,19
 457 780 457 780 457 746 c 0,20,21
 457 704 457 704 433.5 678 c 128,-1,22
 410 652 410 652 363 652 c 0,23,12
 332 652 332 652 311.5 676.5 c 128,-1,13
EndSplineSet
Validated: 1
EndChar

StartChar: grave
Encoding: 96 96 268
Width: 333
GlyphClass: 1
Flags: W
LayerCount: 2
Fore
SplineSet
113.5 677.5 m 128,-1,1
 70 709 70 709 30.5 746.5 c 128,-1,2
 -9 784 -9 784 -25 813 c 1,3,-1
 70 899 l 1,4,-1
 248 685 l 1,5,-1
 186 636 l 1,6,-1
 185 636 l 1,7,0
 157 646 157 646 113.5 677.5 c 128,-1,1
EndSplineSet
Validated: 1
EndChar

StartChar: macron
Encoding: 175 175 269
Width: 333
GlyphClass: 1
Flags: W
LayerCount: 2
Fore
SplineSet
321 692 m 1,0,-1
 11 692 l 1,1,-1
 11 788 l 1,2,-1
 321 788 l 1,3,-1
 321 692 l 1,0,-1
EndSplineSet
Validated: 1
EndChar

StartChar: ring
Encoding: 730 730 270
Width: 498
GlyphClass: 1
Flags: W
LayerCount: 2
Fore
SplineSet
115 671 m 128,-1,1
 72 711 72 711 72 776 c 0,2,3
 72 844 72 844 125.5 882.5 c 128,-1,4
 179 921 179 921 255 921 c 0,5,6
 339 921 339 921 382 881 c 128,-1,7
 425 841 425 841 425 775 c 0,8,9
 424 708 424 708 374 669.5 c 128,-1,10
 324 631 324 631 247 631 c 0,11,0
 158 631 158 631 115 671 c 128,-1,1
312.5 715.5 m 128,-1,13
 332 734 332 734 332 772 c 0,14,15
 332 809 332 809 312 831 c 128,-1,16
 292 853 292 853 250 853 c 0,17,18
 165 853 165 853 165 778 c 0,19,20
 165 743 165 743 186 720 c 128,-1,21
 207 697 207 697 249 697 c 0,22,12
 293 697 293 697 312.5 715.5 c 128,-1,13
EndSplineSet
Validated: 1
EndChar

StartChar: tilde
Encoding: 732 732 271
Width: 518
GlyphClass: 1
Flags: W
LayerCount: 2
Fore
SplineSet
92 796 m 128,-1,1
 129 829 129 829 185 829 c 0,2,3
 217 829 217 829 239 817.5 c 128,-1,4
 261 806 261 806 288 784 c 0,5,6
 311 766 311 766 325.5 758 c 128,-1,7
 340 750 340 750 358 750 c 0,8,9
 385 750 385 750 400.5 762 c 128,-1,10
 416 774 416 774 434 796 c 1,11,-1
 483 756 l 1,12,13
 460 710 460 710 426 678.5 c 128,-1,14
 392 647 392 647 337 647 c 0,15,16
 307 647 307 647 285.5 658 c 128,-1,17
 264 669 264 669 236 691 c 0,18,19
 213 709 213 709 197 717.5 c 128,-1,20
 181 726 181 726 161 726 c 0,21,22
 134 726 134 726 118 714 c 128,-1,23
 102 702 102 702 83 680 c 1,24,-1
 35 720 l 1,25,0
 55 763 55 763 92 796 c 128,-1,1
EndSplineSet
Validated: 1
EndChar

StartChar: D_O_L_B_Y_S_U_R_R_O_U_N_D
Encoding: 65583 -1 272
Width: 7367
Flags: W
LayerCount: 2
Fore
SplineSet
1566 -200 m 1,0,-1
 1566 800 l 1,1,-1
 7359 800 l 1,2,-1
 7359 -200 l 1,3,-1
 1566 -200 l 1,0,-1
7295 -131 m 1,4,-1
 7295 730 l 1,5,-1
 1629 730 l 1,6,-1
 1629 -131 l 1,7,-1
 7295 -131 l 1,4,-1
6674 524 m 1,8,-1
 6880 524 l 2,9,10
 7044 524 7044 524 7044 349 c 2,11,-1
 7044 255 l 2,12,13
 7044 73 7044 73 6895 73 c 2,14,-1
 6674 73 l 1,15,-1
 6674 524 l 1,8,-1
6932 255 m 2,16,-1
 6932 349 l 2,17,18
 6932 420 6932 420 6877 420 c 2,19,-1
 6782 420 l 1,20,-1
 6782 178 l 1,21,-1
 6877 178 l 2,22,23
 6932 178 6932 178 6932 255 c 2,16,-1
6226 73 m 1,24,-1
 6226 524 l 1,25,-1
 6410 524 l 1,26,-1
 6527 178 l 1,27,-1
 6531 178 l 1,28,-1
 6525 524 l 1,29,-1
 6633 524 l 1,30,-1
 6633 73 l 1,31,-1
 6449 73 l 1,32,-1
 6333 420 l 1,33,-1
 6328 420 l 1,34,-1
 6335 73 l 1,35,-1
 6226 73 l 1,24,-1
6181 224 m 2,36,37
 6181 136 6181 136 6142 103 c 128,-1,38
 6103 70 6103 70 6011 70 c 0,39,40
 5896 70 5896 70 5863 103 c 128,-1,41
 5830 136 5830 136 5830 224 c 2,42,-1
 5830 524 l 1,43,-1
 5938 524 l 1,44,-1
 5938 226 l 2,45,46
 5938 174 5938 174 6011 174 c 0,47,48
 6048 174 6048 174 6060 184 c 128,-1,49
 6072 194 6072 194 6072 232 c 2,50,-1
 6072 524 l 1,51,-1
 6181 524 l 1,52,-1
 6181 224 l 2,36,37
5422 362 m 2,53,54
 5422 459 5422 459 5470 493 c 128,-1,55
 5518 527 5518 527 5611 527 c 0,56,57
 5705 527 5705 527 5752 493 c 128,-1,58
 5799 459 5799 459 5799 362 c 2,59,-1
 5799 235 l 2,60,61
 5799 70 5799 70 5611 70 c 0,62,63
 5422 70 5422 70 5422 235 c 2,64,-1
 5422 362 l 2,53,54
5688 249 m 2,65,-1
 5688 349 l 2,66,67
 5688 396 5688 396 5672 410 c 0,68,69
 5657 423 5657 423 5611 423 c 0,70,71
 5567 423 5567 423 5551 410 c 128,-1,72
 5535 397 5535 397 5535 349 c 2,73,-1
 5535 249 l 2,74,75
 5536 202 5536 202 5551 188 c 128,-1,76
 5566 174 5566 174 5611 174 c 0,77,78
 5657 174 5657 174 5672.16259766 187.5859375 c 0,79,80
 5688 201.776511126 5688 201.776511126 5688 249 c 2,65,-1
5326.49707031 248.553710938 m 1,81,-1
 5326.49707031 244.30078125 l 1,82,83
 5399.79394531 240.805664062 5399.79394531 240.805664062 5399.79394531 164.622070312 c 2,84,-1
 5399.79394531 73.22265625 l 1,85,-1
 5291.41113281 73.22265625 l 1,86,-1
 5291.41113281 136.989257812 l 2,87,88
 5293.24316406 193.296875 5293.24316406 193.296875 5246.79785156 193.296875 c 2,89,-1
 5162.86621094 193.296875 l 1,90,-1
 5162.86621094 73.22265625 l 1,91,-1
 5054.48339844 73.22265625 l 1,92,-1
 5054.48339844 523.752929688 l 1,93,-1
 5263.80175781 523.752929688 l 2,94,95
 5339.16601562 522.038085938 5339.16601562 522.038085938 5371.60644531 494.568359375 c 128,-1,96
 5404.04980469 467.096679688 5404.04980469 467.096679688 5404.04980469 387.73828125 c 0,97,98
 5404.04980469 340.983398438 5404.04980469 340.983398438 5401.24316406 320.420898438 c 128,-1,99
 5398.4375 299.85546875 5398.4375 299.85546875 5381.00390625 279.028320312 c 128,-1,100
 5363.56738281 258.201171875 5363.56738281 258.201171875 5326.49707031 248.553710938 c 1,81,-1
5246.79785156 297.422851562 m 2,101,102
 5279.20800781 297.422851562 5279.20800781 297.422851562 5285.84472656 310.703125 c 128,-1,103
 5292.48242188 323.984375 5292.48242188 323.984375 5292.48242188 367.557617188 c 0,104,105
 5292.48242188 419.619140625 5292.48242188 419.619140625 5246.79785156 419.619140625 c 2,106,-1
 5162.86621094 419.619140625 l 1,107,-1
 5162.86621094 297.422851562 l 1,108,-1
 5246.79785156 297.422851562 l 2,101,102
4945.04589844 248.553710938 m 1,109,-1
 4945.04589844 244.30078125 l 1,110,111
 5018.34179688 240.805664062 5018.34179688 240.805664062 5018.34179688 164.622070312 c 2,112,-1
 5018.34179688 73.22265625 l 1,113,-1
 4909.96679688 73.22265625 l 1,114,-1
 4909.96679688 136.989257812 l 2,115,116
 4911.78613281 193.296875 4911.78613281 193.296875 4865.3515625 193.296875 c 2,117,-1
 4781.40332031 193.296875 l 1,118,-1
 4781.40332031 73.22265625 l 1,119,-1
 4671.98144531 73.22265625 l 1,120,-1
 4671.98144531 523.752929688 l 1,121,-1
 4882.34765625 523.752929688 l 2,122,123
 4957.72167969 522.038085938 4957.72167969 522.038085938 4990.16992188 494.56640625 c 128,-1,124
 5022.61816406 467.096679688 5022.61816406 467.096679688 5022.61816406 387.73828125 c 0,125,126
 5022.61816406 340.983398438 5022.61816406 340.983398438 5019.8125 320.420898438 c 128,-1,127
 5017.00585938 299.85546875 5017.00585938 299.85546875 4999.56445312 279.028320312 c 128,-1,128
 4982.12597656 258.201171875 4982.12597656 258.201171875 4945.04589844 248.553710938 c 1,109,-1
4865.3515625 297.422851562 m 2,129,130
 4897.60351562 297.422851562 4897.60351562 297.422851562 4903.78515625 310.41015625 c 128,-1,131
 4909.96679688 323.396484375 4909.96679688 323.396484375 4909.96679688 367.557617188 c 0,132,133
 4909.96679688 419.619140625 4909.96679688 419.619140625 4865.3515625 419.619140625 c 2,134,-1
 4781.40332031 419.619140625 l 1,135,-1
 4781.40332031 297.422851562 l 1,136,-1
 4865.3515625 297.422851562 l 2,129,130
4629.46386719 224.112304688 m 2,137,138
 4629.46386719 136.36328125 4629.46386719 136.36328125 4590.3125 103.203125 c 128,-1,139
 4551.16113281 70.0458984375 4551.16113281 70.0458984375 4458.40136719 70.0458984375 c 0,140,141
 4343.32324219 70.0458984375 4343.32324219 70.0458984375 4310.54492188 102.997070312 c 128,-1,142
 4277.76367188 135.951171875 4277.76367188 135.951171875 4277.76367188 224.112304688 c 2,143,-1
 4277.76367188 523.752929688 l 1,144,-1
 4387.20898438 523.752929688 l 1,145,-1
 4387.20898438 226.233398438 l 2,146,147
 4387.20898438 174.171875 4387.20898438 174.171875 4458.40136719 174.171875 c 0,148,149
 4496.08984375 174.171875 4496.08984375 174.171875 4508.59082031 183.965820312 c 128,-1,150
 4521.08984375 193.762695312 4521.08984375 193.762695312 4521.08984375 231.530273438 c 2,151,-1
 4521.08984375 523.752929688 l 1,152,-1
 4629.46386719 523.752929688 l 1,153,-1
 4629.46386719 224.112304688 l 2,137,138
4245.88574219 217.731445312 m 0,154,155
 4245.88574219 167.0078125 4245.88574219 167.0078125 4240.70605469 143.336914062 c 128,-1,156
 4235.52636719 119.66796875 4235.52636719 119.66796875 4194.40917969 94.8564453125 c 128,-1,157
 4153.29296875 70.0458984375 4153.29296875 70.0458984375 4069.5234375 70.0458984375 c 0,158,159
 4005.04003906 70.0458984375 4005.04003906 70.0458984375 3975.38769531 75.8173828125 c 128,-1,160
 3945.73535156 81.5869140625 3945.73535156 81.5869140625 3921.02832031 115.623046875 c 128,-1,161
 3896.31933594 149.655273438 3896.31933594 149.655273438 3896.31933594 219.850585938 c 1,162,-1
 4001.48828125 219.850585938 l 1,163,164
 4001.48828125 186.204101562 4001.48828125 186.204101562 4014.50585938 177.53515625 c 128,-1,165
 4027.5234375 168.862304688 4027.5234375 168.862304688 4069.5234375 168.862304688 c 0,166,167
 4137.50292969 168.862304688 4137.50292969 168.862304688 4137.50292969 210.305664062 c 0,168,169
 4137.50292969 237.958984375 4137.50292969 237.958984375 4128.82324219 243.598632812 c 128,-1,170
 4120.14355469 249.241210938 4120.14355469 249.241210938 4080.12402344 251.739257812 c 2,171,-1
 4056.75292969 253.866210938 l 2,172,173
 3991.453125 258.668945312 3991.453125 258.668945312 3966.94140625 264.008789062 c 128,-1,174
 3942.43066406 269.350585938 3942.43066406 269.350585938 3919.90917969 298.952148438 c 128,-1,175
 3897.390625 328.555664062 3897.390625 328.555664062 3897.390625 389.865234375 c 0,176,177
 3897.390625 478.954101562 3897.390625 478.954101562 3936.90039062 502.943359375 c 128,-1,178
 3976.41015625 526.935546875 3976.41015625 526.935546875 4069.5234375 526.935546875 c 0,179,180
 4126.87695312 526.935546875 4126.87695312 526.935546875 4154.77441406 522.422851562 c 128,-1,181
 4182.67089844 517.912109375 4182.67089844 517.912109375 4208.43554688 488.94921875 c 128,-1,182
 4234.19824219 459.986328125 4234.19824219 459.986328125 4234.19824219 401.551757812 c 2,183,-1
 4234.19824219 382.426757812 l 1,184,-1
 4130.08007812 382.426757812 l 1,185,186
 4130.08007812 414.920898438 4130.08007812 414.920898438 4118.25585938 422.045898438 c 128,-1,187
 4106.43359375 429.168945312 4106.43359375 429.168945312 4069.5234375 429.168945312 c 0,188,189
 4005.7578125 429.168945312 4005.7578125 429.168945312 4005.7578125 390.920898438 c 0,190,191
 4005.7578125 355.521484375 4005.7578125 355.521484375 4050.37304688 350.548828125 c 2,192,-1
 4096.05761719 347.36328125 l 2,193,194
 4188.59082031 340.00390625 4188.59082031 340.00390625 4217.23828125 316.609375 c 128,-1,195
 4245.88574219 293.215820312 4245.88574219 293.215820312 4245.88574219 217.731445312 c 0,154,155
3549.92285156 75.349609375 m 1,196,-1
 3441.54101562 75.349609375 l 1,197,-1
 3441.54101562 232.61328125 l 1,198,-1
 3297.046875 524.80859375 l 1,199,-1
 3421.375 524.80859375 l 1,200,-1
 3497.86914062 351.6171875 l 1,201,-1
 3572.23046875 524.80859375 l 1,202,-1
 3697.609375 524.80859375 l 1,203,-1
 3549.92285156 232.61328125 l 1,204,-1
 3549.92285156 75.349609375 l 1,196,-1
3237.53417969 305.91796875 m 1,205,-1
 3237.53417969 301.6796875 l 1,206,207
 3307.66796875 296.751953125 3307.66796875 296.751953125 3307.66796875 200.727539062 c 0,208,209
 3307.66796875 123.256835938 3307.66796875 123.256835938 3276.99609375 99.3037109375 c 128,-1,210
 3246.32617188 75.349609375 3246.32617188 75.349609375 3174.8515625 75.349609375 c 2,211,-1
 2958.10253906 75.349609375 l 1,212,-1
 2958.10253906 524.80859375 l 1,213,-1
 3172.74023438 524.80859375 l 2,214,215
 3239.8671875 524.80859375 3239.8671875 524.80859375 3270.58300781 502.047851562 c 128,-1,216
 3301.30078125 479.290039062 3301.30078125 479.290039062 3301.30078125 410.05859375 c 0,217,218
 3301.30078125 317.390625 3301.30078125 317.390625 3237.53417969 305.91796875 c 1,205,-1
3067.54003906 427.0546875 m 1,219,-1
 3067.54003906 345.236328125 l 1,220,-1
 3145.11230469 345.236328125 l 2,221,222
 3192.91894531 345.236328125 3192.91894531 345.236328125 3192.91894531 388.793945312 c 0,223,224
 3192.91894531 425.849609375 3192.91894531 425.849609375 3158.91113281 427.0546875 c 2,225,-1
 3067.54003906 427.0546875 l 1,219,-1
3149.36132812 173.100585938 m 2,226,227
 3199.28613281 173.100585938 3199.28613281 173.100585938 3199.28613281 218.802734375 c 0,228,229
 3199.28613281 262.360351562 3199.28613281 262.360351562 3151.45996094 262.360351562 c 2,230,-1
 3067.54003906 262.360351562 l 1,231,-1
 3067.54003906 173.100585938 l 1,232,-1
 3149.36132812 173.100585938 l 2,226,227
2940.03515625 179.483398438 m 1,233,-1
 2940.03515625 75.349609375 l 1,234,-1
 2661.65332031 75.349609375 l 1,235,-1
 2661.65332031 524.80859375 l 1,236,-1
 2770.02832031 524.80859375 l 1,237,-1
 2770.02832031 179.483398438 l 1,238,-1
 2940.03515625 179.483398438 l 1,233,-1
2256.83007812 363.303710938 m 2,239,240
 2256.83007812 529.056640625 2256.83007812 529.056640625 2444.88964844 529.056640625 c 128,-1,241
 2632.95800781 529.056640625 2632.95800781 529.056640625 2632.95800781 363.303710938 c 2,242,-1
 2632.95800781 236.870117188 l 2,243,244
 2632.95800781 71.1083984375 2632.95800781 71.1083984375 2444.88964844 71.1083984375 c 128,-1,245
 2256.83007812 71.1083984375 2256.83007812 71.1083984375 2256.83007812 236.870117188 c 2,246,-1
 2256.83007812 363.303710938 l 2,239,240
2521.390625 249.609375 m 2,247,-1
 2521.390625 351.6171875 l 2,248,249
 2521.390625 398.666992188 2521.390625 398.666992188 2505.66699219 411.796875 c 128,-1,250
 2489.94238281 424.928710938 2489.94238281 424.928710938 2444.88964844 424.928710938 c 0,251,252
 2400.07226562 424.928710938 2400.07226562 424.928710938 2384.61035156 411.870117188 c 128,-1,253
 2369.14550781 398.814453125 2369.14550781 398.814453125 2368.39550781 351.6171875 c 2,254,-1
 2368.39550781 249.609375 l 2,255,256
 2369.14355469 201.82421875 2369.14355469 201.82421875 2384.46289062 189.061523438 c 128,-1,257
 2399.78027344 176.30078125 2399.78027344 176.30078125 2444.88964844 176.30078125 c 0,258,259
 2490.24023438 176.30078125 2490.24023438 176.30078125 2505.81445312 189.1328125 c 128,-1,260
 2521.390625 201.966796875 2521.390625 201.966796875 2521.390625 249.609375 c 2,247,-1
1866.87402344 524.80859375 m 1,261,-1
 2074.07324219 524.80859375 l 2,262,263
 2237.70507812 524.80859375 2237.70507812 524.80859375 2237.70507812 350.548828125 c 2,264,-1
 2237.70507812 255.977539062 l 2,265,266
 2237.70507812 75.349609375 2237.70507812 75.349609375 2087.87988281 75.349609375 c 2,267,-1
 1866.87402344 75.349609375 l 1,268,-1
 1866.87402344 524.80859375 l 1,261,-1
2126.125 255.977539062 m 2,269,-1
 2126.125 350.548828125 l 2,270,271
 2126.125 420.674804688 2126.125 420.674804688 2070.88378906 420.674804688 c 2,272,-1
 1975.25683594 420.674804688 l 1,273,-1
 1975.25683594 179.483398438 l 1,274,-1
 2070.88378906 179.483398438 l 2,275,276
 2126.125 179.483398438 2126.125 179.483398438 2126.125 255.977539062 c 2,269,-1
714.029296875 -200.897460938 m 1,277,-1
 714.029296875 800 l 1,278,-1
 1392.98046875 800 l 1,279,-1
 1392.98046875 -200.897460938 l 1,280,-1
 714.029296875 -200.897460938 l 1,277,-1
1251.66210938 -76.58984375 m 1,281,-1
 1251.66210938 673.55078125 l 1,282,-1
 1110.35839844 673.55078125 l 2,283,284
 1075.86523438 673.55078125 1075.86523438 673.55078125 1039.16113281 661.874023438 c 0,285,286
 947.33203125 630.454101562 947.33203125 630.454101562 887.518554688 529.15625 c 128,-1,287
 827.708007812 427.859375 827.708007812 427.859375 827.708007812 298.478515625 c 0,288,289
 827.708007812 168.500976562 827.708007812 168.500976562 887.450195312 67.529296875 c 128,-1,290
 947.194335938 -33.4443359375 947.194335938 -33.4443359375 1039.16113281 -64.8984375 c 0,291,292
 1075.91113281 -76.58984375 1075.91113281 -76.58984375 1110.35839844 -76.58984375 c 2,293,-1
 1251.66210938 -76.58984375 l 1,281,-1
0 -200.897460938 m 1,294,-1
 0 800 l 1,295,-1
 680.022460938 800 l 1,296,-1
 680.022460938 -200.897460938 l 1,297,-1
 0 -200.897460938 l 1,294,-1
353.819335938 -62.779296875 m 0,298,299
 446.500976562 -30.5400390625 446.500976562 -30.5400390625 506.416015625 70.3681640625 c 128,-1,300
 566.328125 171.279296875 566.328125 171.279296875 566.328125 300.608398438 c 0,301,302
 566.328125 430.731445312 566.328125 430.731445312 506.41015625 531.65234375 c 128,-1,303
 446.493164062 632.573242188 446.493164062 632.573242188 353.819335938 664.000976562 c 0,304,305
 318.796875 675.677734375 318.796875 675.677734375 282.629882812 675.677734375 c 2,306,-1
 141.326171875 675.677734375 l 1,307,-1
 141.326171875 -74.4501953125 l 1,308,-1
 282.629882812 -74.4501953125 l 2,309,310
 318.784179688 -74.4501953125 318.784179688 -74.4501953125 353.819335938 -62.779296875 c 0,298,299
EndSplineSet
Validated: 527393
Ligature2: "'liga' Standard Ligatures lookup 10 subtable" D o l b y space S u r r o u n d
LCarets2: 13 0 0 0 0 0 0 0 0 0 0 0 0 0
EndChar
